<svg xmlns="http://www.w3.org/2000/svg" id="indian-man-holding-plant-at-the-balcony-of-his-house" viewBox="0 0 700 550">
  <path fill="#efedef" d="M435.48209,475.59087c16.25-5.08,30.83-10.27,48.37-20.12,18.09-10.16,98.45-58.51,108.9-142.19a159.61541,159.61541,0,0,0-6.66-68.16c-3.23-9.47-9.93-28.49-26.84-47.3-20.7-23.04-44.32-31.97-58.17-37.02-29.14-10.63-53.58-10.07-65.22-9.69-12.56.41-34.73,1.33-59.93,12.34-16.44,7.18-26.66,15.37-41.72,27.61-23.86,19.41-27,27.49-68.74,67.57-11.46,11-20.88,19.67-35.26,28.21-9.97,5.92-18.03,9.23-32.9,15.27-36.55,14.85-46.95658,17.85676-58.91658,26.21676-23.26,16.27-21.75342,34.01324-22.75342,37.83324a75.12694,75.12694,0,0,0-1.77,29.97c3.05,20.07,13.86,33.19,20.57,41.13a113.09822,113.09822,0,0,0,32.9,26.44,210.24676,210.24676,0,0,0,26.96,11.89Z"></path>
  <path fill="#d1cfd1" d="M487.07375,461.40551l-.49023-.87207c23.90039-13.42676,102.69726-63.76172,113.17773-147.73633a166.33529,166.33529,0,0,0-6.91406-70.772c-2.97657-8.73145-9.94824-29.17871-27.84766-49.09522-21.9209-24.39062-46.94531-33.51855-60.38965-38.42236a174.115,174.115,0,0,0-67.74707-10.06836c-12.42383.40381-35.54883,1.15527-62.24316,12.811l-.40039-.916c26.87011-11.7334,51.00976-12.51758,62.61035-12.894a175.03025,175.03025,0,0,1,68.12207,10.12793c13.52637,4.93359,38.7041,14.11718,60.792,38.69335,18.03613,20.06836,25.05371,40.65186,28.05078,49.44141a167.40835,167.40835,0,0,1,6.959,71.21826C590.21535,397.3601,511.07766,447.92064,487.07375,461.40551Z"></path>
  <rect width="36.66" height="16.194" x="456.619" y="128.149" fill="#d1cfd1" transform="rotate(-180 474.95 136.246)"></rect>
  <rect width="36.66" height="16.194" x="435.344" y="106.904" fill="#d1cfd1" transform="rotate(-180 453.674 115.001)"></rect>
  <rect width="36.66" height="16.194" x="413.228" y="128.149" fill="#d1cfd1" transform="rotate(-180 431.558 136.246)"></rect>
  <rect width="36.66" height="16.194" x="442.926" y="149.395" fill="#d1cfd1" transform="rotate(-180 461.256 157.492)"></rect>
  <rect width="36.66" height="16.194" x="401.166" y="149.395" fill="#d1cfd1" transform="rotate(-180 419.496 157.492)"></rect>
  <rect width="36.66" height="16.194" x="148.173" y="230.843" fill="#d1cfd1" transform="rotate(-180 166.503 238.94)"></rect>
  <rect width="36.66" height="16.194" x="126.897" y="209.598" fill="#d1cfd1" transform="rotate(-180 145.227 217.695)"></rect>
  <rect width="36.66" height="16.194" x="104.782" y="230.843" fill="#d1cfd1" transform="rotate(-180 123.112 238.94)"></rect>
  <rect width="36.66" height="16.194" x="134.479" y="252.088" fill="#d1cfd1" transform="rotate(-180 152.81 260.185)"></rect>
  <rect width="36.66" height="16.194" x="92.719" y="252.088" fill="#d1cfd1" transform="rotate(-180 111.05 260.185)"></rect>
  <rect width="36.66" height="16.194" x="536.839" y="283.121" fill="#d1cfd1" transform="rotate(-180 555.169 291.218)"></rect>
  <rect width="36.66" height="16.194" x="515.564" y="261.876" fill="#d1cfd1" transform="rotate(-180 533.894 269.973)"></rect>
  <rect width="36.66" height="16.194" x="493.448" y="283.121" fill="#d1cfd1" transform="rotate(-180 511.778 291.218)"></rect>
  <rect width="36.66" height="16.194" x="523.146" y="304.367" fill="#d1cfd1" transform="rotate(-180 541.476 312.464)"></rect>
  <rect width="36.66" height="16.194" x="481.386" y="304.367" fill="#d1cfd1" transform="rotate(-180 499.716 312.464)"></rect>
  <rect width="33.835" height="33" x="252.156" y="158.998" fill="#7ca1b1" rx="1.089"></rect>
  <rect width="31.408" height="30.633" x="253.37" y="160.181" fill="#ffba55" rx="1.089"></rect>
  <path fill="#f65b2b" d="M268.30793,187.54213c-.48612.01133-1.37526-.17148-5.291-6.68364-3.07119-5.10763-3.48781-6.59752-3.62-8.07589-.11218-1.251-.40264-4.498,1.53163-5.70876a3.53176,3.53176,0,0,1,3.75938.13918c.45817.3407.77545.80831,1.39225,2.7847,1.03229,3.30763,1.0187,4.80281,1.53163,4.87345.52049.07176.80868-1.42946,2.50651-3.89876a7.88026,7.88026,0,0,1,2.78488-2.92388c.13182-.06912,2.38035-1.21907,3.62-.41775,1.3677.88385,1.455,4.10839-.41776,7.79732a56.77648,56.77648,0,0,1-3.06325,6.26589C270.84314,185.57066,269.71453,187.50946,268.30793,187.54213Z"></path>
  <rect width="48.468" height="363.354" x="159.051" y="112.237" fill="#a3716a"></rect>
  <polygon fill="#935b50" points="379.131 106.846 379.131 475.591 366.479 475.591 366.479 122.793 171.702 122.793 171.702 475.591 159.051 475.591 159.051 106.846 379.131 106.846"></polygon>
  <circle cx="194.452" cy="265.392" r="7.679" fill="#ffba55"></circle>
  <polygon fill="#a5716a" points="502.024 387.027 396.219 382.872 452.45 380.913 545.695 386.387 552.177 389.135 502.024 387.027"></polygon>
  <polygon fill="#d3a39c" points="553.935 413.552 494.971 428.207 496.696 386.803 552.177 389.135 553.935 413.552"></polygon>
  <path fill="#d3a39c" d="M545.46659,388.85271l6.71064.28206,11.38786-69.14009a12.06084,12.06084,0,0,0-10.22835-13.90446l-5.69415-.79715Z"></path>
  <path fill="#935b50" d="M437.08673,475.59087a5.3126,5.3126,0,0,1-.38-2v-49.28a5.5,5.5,0,0,1,11,0v49.28a5.3126,5.3126,0,0,1-.38,2Z"></path>
  <path fill="#935b50" d="M508.59537,434.86217c-.10156,0-.20312-.00293-.30566-.00781l-111.35156-6.09961a5.50041,5.50041,0,1,1,.60156-10.98437L508.89127,423.87a5.5002,5.5002,0,0,1-.2959,10.99218Z"></path>
  <path fill="#935b50" d="M391.37673,475.59087a5.50693,5.50693,0,0,1-.31-1.91l1.58-110.23a18.4575,18.4575,0,0,1,6.41-13.67,21.10679,21.10679,0,0,1,16.24-5.05l39.92,4.43a5.49839,5.49839,0,0,1-1.21,10.93l-39.92-4.42a10.03231,10.03231,0,0,0-7.75,2.36,7.57294,7.57294,0,0,0-2.69,5.58l-1.58,110.23a5.32455,5.32455,0,0,1-.32,1.75Z"></path>
  <path fill="#c38f86" d="m495.085 423.24075-99.62-4.61164a5.90744 5.90744 0 0 1-5.69765-5.89975l.20767-24.01911a5.96643 5.96643 0 0 1 6.24352-5.83843l99.93568 3.69083a5.90723 5.90723 0 0 1 5.75377 5.97309l-.52339 24.93993A5.96966 5.96966 0 0 1 495.085 423.24075ZM545.695 386.38746l-93.24535-5.47459 6.39063-69.256a8 8 0 0 1 7.992-7.26488l77.68789.25108a8 8 0 0 1 7.94 8.73812Z"></path>
  <path fill="#935b50" d="M564.64673,359.03087a5.44813,5.44813,0,0,1-4.43,1.42l-6.65-.84-30.06-3.82a7.94946,7.94946,0,0,0-8.93,7.82l-.81,110.18a5.12732,5.12732,0,0,1-.32,1.8h-10.36a5.58138,5.58138,0,0,1-.32-1.88l.81-110.18a18.93258,18.93258,0,0,1,21.31-18.65l29.56,3.75,7.15.91a5.45565,5.45565,0,0,1,3.65,2.08Z"></path>
  <path fill="#935b50" d="M555.07673,475.59087a5.00122,5.00122,0,0,0,.31-1.4l9.26-115.16.6-7.41,3.53-43.96a5.50262,5.50262,0,0,0-10.97-.88l-3.36,41.85-.88,10.98-9.14,113.69a5.44584,5.44584,0,0,0,.31,2.29Z"></path>
  <rect width="49.061" height="11.999" x="507.815" y="417.655" fill="#935b50" transform="rotate(-10.694 532.345 423.655)"></rect>
  <path fill="#8b9d36" d="M242.831,366.16773c2.87406,2.23323,7.93763,7.53678,8.07424,11.51444,0,0,9.306-10.1187,6.66022-18.77218a16.16172,16.16172,0,0,0-7.39006-7.44364s3.64919-2.04713,7.481,2.97757c0,0-1.36836-13.58486-20.29919-8.65348,0,0-7.39006-15.07355-22.03283-.83748,0,0,9.85317-1.256,7.93725,1.81448,0,0-5.93039,1.58183-9.83052,4.96262a9.84974,9.84974,0,0,0-3.30728,6.87761c-.22794,3.67535-.57764,10.94842.137,11.04932.95777.13952,7.25308-5.58277,11.49549-5.164s-9.71656,12.97984-9.71656,12.97984,2.87406,10.88652,4.1058,10.747c1.23136-.13952,5.70208-3.2566,3.87712,0l-3.14729,2.51226,4.10543,5.67591,10.30941-4.55939s-4.56167-12.46816-.36492-9.072c0,0,3.19294,4.23379,3.2386,7.39726,0,0,13.799-6.00152,12.43062-10.11889a92.4858,92.4858,0,0,0-5.2154-11.12674,4.705,4.705,0,0,1-.57021-1.96952C240.76324,365.91179,241.03683,364.772,242.831,366.16773Zm-1.6954-14.4532c1.29262-.89181,4.47071-.318,5.66422,2.58969,1.2774,3.10932,1.22394,6.57529-.06831,7.46692-1.29262.89181-4.96482-.27127-5.88473-3.27989C239.82811,355.1417,239.84333,352.60616,241.13558,351.71453Z"></path>
  <path fill="#5e7c24" d="M237.3572,345.79046a51.08346,51.08346,0,0,0-4.07276,5.29519,31.022,31.022,0,0,0-2.88623,5.976,66.62,66.62,0,0,0-1.90112,6.38549c-.55054,2.16407-1.07642,4.32579-1.51489,6.509-.4646,2.177-.87061,4.3684-1.20288,6.56854-.34229,2.20031-.53931,4.41411-.80957,6.63906a37.121,37.121,0,0,1-3.93433,12.79984,44.66886,44.66886,0,0,0,2.1853-6.31436,35.59305,35.59305,0,0,0,1.16162-6.54806,103.73651,103.73651,0,0,1,1.84912-13.30168c.46412-2.19289,1.01709-4.36794,1.59058-6.52758a53.5248,53.5248,0,0,1,2.0271-6.42083,31.1145,31.1145,0,0,1,3.12427-5.97334A44.239,44.239,0,0,1,237.3572,345.79046Z"></path>
  <path fill="#5e7c24" d="M231.98317 352.88281a20.4127 20.4127 0 0 0-2.24243.56443c-.7395.20481-1.467.45006-2.18725.71113-1.43775.53014-2.85376 1.11171-4.24366 1.75478-1.39721.62812-2.7539 1.34325-4.11792 2.05255-1.35986.71946-2.68554 1.50227-4.05 2.247.59179-.50167 1.20971-.9708 1.82226-1.45036.6416-.43549 1.27319-.89023 1.92993-1.3066a34.37682 34.37682 0 0 1 4.09546-2.2399 29.5378 29.5378 0 0 1 4.38623-1.61789A17.33151 17.33151 0 0 1 231.98317 352.88281ZM225.74611 374.46845c-1.06006.82208-2.16382 1.49489-3.2417 2.19708q-.81006.51984-1.58252 1.07392a4.34322 4.34322 0 0 0-1.30957 1.36179 2.85768 2.85768 0 0 1 .90967-1.8079 9.22741 9.22741 0 0 1 1.56568-1.27209A11.29056 11.29056 0 0 1 225.74611 374.46845ZM227.85988 364.52674a36.45607 36.45607 0 0 1 3.48731 3.76136 38.49949 38.49949 0 0 1 3.00122 4.17421 26.83062 26.83062 0 0 1 2.34253 4.59393 13.98113 13.98113 0 0 1 1.07666 5.0225 19.78161 19.78161 0 0 0-1.61963-4.79 41.78664 41.78664 0 0 0-2.45093-4.42083c-.87915-1.44257-1.84595-2.8333-2.81787-4.22381C229.89846 367.25936 228.88576 365.89409 227.85988 364.52674Z"></path>
  <path fill="#8b9d36" d="M215.233,408.13187l3.83179,3.53578s3.74057-3.95449,4.15112-1.20961c0,0-.593,2.74489-1.32288,2.9775,0,0,9.16894,7.374,11.01642,1.30266a58.565,58.565,0,0,1,2.80542-7.95551s2.05275,1.11656.2737,9.9095c0,0,7.096-2.08524,9.731-5.91075a2.73653,2.73653,0,0,0,.46351-1.52637c.0254-2.187.31365-8.34245,2.80623-6.03142,0,0,1.43692.69785.34212,5.37346,0,0,5.7749-6.51047,3.03183-10.51193a4.001,4.001,0,0,0-4.906-1.29451c-1.60371.69616-4.57933,1.97824-10.10016,4.33942A110.18225,110.18225,0,0,1,215.233,408.13187Z"></path>
  <path fill="#5e7c24" d="M227.85988 413.52859a21.88154 21.88154 0 0 1 1.88623-5.79873 14.09813 14.09813 0 0 1 1.62012-2.62514 6.26929 6.26929 0 0 1 1.113-1.10425 2.33308 2.33308 0 0 1 1.45752-.52094 2.48017 2.48017 0 0 0-1.20825.80276 8.3765 8.3765 0 0 0-.87623 1.1729 26.6404 26.6404 0 0 0-1.41674 2.61165C229.55446 409.85781 228.77 411.703 227.85988 413.52859ZM240.32229 410.64414a18.1952 18.1952 0 0 1 .48583-5.36144 13.748 13.748 0 0 1 .89576-2.57211 4.03629 4.03629 0 0 1 1.81152-2.02247 5.49669 5.49669 0 0 0-1.25854 2.25275c-.26734.82748-.49707 1.66966-.70313 2.52267C241.13845 407.17181 240.79372 408.90264 240.32229 410.64414ZM304.09427 347.25963s-9.21456 1.32223-1.00357 7.83552c0 0 2.09837 1.76789 8.94087 3.81492C312.03157 358.91007 316.31953 340.26154 304.09427 347.25963Z"></path>
  <path fill="#50661a" d="M312.03151,358.91007c-.17065-.61074-.28222-1.2225-.43579-1.82362-.186-.59257-.3164-1.19727-.53613-1.77148a17.62285,17.62285,0,0,0-1.54517-3.3031,13.255,13.255,0,0,0-2.32031-2.776,10.98737,10.98737,0,0,0-3.09985-1.97628,7.811,7.811,0,0,1,3.47095,1.51685,10.39746,10.39746,0,0,1,2.60083,2.83018,12.60793,12.60793,0,0,1,1.45727,3.54167c.15747.61651.22827,1.25107.34033,1.87111C311.99465,357.65342,312.03322,358.28292,312.03151,358.91007Z"></path>
  <path fill="#5e7c24" d="M292.4,309.58241s10.21579-6.50857,13.2756,7.94327c0,0-5.30164-4.5634-5.37186-1.92352a20.23456,20.23456,0,0,1,3.84568,6.852,7.50276,7.50276,0,0,1-.739,5.53967c-1.29858,2.36333-3.92221,7.0054-4.38334,6.79523-.61739-.28139-2.08782-6.24763-4.7443-7.61743s.65369,11.78068.65369,11.78068-5.93032,5.64676-6.59982,5.08716-2.08356-4.20785-2.27939-1.48845l.87167,2.76594-4.62419,1.94265-4.28285-6.78686s7.53855-5.97934,3.74887-5.4853c0,0-3.5261,1.39876-4.78542,3.343,0,0-5.772-9.02151-3.36358-11.049a68.35455,68.35455,0,0,1,7.382-4.88737,3.4594,3.4594,0,0,0,1.256-1.22567c.33966-.5852.40584-1.20887-1.01586-1.0528-2.55905.28092-7.60124,1.62485-9.23137,4.03884,0,0-1.52708-9.8488,3.39918-14.19843a11.37574,11.37574,0,0,1,7.24327-1.77741s-1.34731-2.671-5.55688-1.0271C277.09814,307.1515,283.195,299.25334,292.4,309.58241Z"></path>
  <path fill="#50661a" d="M296.97805 325.76185c-.83789-2.03094-1.60767-4.052-2.56763-5.96918a16.00245 16.00245 0 0 0-1.65161-2.71457 4.222 4.222 0 0 0-2.54541-1.75218 3.72034 3.72034 0 0 1 2.99463 1.35583 11.24065 11.24065 0 0 1 1.88843 2.76715A19.639 19.639 0 0 1 296.97805 325.76185ZM275.9944 330.62382a15.35711 15.35711 0 0 1 1.95289-3.15839 14.66154 14.66154 0 0 1 2.6499-2.648 9.7421 9.7421 0 0 1 3.36328-1.72649 6.47788 6.47788 0 0 1 3.72363.12062 8.47793 8.47793 0 0 0-3.54492.45126 11.7857 11.7857 0 0 0-3.07568 1.764 21.34128 21.34128 0 0 0-2.6648 2.42906C277.57155 328.74117 276.75881 329.6537 275.9944 330.62382Z"></path>
  <path fill="#50661a" d="M285.574,310.89787a4.72869,4.72869,0,0,1,3.15406-1.85322,7.413,7.413,0,0,1,1.88867-.05042c.314.03.62329.09414.9353.14378l.9148.23695.22631.05865-.0935.236c-1.19336,3.01434-2.20728,6.111-3.2085,9.20049-.98,3.0994-1.86255,6.228-2.7268,9.36192q-1.24659,4.71435-2.33326,9.47207c-.729,3.17114-1.37011,6.36165-2.02636,9.55552.40088-3.23417.88281-6.46234,1.51416-9.66279.57446-3.21282,1.354-6.38362,2.14526-9.54932.7981-3.16514,1.74585-6.291,2.76611-9.3914,1.01416-3.10414,2.15039-6.16368,3.47-9.16075l.13282.29444-.87183-.25981c-.29663-.0561-.59155-.13022-.88989-.17925a7.11167,7.11167,0,0,0-1.80908-.05866A4.77491,4.77491,0,0,0,285.574,310.89787Z"></path>
  <path fill="#50661a" d="M288.7322,338.83589a16.916,16.916,0,0,0-1.22364-3.22617,2.90444,2.90444,0,0,0-1.04711-1.12807,3.55626,3.55626,0,0,0-1.63453-.30441,2.40784,2.40784,0,0,1,1.865-.24867,2.78445,2.78445,0,0,1,1.47974,1.295A5.41831,5.41831,0,0,1,288.7322,338.83589Z"></path>
  <path fill="#c4ce6e" d="M254.64582,413.52859s-1.81612-6.269-6.42625-2.72489a9.2516,9.2516,0,0,0-3.19485,4.9015c-.83142,3.00036-1.5501,8.43753.49776,16.15363,0,0,4.71951-6.52931,8.211-8.83946C257.67109,420.41406,260.21105,414.45906,254.64582,413.52859Z"></path>
  <path fill="#8b9d36" d="M254.64577 413.52859a7.90428 7.90428 0 0 0-1.79053 1.84187 18.04146 18.04146 0 0 0-1.41211 2.14686 47.58909 47.58909 0 0 0-2.27221 4.62317c-.67652 1.58389-1.28906 3.1964-1.89331 4.81726l-1.75513 4.90108c.1499-.858.34814-1.705.52148-2.56017.20044-.84744.44971-1.68212.67261-2.52553a44.81707 44.81707 0 0 1 1.74927-4.9356 29.50439 29.50439 0 0 1 2.47925-4.63249A10.51019 10.51019 0 0 1 254.64577 413.52859ZM261.29964 326.44424s.1538-6.53506-5.29911-4.60128a9.09235 9.09235 0 0 0-4.51327 3.668c-1.69249 2.59647-4.00945 7.54785-4.3772 15.53281 0 0 6.4535-4.74132 10.47095-5.84983C262.11177 333.9438 266.318 329.06837 261.29964 326.44424Z"></path>
  <path fill="#5e7c24" d="M261.29958,326.44423a7.7686,7.7686,0,0,0-2.25854,1.19336,17.71415,17.71415,0,0,0-1.99024,1.60288,46.68983,46.68983,0,0,0-3.55225,3.6918c-1.11914,1.29674-2.18627,2.64012-3.2478,3.99438l-3.14062,4.11711c.3999-.76862.84277-1.512,1.26416-2.2709.44458-.74337.93261-1.45953,1.398-2.19209a44.1603,44.1603,0,0,1,3.14672-4.15128,29.0632,29.0632,0,0,1,3.75293-3.63851A10.34081,10.34081,0,0,1,261.29958,326.44423Z"></path>
  <path fill="#8b9d36" d="M302.45524,413.52859s1.81611-6.269,6.42624-2.72489a9.25155,9.25155,0,0,1,3.19485,4.9015c.83142,3.00036,1.5501,8.43753-.49776,16.15363,0,0-4.71951-6.52931-8.211-8.83946C299.43,420.41406,296.89,414.45906,302.45524,413.52859Z"></path>
  <path fill="#5e7c24" d="M302.45534,413.52859A10.51022,10.51022,0,0,1,306.156,417.205a29.484,29.484,0,0,1,2.479,4.63249,44.71606,44.71606,0,0,1,1.74927,4.9356c.22314.84341.47241,1.67809.67285,2.52553.17309.85519.37158,1.70214.52148,2.56017l-1.75512-4.90108c-.6045-1.62086-1.2168-3.23337-1.89331-4.81726a47.53388,47.53388,0,0,0-2.27247-4.62317,18.03833,18.03833,0,0,0-1.41186-2.14686A7.90428,7.90428,0,0,0,302.45534,413.52859Z"></path>
  <path fill="#50661a" d="M275.5757,442.25365l-.76758-.04c3.78711-72.94677,14.37208-92.46679,22.58594-95.99707a6.74864,6.74864,0,0,1,6.94922.751l-.498.58447a5.99134,5.99134,0,0,0-6.166-.62207C291.12551,349.76586,279.53762,365.92162,275.5757,442.25365Z"></path>
  <path fill="#50661a" d="M277.36574 442.36156c-6.7959-19.26953 4.09278-92.06982 4.55957-95.15918l.75977.11426c-.11426.75488-11.32813 75.70068-4.59473 94.78906ZM273.00246 442.32641c-.0625-.249-6.30566-24.97022-14.29492-28.5625a4.20312 4.20312 0 0 0-3.88379.105l-.35547-.68067a4.99254 4.99254 0 0 1 4.55469-.12451c8.32617 3.74463 14.4668 28.04443 14.72363 29.07715Z"></path>
  <path fill="#50661a" d="m274.97707 432.10033-.76562-.04492c.05859-1.01318 5.76855-101.39453-7.48731-107.30518-1.47852-.6582-3.21.002-5.15234 1.96387l-.54493-.54c2.19043-2.2124 4.21583-2.92578 6.00977-2.12549C280.773 330.17357 275.22023 427.94115 274.97707 432.10033ZM284.09914 442.32641l-.74414-.18555c.25684-1.03272 6.39746-25.33252 14.72363-29.07715a4.99254 4.99254 0 0 1 4.55469.12451l-.35547.68067a4.20041 4.20041 0 0 0-3.88379-.1045C290.40383 417.35717 284.16164 442.07738 284.09914 442.32641Z"></path>
  <path fill="#50661a" d="M276.16359 441.51146c-5.14843-28.22412-12.78027-38.43359-18.27636-42.02783-3.52832-2.3081-6.05078-1.74463-6.07813-1.73926l-.18164-.74609c.11621-.02734 2.82813-.6543 6.625 1.80664 5.63965 3.6543 13.457 14.00537 18.667 42.56885ZM278.90383 441.53539c-17.07617-68.5708-21.93067-73.438-22.12891-73.61133l.44922-.62158c.19531.13037 4.97852 3.99268 22.42383 74.04736ZM282.37355 442.25365l-.76757-.04c1.60351-30.77539 18.89648-58.47656 19.07129-58.75293l.64843.41016C301.15285 384.14525 283.96535 411.68334 282.37355 442.25365Z"></path>
  <path fill="#d6694b" d="M254.73705,434.10569V440.477a2.20813,2.20813,0,0,0,2.18607,2.22954h43.799a2.20813,2.20813,0,0,0,2.18608-2.22954v-5.87156a2.20872,2.20872,0,0,0-2.16162-2.2294l-43.799-.49975A2.20753,2.20753,0,0,0,254.73705,434.10569Z"></path>
  <polygon fill="#e19974" points="256.828 442.707 258.385 475.591 298.23 475.591 300.818 442.707 256.828 442.707"></polygon>
  <path fill="#5e7c24" d="M293.83046,381.79178c.06088-3.00066,6.26487,2.44259,6.26487,2.44259-3.69522-16.58571-15.50217-9.66928-15.50217-9.66928-10.79609-12.18893-17.80564-3.49683-17.80564-3.49683,4.87313-1.66721,6.46236,1.43435,6.46236,1.43435a12.97544,12.97544,0,0,0-8.40129,1.67478c-5.67906,4.71444-3.81624,15.98865-3.81624,15.98865,1.87026-2.6673,7.72417-3.95457,10.68918-4.156,1.86283-.12418,1.53578.79091,1.03425,1.48869a3.76709,3.76709,0,0,1-1.26961,1.08547,74.49187,74.49187,0,0,0-8.55312,5.21837c-2.78274,2.18665,4.0141,12.72428,4.0141,12.72428,1.44445-2.14785,5.52723-3.57464,5.52723-3.57464,4.402-.37993-4.30329,6.06361-4.30329,6.06361l5.04056,7.92447,5.36018-1.9928-1.04167-3.18675c.20529-3.086,1.878,1.132,2.661,1.79877.78292.67468,7.62542-5.46636,7.62542-5.46636s-3.96844-15.12012-.87425-13.42982c3.102,1.68254,4.86571,8.53706,5.58812,8.88595.53977.2637,3.543-4.89276,5.03312-7.52125a8.22158,8.22158,0,0,0,.80594-6.25746A24.44378,24.44378,0,0,0,293.83046,381.79178Zm-17.31153-.124c-1.9768,1.636-5.01791.72882-5.50422-.48841-.49448-1.20965,1.01865-3.6212,3.28427-5.15646,2.1212-1.44231,4.56166-.36441,5.04834.853C279.84143,378.08539,278.71623,379.838,276.51893,381.66779Z"></path>
  <path fill="#50661a" d="M284.59133,374.56505a36.97945,36.97945,0,0,1,.76977,5.488,25.73433,25.73433,0,0,1-.4934,5.54613,42.8327,42.8327,0,0,1-1.46412,5.36278c-.57031,1.75254-1.16088,3.50778-1.821,5.23585a83.90459,83.90459,0,0,1-4.7063,10.03182,29.15426,29.15426,0,0,0-2.14941,5.03725,37.50573,37.50573,0,0,0-1.35254,5.33987,30.21705,30.21705,0,0,1,2.97534-10.64454c.80591-1.66487,1.66406-3.28178,2.41089-4.9577.75488-1.67076,1.45337-3.3694,2.10669-5.08341.67627-1.70549,1.28271-3.43572,1.87451-5.1791.596-1.73867,1.13159-3.48808,1.55054-5.26375a25.65669,25.65669,0,0,0,.69458-5.42A44.23309,44.23309,0,0,0,284.59133,374.56505Z"></path>
  <path fill="#50661a" d="M285.11159 381.93366a14.00924 14.00924 0 0 1 2.89063 2.60419 23.86031 23.86031 0 0 1 2.30517 3.14561 27.491 27.491 0 0 1 1.7981 3.45262c.259.59449.48413 1.20322.72363 1.80351.19556.61918.404 1.23139.57129 1.85711l-1.825-3.40019c-.63037-1.11365-1.24243-2.23232-1.92139-3.31025-.66382-1.08658-1.3728-2.143-2.11157-3.18172-.37183-.5173-.75659-1.02723-1.16724-1.51617A18.26945 18.26945 0 0 0 285.11159 381.93366ZM279.74685 399.656a8.48649 8.48649 0 0 1 1.88086 2.73387 7.30454 7.30454 0 0 1 .49511 1.61266 2.34921 2.34921 0 0 1-.23462 1.68647 3.931 3.931 0 0 0-.34448-1.53267c-.19849-.48668-.40283-.97262-.6189-1.45886A25.14 25.14 0 0 1 279.74685 399.656ZM282.73879 391.84645c-1.30933.48778-2.61035.96607-3.89819 1.47033-1.28394.5137-2.56714 1.0201-3.813 1.60253a35.43065 35.43065 0 0 0-3.65869 1.87961 16.56424 16.56424 0 0 0-3.27881 2.49425 10.89909 10.89909 0 0 1 2.9541-2.98757 20.74289 20.74289 0 0 1 3.666-2.08492 29.29059 29.29059 0 0 1 3.93921-1.45992A27.02221 27.02221 0 0 1 282.73879 391.84645Z"></path>
  <path fill="#c4ce6e" d="M321.36087,363.04306s8.8999-13.29473,20.03068,2.40508c0,0-8.71734-2.63-7.43911.57562a25.90433,25.90433,0,0,1,8.15139,6.158,9.79992,9.79992,0,0,1,1.97237,7.04442c-.33853,3.53317-1.09106,10.51224-1.75289,10.50759-.88611-.00623-5.73-6.37644-9.62478-6.59409s6.86472,13.7861,6.86472,13.7861-4.202,9.9599-5.29429,9.64778-4.67209-3.93094-3.50353-.56247l2.47358,2.85121-4.54645,4.81371-8.64237-5.84511s5.96031-11.22237,1.66762-8.595c0,0-3.50945,3.57152-4.01721,6.58064,0,0-11.58268-7.7273-9.739-11.45325a91.54951,91.54951,0,0,1,6.32407-9.81131,4.69712,4.69712,0,0,0,.88253-2.12853c.11552-.89795-.11247-1.71365-1.7583-.75125-2.92592,1.71094-8.283,6.03057-8.99327,9.80254,0,0-6.91574-10.99894-3.24909-18.86323a15.19359,15.19359,0,0,1,7.7747-6.02145s-2.99537-2.48195-7.19847,1.75066C301.74375,368.34068,304.98362,355.58967,321.36087,363.04306Z"></path>
  <path fill="#8b9d36" d="M321.36086,363.04306a96.2727,96.2727,0,0,1,3.84936,12.28385c1.04419,4.16787,1.85206,8.39427,2.48487,12.64513a126.69533,126.69533,0,0,1,1.19336,12.83187,110.27879,110.27879,0,0,1-.1958,12.8721c-.03394-4.29059-.05542-8.57213-.3938-12.84-.12769-2.13539-.3396-4.26367-.53711-6.39286-.25733-2.12243-.47876-4.25056-.82544-6.36078-.56641-4.23959-1.38159-8.44215-2.29834-12.62084C323.71584,371.28341,322.65236,367.13285,321.36086,363.04306Z"></path>
  <path fill="#8b9d36" d="M323.58229 370.11984A20.462 20.462 0 0 0 321.659 372.974a31.05038 31.05038 0 0 0-1.51 3.06095c-.44825 1.0467-.83863 2.11886-1.2002 3.20639-.35767 1.08925-.67773 2.19437-1.01807 3.31261.01978-.58244.07813-1.16266.13135-1.746.09668-.57435.16651-1.15847.30933-1.726a19.78027 19.78027 0 0 1 1.07226-3.34885 17.40966 17.40966 0 0 1 1.71241-3.08034A10.49978 10.49978 0 0 1 323.58229 370.11984ZM327.28542 387.72865a8.79442 8.79442 0 0 1 5.665 4.14925 7.20883 7.20883 0 0 1 .855 2.23088c-.45068-.65989-.86816-1.30266-1.35083-1.89468a15.11669 15.11669 0 0 0-1.52539-1.68034 17.81455 17.81455 0 0 0-1.72681-1.48318C328.58937 388.5937 327.96193 388.14356 327.28542 387.72865Z"></path>
  <polygon fill="#6c7fd8" points="320.671 241.607 317.228 255.375 321.847 255.375 324.01 248.471 320.671 241.607"></polygon>
  <path fill="#f9977a" d="M410.426 452.09826s4.874 18.09094 3.5517 18.75208-36.8217 5.18711-30.82565 1.65285l10.00049-5.20859a10.26019 10.26019 0 0 0 5.50532-9.66069l-.32006-5.8472ZM356.70843 452.09826s4.874 18.09094 3.5517 18.75208-36.8217 5.18711-30.82565 1.65285L339.435 467.2946a10.26019 10.26019 0 0 0 5.50532-9.66069l-.32006-5.8472Z"></path>
  <path fill="#8b9d36" d="M396.25543,272.34311s7.24034,24.15076,5.51816,98.69428l11.73705,76.57728a4.59125,4.59125,0,0,1-4.07211,5.0093l-11.25479,1.22683a4.59126,4.59126,0,0,1-4.881-3.19868l-22.33591-71.70021L361.09412,450.851a4.59125,4.59125,0,0,1-4.54857,3.96667H345.014a4.58819,4.58819,0,0,1-4.58609-4.37294c-1.14252-24.4-5.84122-144.05541,9.713-184.05191Z"></path>
  <path fill="#5e7c24" d="M370.96682 378.95191q-1.64868-11.05371-3.13965-22.12979l-2.95581-22.15554q-1.38684-11.08972-2.62964-22.19749-.62109-5.55381-1.15308-11.11756a92.58467 92.58467 0 0 1-.53467-11.15765 92.50009 92.50009 0 0 0 .72828 11.139q.572 5.55728 1.22192 11.10635 1.30993 11.097 2.7605 22.17742l2.82348 22.17065ZM342.44533 360.60528a19.045 19.045 0 0 1 2.41968 5.15624 17.17224 17.17224 0 0 1 .71826 5.67562 16.31818 16.31818 0 0 1-.42505 2.84656 13.81558 13.81558 0 0 1-1.04052 2.67829 10.97 10.97 0 0 1-.69678 1.25364l-.8335 1.16645a7.913 7.913 0 0 1-.94873 1.06675l-.9939 1.02067a18.07941 18.07941 0 0 0 3.19776-4.64061 15.883 15.883 0 0 0 .96509-2.63413 16.086 16.086 0 0 0 .37915-2.77838 17.717 17.717 0 0 0-.61475-5.57193 21.14931 21.14931 0 0 0-.90137-2.67953A17.8085 17.8085 0 0 0 342.44533 360.60528ZM397.36672 310.0664a37.154 37.154 0 0 1-.02661 6.19084 34.25926 34.25926 0 0 1-1.06568 6.11462 20.55167 20.55167 0 0 1-2.49707 5.68794 13.13157 13.13157 0 0 1-1.99414 2.39068 11.76014 11.76014 0 0 1-2.54468 1.76411 12.60114 12.60114 0 0 0 4.28125-4.3195 21.28456 21.28456 0 0 0 2.37232-5.63028 37.08766 37.08766 0 0 0 1.14526-6.03768A50.64579 50.64579 0 0 0 397.36672 310.0664ZM399.71511 323.2892a15.751 15.751 0 0 1-.93091 5.96651 19.82172 19.82172 0 0 1-2.87915 5.35 22.04506 22.04506 0 0 1-2.05054 2.2527c-.37378.34331-.72363.71439-1.11694 1.03425l-1.20581.9285a10.34317 10.34317 0 0 1-1.25611.85286l-1.29077.79844c-.89355.473-1.81811.88534-2.72143 1.32869.87573-.50209 1.76758-.97072 2.62231-1.4961l1.25025-.83968a10.13224 10.13224 0 0 0 1.21118-.888 23.67785 23.67785 0 0 0 4.24292-4.21322 20.54807 20.54807 0 0 0 2.908-5.212A17.68337 17.68337 0 0 0 399.71511 323.2892ZM383.845 283.6272q1.35242 4.42061 2.5896 8.87252l-.0918-.112q3.81959 1.86486 7.60132 3.8049 3.787 1.93011 7.52564 3.95669-3.86427-1.77513-7.68067-3.64638-3.817-1.87011-7.60473-3.79817l-.07178-.03675-.02027-.07553Q384.90248 288.12776 383.845 283.6272Z"></path>
  <path fill="#5e7c24" d="M347.24831,276.61358q3.07434,1.30173,6.2627,2.29983c2.1101.7015,4.24853,1.31254,6.40161,1.86487a88.30247,88.30247,0,0,0,13.11865,2.27666,67.58226,67.58226,0,0,0,13.29834.10792l3.30859-.39125c1.09888-.15732,2.17823-.43044,3.26953-.63672l1.63648-.32009c.53955-.13017,1.06738-.30717,1.602-.45855l3.20142-.94558a53.29329,53.29329,0,0,1-12.992,3.01516,67.70782,67.70782,0,0,1-13.363.02381,88.63243,88.63243,0,0,1-13.146-2.41632A77.40194,77.40194,0,0,1,347.24831,276.61358Z"></path>
  <path fill="#5e7c24" d="M353.80251 280.75174a5.65089 5.65089 0 0 1-.33789-2.232 8.79175 8.79175 0 0 1 .39673-2.24376 10.241 10.241 0 0 1 .98681-2.04863c.19556-.324.4397-.6156.65747-.92173.249-.28376.50147-.56313.76392-.83023-.40552.63385-.81763 1.24963-1.15747 1.90593a12.30968 12.30968 0 0 0-.87354 2.0188 10.14 10.14 0 0 0-.47021 2.14033A8.22853 8.22853 0 0 0 353.80251 280.75174ZM389.23854 284.96942q.02492-1.46892-.0957-2.92013a20.28926 20.28926 0 0 0-.41821-2.86922 14.25991 14.25991 0 0 0-.88257-2.74493 10.49931 10.49931 0 0 0-1.57861-2.42618 7.81161 7.81161 0 0 1 1.853 2.29125 12.594 12.594 0 0 1 .99585 2.79487A15.99079 15.99079 0 0 1 389.23854 284.96942Z"></path>
  <path fill="#6c7fd8" d="M396.67791,193.943s-12.39637,12.39637-20.66062,10.10075-1.8365-8.72338-1.8365-8.72338l-10.8369.85555a11.85509,11.85509,0,0,0-9.6252,6.42691l-8.00364,15.67379,3.45288,50.79785s5.62465,9.08433,47.405,4.49308l-1.04284-3.63939,6.28195-.67912a13.92414,13.92414,0,0,0,12.30314-11.9633c1.2109-8.88943,2.72-21.72458,3.04183-32.45235A28.52711,28.52711,0,0,0,406.32987,201.551Z"></path>
  <path fill="#065082" d="M363.13918,274.0393c-4.6709-35.05762,11.46094-70.084,11.624-70.4336l.416.19434c-.16309.34863-16.23731,35.25732-11.585,70.17871Z"></path>
  <path fill="#f9977a" d="M376.01729,204.0437c-8.26425-2.29563-1.8365-8.72338-1.8365-8.72338l.04506-.48277a.60088.60088,0,0,0-.75149-.63841c-1.64181.43553-5.07281.97264-4.37415-2.40486a2.90684,2.90684,0,0,0-1.23229-2.29868.82086.82086,0,0,1-.10268-1.25835,8.336,8.336,0,0,0,2.07053-2.80753.57909.57909,0,0,0-.69762-.74611l-3.1675.83957a.467.467,0,0,1-.58671-.45145v-.42886a.49815.49815,0,0,0-.50674-.49808l-1.12707.01945a1.18462,1.18462,0,0,1-1.1665-1.4842l1.1533-4.40944a3.27174,3.27174,0,0,0-.2452-2.29915c-1.05124-2.09134-2.68768-1.17186-2.27126-6.33483,0,0,4.42687-6.977,17.08823-1.34039,0,0-.58348-.41321,5.58713,3.33326,0,0,2.39667,1.37738,2.28649,7.32762,0,0,9.14921,13.92459,10.49559,14.98584C396.67791,193.943,384.28154,206.33932,376.01729,204.0437Z"></path>
  <path fill="#ffba55" d="M365.72979 248.47106a1.18157 1.18157 0 0 1-1.18157 1.18157c-.65256 0-1.88011-.08908-1.88011-.74165s1.22755-1.62149 1.88011-1.62149A1.18157 1.18157 0 0 1 365.72979 248.47106ZM355.028 241.607a1.522 1.522 0 0 1-1.522 1.522c-.84058 0-2.11762-.10982-2.11762-.95039A2.70941 2.70941 0 0 1 353.506 240.085 1.522 1.522 0 0 1 355.028 241.607Z"></path>
  <path fill="#dd765e" d="M385.7691,180.886s2.16694,21.94306-11.94644,14.82791h0c.21443-.24912.35813-.39361.35813-.39361l.04506-.48277a.60088.60088,0,0,0-.75146-.63842c-.10587.02808-.21969.05655-.33885.08435l-.09337-.19436C385.52115,192.94052,385.7691,180.886,385.7691,180.886Z"></path>
  <path d="M370.23205,175.11883a.45916.45916,0,0,0,.16993-.88574,17.54236,17.54236,0,0,0-7.40473-1.02205.45917.45917,0,0,0-.4116.50217.45459.45459,0,0,0,.50217.4116,16.9683,16.9683,0,0,1,6.975.96174A.459.459,0,0,0,370.23205,175.11883Z"></path>
  <path fill="#350500" d="M368.04226,176.47783c-.64234-.03295-1.22974-.1264-1.8274-.11654a6.09542,6.09542,0,0,0-.88965.0146c-.30126.01161-.59448.0686-.91918.10194a2.76474,2.76474,0,0,1,1.81933-.575A3.33912,3.33912,0,0,1,368.04226,176.47783Z"></path>
  <ellipse cx="365.832" cy="177.141" fill="#050505" rx=".579" ry="1.01"></ellipse>
  <path fill="#dd765e" d="M384.44539,174.57445a6.05774,6.05774,0,0,0-2.123-.18383,2.22178,2.22178,0,0,0-.92588.36177,3.951,3.951,0,0,0-.7788.74541,1.9588,1.9588,0,0,1,1.63316-1.56042,2.90026,2.90026,0,0,1,2.19452.63707Z"></path>
  <path fill="#dd765e" d="M384.44539,178.1353a3.04349,3.04349,0,0,1-1.04827-.62065,3.71077,3.71077,0,0,1-.779-.96,4.49517,4.49517,0,0,1-.25982-.56791,3.48341,3.48341,0,0,1-.13989-.60753,2.865,2.865,0,0,1,.07824-1.2181,9.43444,9.43444,0,0,0,.271,1.13907,4.95164,4.95164,0,0,0,.45038,1.02956A8.16873,8.16873,0,0,0,384.44539,178.1353Z"></path>
  <path d="M390.05059,184.09441c2.79781-1.01719,3.08388-5.80837,3.362-10.46632a22.38284,22.38284,0,0,0-1.272-10.19486c-.95571-2.43436-1.88125-4.79186-4.38769-6.64659-3.48239-2.5769-7.70087-2.46974-11.06545-2.38428-3.76612.09566-6.77652.17213-9.35905,2.08592-2.73732,2.0285-3.55614,1.8603-5.07827,4.51991-.52469.91679-3.03961,1.52335-4.32019,2.617-.25532.218-1.7363,1.48283-1.46382,2.3708.11749.38289,1.324,3.52115,7.46283,3.62253,3.54367.05853,4.59487-.52006,6.35.01875,3.86585,1.18674,5.7719-.36153,6.60145-.3118.99848.05987.18382,1.48239-.09668,3.71206a22.93659,22.93659,0,0,0-.03943,5.051c.22437,2.63768.70726,3.1876.47306,5.12311a5.97462,5.97462,0,0,1-1.05117,3.223c-.9845,1.28246-2.427,1.77618-4.40586,2.42666-3.43593,1.1294-3.82574.12968-4.14014.98609-.31459.85689.68816,3.53313,1.63917,4.09556,2.62711,1.55365,5.274.03588,7.1899-.44076,2.5873-.64368,7.91875-3.93715,7.50173-7.17612-.22407-1.7404-2.07859-6.02788-3.21685-8.53985a4.22872,4.22872,0,0,1,.68369-4.64259,1.97779,1.97779,0,0,1,1.0165-.6396,2.68326,2.68326,0,0,1,2.5011,1.03277c.14734.20238.62074.93022-.02628,3.36731C384.22761,179.47124,387.6151,184.97987,390.05059,184.09441Z"></path>
  <path d="M364.975,185.96521a.92143.92143,0,0,0,.23338-.03027l3.73263-.97788a3.52222,3.52222,0,0,0,2.1026-1.54686.91826.91826,0,0,0-1.55762-.97295,1.69259,1.69259,0,0,1-1.01038.74339l-3.73264.97788a.91836.91836,0,0,0,.232,1.80669Z"></path>
  <path fill="#065082" d="M396.21877,222.4087a53.84824,53.84824,0,0,0-1.44409,6c-.37451,2.02139-.68091,4.05468-.8938,6.09921-.21729,2.04366-.37744,4.09442-.44946,6.15062-.09864,2.05582-.09058,4.11446-.09961,6.179-.08326-1.02777-.15772-2.058-.21021-3.08946-.01416-1.03194-.07007-2.06531-.04321-3.09839-.00073-2.06787.16357-4.13133.34643-6.19109.25245-2.0527.5542-4.10141,1.00562-6.12047A36.29616,36.29616,0,0,1,396.21877,222.4087Z"></path>
  <path fill="#065082" d="M401.03957 251.104a10.88433 10.88433 0 0 0-1.9519-1.81605 11.10756 11.10756 0 0 0-2.28345-1.31926 11.90346 11.90346 0 0 0-2.51318-.81125 20.706 20.706 0 0 0-2.65235-.37526c.44776-.04.90112-.07411 1.355-.08038a12.37209 12.37209 0 0 1 1.35987.10805 10.42091 10.42091 0 0 1 2.63623.73947 9.85068 9.85068 0 0 1 2.31713 1.46382A7.31937 7.31937 0 0 1 401.03957 251.104ZM396.678 193.943c-1.60791 2.0365-3.283 4.02393-5.05591 5.9234a62.80823 62.80823 0 0 1-5.62012 5.40844 29.89815 29.89815 0 0 1-3.15551 2.32006 10.81 10.81 0 0 1-3.634 1.55848 3.6284 3.6284 0 0 1-2.03784-.18193 3.16779 3.16779 0 0 1-1.49316-1.40658 9.10872 9.10872 0 0 1-.91626-3.85l.29443.17509a18.76617 18.76617 0 0 1-4.38306 1.44324 5.126 5.126 0 0 1-1.18188.0616 1.545 1.545 0 0 1-1.13721-.51045 1.50306 1.50306 0 0 1-.17676-1.22684 5.0113 5.0113 0 0 1 .39551-1.10725 20.41488 20.41488 0 0 1 2.57935-3.79788c.96508-1.18361 1.98755-2.31594 3.02514-3.432-.99731 1.15233-1.978 2.31979-2.897 3.53285a22.53125 22.53125 0 0 0-2.45 3.8161 4.72465 4.72465 0 0 0-.352 1.04668 1.202 1.202 0 0 0 .13623.96643 1.2233 1.2233 0 0 0 .90356.36093 4.7804 4.7804 0 0 0 1.09424-.08058 19.0565 19.0565 0 0 0 4.26782-1.44718l.27271-.12341.022.29862a8.72741 8.72741 0 0 0 .88477 3.6544 2.7206 2.7206 0 0 0 1.28979 1.209 3.30127 3.30127 0 0 0 1.78565.154 10.41032 10.41032 0 0 0 3.48437-1.47446 29.50942 29.50942 0 0 0 3.126-2.26637 70.00032 70.00032 0 0 0 5.68457-5.28067C393.23488 197.82491 395.00466 195.92655 396.678 193.943Z"></path>
  <circle cx="373.766" cy="214.275" r="1.206" fill="#065082"></circle>
  <circle cx="368.078" cy="231.492" r="1.206" fill="#065082"></circle>
  <polygon fill="#e19974" points="324.6 254.654 351.43 251.841 355.489 203.38 310.578 208.088 324.6 254.654"></polygon>
  <polygon fill="#d6694b" points="312.179 213.404 310.578 208.088 355.489 203.38 355.025 208.912 312.179 213.404"></polygon>
  <rect width="8.059" height="8.059" x="343.315" y="229.52" fill="#d6694b" transform="rotate(129.015 347.344 233.55)"></rect>
  <rect width="8.059" height="8.059" x="331.979" y="230.709" fill="#d6694b" transform="scale(-1)rotate(-50.985 -492.305 704.695)"></rect>
  <rect width="8.059" height="8.059" x="320.774" y="231.883" fill="#d6694b" transform="rotate(129.015 324.804 235.913)"></rect>
  <path fill="#558031" d="M318.39,166.843s1.13363,33.53214,15.68214,39.13841C334.07215,205.98145,337.52973,192.86072,318.39,166.843Z"></path>
  <path fill="#849f4c" d="M364.44792,176.46927s-22.18214,6.26628-30.37577,29.51218C334.07215,205.98145,358.02974,194.93954,364.44792,176.46927Z"></path>
  <path fill="#a6b862" d="M361.00881,220.90812s-13.291-15.98343-26.93666-14.92667C334.07215,205.98145,337.57156,219.60616,361.00881,220.90812Z"></path>
  <path fill="#849f4c" d="M341.2644,169.24143s-14.41507,16.226-7.19225,36.74C334.07215,205.98145,341.92152,195.69517,341.2644,169.24143Z"></path>
  <path fill="#a6b862" d="M334.07215,205.98145s-7.75008-19.91448-36.61387-22.20333C297.45828,183.77812,305.787,201.77722,334.07215,205.98145Z"></path>
  <path fill="#849f4c" d="M292.09693,204.964s20.66807-11.17024,41.97522,1.01745C334.07215,205.98145,308.06623,211.90476,292.09693,204.964Z"></path>
  <path fill="#558031" d="M294.46712 225.67634s8.67885-17.80069 39.605-19.69489ZM378.53036 198.58635s-29.47267-7.54509-44.88219 6.931C333.64817 205.51739 350.46435 212.60746 378.53036 198.58635Z"></path>
  <path fill="#558031" d="M352.073,170.56546s-23.43739,20.5582-18.20458,35.45207C333.86839,206.01753,349.95449,190.09494,352.073,170.56546Z"></path>
  <path fill="#849f4c" d="M313.01209,226.20605s20.49539-5.7507,21.06006-20.2246C334.07215,205.98145,318.903,208.33535,313.01209,226.20605Z"></path>
  <path fill="#f9977a" d="M363.75,241.05913s-10.8401-3.63405-13.26428-8.70279c0,0-1.85059-4.41979-2.51173-4.41979-.62028,0-.85259,1.78118-.151,5.85216a3.22,3.22,0,0,1-2.22919,3.66528,11.1622,11.1622,0,0,1-5.223-.15129s-12.55138-3.96684-5.00851,6.06045a16.38621,16.38621,0,0,0,12.21241,4.13714,26.40575,26.40575,0,0,1,13.836,3.02664Z"></path>
  <path fill="#dd765e" d="M342.51955 240.085a33.50311 33.50311 0 0 1-4.80127-.81346c-.78393-.21395-1.573-.4108-2.34253-.68227a8.00247 8.00247 0 0 1-2.20263-1.05882 14.749 14.749 0 0 0 2.304.72053c.78052.19838 1.56274.39733 2.35034.57512C339.3904 239.23433 340.9673 239.588 342.51955 240.085ZM341.85842 242.37143a22.73527 22.73527 0 0 1-4.36939-.70483 18.32244 18.32244 0 0 1-4.13549-1.5816l2.12792.581c.70875.18457 1.40992.39127 2.123.55684C339.01589 241.61524 340.44216 241.939 341.85842 242.37143ZM341.032 244.63033a16.3013 16.3013 0 0 1-3.34717-.68661c-.53759-.19135-1.07959-.37536-1.60009-.61905a4.65663 4.65663 0 0 1-1.43409-.95324 9.95271 9.95271 0 0 0 1.56519.62523c.53491.17087 1.06567.35494 1.60767.50991C338.89113 243.86951 339.97536 244.18093 341.032 244.63033Z"></path>
  <path fill="#6c7fd8" d="M397.3666,251.104l-1.20841-1.40981a9.21726,9.21726,0,0,0-3.82089-2.65822c-16.67259-6.10985-28.02769-6.951-28.02769-6.951h0a19.53928,19.53928,0,0,0-2.4363,14.49394l.13753.61777c20.20149,16.52849,33.51927,14.73139,33.51927,14.73139"></path>
  <path fill="#065082" d="M397.36672,251.104a24.74179,24.74179,0,0,0-2.17554-2.33818,9.09481,9.09481,0,0,0-2.72656-1.61171c-2.00781-.71406-4.03687-1.37493-6.06592-2.02754q-6.0985-1.92715-12.35547-3.28012c-2.085-.43866-4.17969-.83014-6.28564-1.14371-1.05249-.15393-2.10864-.29669-3.16455-.39386l-.19751-.0178-.09766-.00779c.36231-.18968.09692-.04643.176-.086l-.00611.01072-.01245.02143-.02466.04286-.19824.34282c-.13379.22755-.26514.45645-.38183.69346-.25025.465-.46582.94716-.67969,1.42945a19.86053,19.86053,0,0,0-.95923,12.41386l-.07056-.11442,3.6648,2.87817c1.2688.89488,2.52417,1.81111,3.80835,2.6841a72.32576,72.32576,0,0,0,8.06225,4.65692,52.90274,52.90274,0,0,0,8.65967,3.40186c.75122.19441,1.50122.39823,2.25708.57694.76294.14228,1.51831.335,2.29.42838a20.3133,20.3133,0,0,0,4.64673.26427,20.35721,20.35721,0,0,1-4.65991-.17044c-.77686-.07811-1.53736-.25569-2.30664-.38321-.762-.16387-1.5188-.35311-2.27784-.53328a49.47509,49.47509,0,0,1-8.73193-3.33168,72.635,72.635,0,0,1-8.13061-4.62085c-1.29541-.86747-2.562-1.77838-3.84278-2.66858l-3.69971-2.864-.052-.04016-.0188-.07457a20.44577,20.44577,0,0,1-.572-6.41267,19.88417,19.88417,0,0,1,1.54932-6.25464c.22192-.4913.44556-.982.70434-1.45509.12085-.24106.25635-.47388.39454-.70522l.20483-.34842.02563-.04355.0127-.02177.00659-.01088c.08472-.04422-.18091.0836.19165-.1019l.10156.00879.20093.01952c1.06812.10585,2.12647.25651,3.1836.41858,2.113.32965,4.21167.737,6.29931,1.19142q6.25525,1.39851,12.35889,3.373c2.03174.65938,4.03809,1.38657,6.03931,2.13521a9.19064,9.19064,0,0,1,2.72265,1.68347A24.72344,24.72344,0,0,1,397.36672,251.104Z"></path>
  <path fill="#f9977a" d="M327.566,245.45052l-8.38667,7.12431a5.51267,5.51267,0,0,0,3.39594,9.70546c5.57827.219,11.459-.62773,14.01807-4.54041,3.62755-5.54626,2.83523-7.3019,1.86186-7.85354a1.74021,1.74021,0,0,0-1.51347-.06173c-1.97268.80683-9.84959,3.82425-9.95457.60762a1.82063,1.82063,0,0,1,.35868-1.0928c.8931-1.27037,3.50423-5.18566,1.23022-4.46789A2.946,2.946,0,0,0,327.566,245.45052Z"></path>
  <path fill="#dd765e" d="M339.34255 250.87847a14.64594 14.64594 0 0 1-4.19458 2.78738 13.56061 13.56061 0 0 1-2.42554.75817 8.08111 8.08111 0 0 1-2.52734.07814 14.18575 14.18575 0 0 0 2.44775-.42227 17.29953 17.29953 0 0 0 2.32251-.83471 24.19347 24.19347 0 0 0 2.22339-1.09567C337.91677 251.75162 338.63137 251.32528 339.34255 250.87847ZM338.61916 254.09139a8.12928 8.12928 0 0 1-1.59839 1.15268 12.45118 12.45118 0 0 1-1.79785.82291 11.94108 11.94108 0 0 1-1.91724.487 8.82314 8.82314 0 0 1-1.96777.1045c.64063-.15361 1.27441-.27055 1.89429-.44993a17.67548 17.67548 0 0 0 1.8374-.57382A26.55666 26.55666 0 0 0 338.61916 254.09139ZM337.15139 256.85912a5.84832 5.84832 0 0 1-2.19336 1.46681 4.802 4.802 0 0 1-2.62451.28409c.43408-.10228.85156-.17633 1.259-.30313a10.10017 10.10017 0 0 0 1.20093-.409C335.59475 257.615 336.34646 257.22335 337.15139 256.85912Z"></path>
  <path fill="#6c7fd8" d="M321.88273 476.21978c-2.0649-3.30752-.577-7.35526 3.36242-9.197l16.56989-7.74672a1.62581 1.62581 0 0 1 1.76767.34367l5.90478 6.46336a1.6306 1.6306 0 0 0 1.859.30287l6.96469-3.38864c.94491-.45973 2.14349.09945 2.14069.99871l-.03418 11.00671a1.306 1.306 0 0 1-1.4191 1.15252l-37.10954.07463ZM377.39858 476.21978c-2.06491-3.30752-.577-7.35526 3.36241-9.197l16.56989-7.74672a1.62581 1.62581 0 0 1 1.76767.34367l5.90478 6.46336a1.6306 1.6306 0 0 0 1.859.30287l6.9647-3.38864c.9449-.45973 2.14348.09945 2.14069.99871l-.03419 11.00671a1.306 1.306 0 0 1-1.4191 1.15252l-37.10953.07463Z"></path>
  <path fill="#8b9d36" d="M454.91652,354.97143c-.98535-1.64112-24.18652-40.30664-27.93847-50.31446l.93554-.35058c3.72071,9.92187,27.61914,49.749,27.86036,50.15039Z"></path>
  <path fill="#8b9d36" d="M435.54526 283.42171a42.96011 42.96011 0 0 0-2.31006 7.74274 72.38517 72.38517 0 0 0-1.18066 7.85022 70.94385 70.94385 0 0 0-.3252 7.93152 42.37966 42.37966 0 0 0 .81543 8.04 42.41853 42.41853 0 0 0 2.31543-7.74231 71.05957 71.05957 0 0 0 1.17529-7.85071 72.38364 72.38364 0 0 0 .31983-7.932A42.92219 42.92219 0 0 0 435.54526 283.42171ZM444.36557 295.48171A40.97737 40.97737 0 0 0 441.368 302.782a68.81961 68.81961 0 0 0-1.8833 7.51429 67.76828 67.76828 0 0 0-1.03955 7.67633 40.52933 40.52933 0 0 0 .08594 7.89239 40.49106 40.49106 0 0 0 3.00293-7.29925 67.77065 67.77065 0 0 0 1.87793-7.51538 68.93312 68.93312 0 0 0 1.03418-7.67731A41.01564 41.01564 0 0 0 444.36557 295.48171ZM449.22543 309.52169a34.76867 34.76867 0 0 0-2.55175 6.78558 57.75915 57.75915 0 0 0-1.42774 6.946 56.79105 56.79105 0 0 0-.57763 7.06732 34.32916 34.32916 0 0 0 .55664 7.22925 34.332 34.332 0 0 0 2.55712-6.78485 56.69721 56.69721 0 0 0 1.42237-6.94672 57.76044 57.76044 0 0 0 .57226-7.06812A34.735 34.735 0 0 0 449.22543 309.52169ZM455.34555 323.53573a26.61744 26.61744 0 0 0-2.5874 5.77459 43.3764 43.3764 0 0 0-1.46875 5.96772 42.57173 42.57173 0 0 0-.62256 6.11383 26.309 26.309 0 0 0 .50635 6.30877A26.28872 26.28872 0 0 0 453.766 341.927a42.64395 42.64395 0 0 0 1.46387-5.96863 43.44822 43.44822 0 0 0 .61719-6.11474A26.61706 26.61706 0 0 0 455.34555 323.53573ZM460.74545 332.295a23.96426 23.96426 0 0 0-2.73144 5.07032 41.32132 41.32132 0 0 0-1.71729 5.25976 47.21839 47.21839 0 0 0-1.03711 5.39392c-.1123.91553-.21533 1.82593-.28369 2.75391a20.4924 20.4924 0 0 1-.30176 2.81982 5.53378 5.53378 0 0 0 .66407-.41919l.53906-.54016a9.96665 9.96665 0 0 0 .94287-1.17932 18.88949 18.88949 0 0 0 1.44971-2.52307 28.09585 28.09585 0 0 0 1.90234-5.32019 31.491 31.491 0 0 0 .89551-5.53955A20.854 20.854 0 0 0 460.74545 332.295ZM430.30063 310.67336a34.44938 34.44938 0 0 0-6.084-5.27569 56.37992 56.37992 0 0 0-6.72461-4.01 55.38912 55.38912 0 0 0-7.21-3.05194 34.05491 34.05491 0 0 0-7.85644-1.77411 34.04552 34.04552 0 0 0 6.08057 5.28174 55.39529 55.39529 0 0 0 6.728 4.0039 56.35692 56.35692 0 0 0 7.21289 3.0459A34.4458 34.4458 0 0 0 430.30063 310.67336ZM436.2767 321.83559a42.437 42.437 0 0 0-7.5039-4.91229 70.65507 70.65507 0 0 0-8.00293-3.58417 69.39218 69.39218 0 0 0-8.38037-2.5791 41.95341 41.95341 0 0 0-8.88379-1.23834 41.96189 41.96189 0 0 0 7.501 4.91864 69.40249 69.40249 0 0 0 8.00538 3.57782 70.63825 70.63825 0 0 0 8.38281 2.57275A42.43635 42.43635 0 0 0 436.2767 321.83559ZM443.31137 334.24282a36.18922 36.18922 0 0 0-6.76416-4.74268 59.47375 59.47375 0 0 0-7.28027-3.421 58.41711 58.41711 0 0 0-7.67041-2.42077 35.77008 35.77008 0 0 0-8.19092-1.08649 35.7829 35.7829 0 0 0 6.76172 4.749 58.4267 58.4267 0 0 0 7.28271 3.41474 59.48086 59.48086 0 0 0 7.67286 2.41449A36.18756 36.18756 0 0 0 443.31137 334.24282ZM448.87094 343.79269a27.12992 27.12992 0 0 0-5.94092-3.91315 43.327 43.327 0 0 0-6.36474-2.55914 42.55075 42.55075 0 0 0-6.686-1.53455 26.84216 26.84216 0 0 0-7.11377-.16766 26.84044 26.84044 0 0 0 5.939 3.91955 42.54838 42.54838 0 0 0 6.36719 2.55274 43.30791 43.30791 0 0 0 6.6875 1.528A27.14432 27.14432 0 0 0 448.87094 343.79269Z"></path>
  <path fill="#8b9d36" d="M453.25961 352.36166a35.68335 35.68335 0 0 0-6.53027-4.9618 58.56408 58.56408 0 0 0-7.09375-3.65979 57.54421 57.54421 0 0 0-7.52051-2.67456 35.28275 35.28275 0 0 0-8.08935-1.3601 35.26982 35.26982 0 0 0 6.52734 4.968 57.52256 57.52256 0 0 0 7.09668 3.65369 58.55359 58.55359 0 0 0 7.523 2.66821A35.68211 35.68211 0 0 0 453.25961 352.36166ZM428.35874 305.92171a25.11579 25.11579 0 0 0-.19483-8.01983 37.78922 37.78922 0 0 0-2.04346-7.2959 37.16919 37.16919 0 0 0-3.44384-6.74756 24.86487 24.86487 0 0 0-5.311-6.01672 24.85 24.85 0 0 0 .18555 8.02325 37.2027 37.2027 0 0 0 2.05224 7.29248 37.79268 37.79268 0 0 0 3.45313 6.74408A25.11959 25.11959 0 0 0 428.35874 305.92171Z"></path>
  <path fill="#50661a" d="M458.5884,356.60619c-.01074-.6665-1.22559-66.874-13.96289-87.041l.8457-.53418c12.88672,20.40429,14.07324,84.82617,14.11719,87.55859Z"></path>
  <path fill="#50661a" d="M449.1893 278.23339a45.82654 45.82654 0 0 1-.2998-9.01806 81.07 81.07 0 0 1 .97461-8.748c.46679-2.88483 1.10205-5.741 1.84912-8.57336.74609-2.85108 1.68847-5.59418 2.69531-8.516a12.49542 12.49542 0 0 1 .645 2.24206 19.98289 19.98289 0 0 1 .35254 2.27826 38.60685 38.60685 0 0 1 .20312 4.52258 58.06728 58.06728 0 0 1-.814 8.86359 64.41989 64.41989 0 0 1-2.05078 8.63025A40.57768 40.57768 0 0 1 449.1893 278.23339ZM433.349 237.438a32.40156 32.40156 0 0 1 5.64111 7.248 50.93751 50.93751 0 0 1 3.78076 7.94427 50.05508 50.05508 0 0 1 2.373 8.47126 32.05208 32.05208 0 0 1 .49512 9.17407 32.05145 32.05145 0 0 1-5.6499-7.24475 50.00944 50.00944 0 0 1-3.772-7.94763 50.93779 50.93779 0 0 1-2.36425-8.47455A32.38459 32.38459 0 0 1 433.349 237.438ZM422.72885 253.85681a74.64 74.64 0 0 1 7.42871 6.845c2.2959 2.38 4.48682 4.81323 6.63037 7.25964l6.36866 7.30878c1.06836 1.19684 2.14795 2.37616 3.28857 3.49322a15.01616 15.01616 0 0 0 3.88623 2.93573 6.74563 6.74563 0 0 1-2.65967-.06744 12.45194 12.45194 0 0 1-2.5625-.806 24.74713 24.74713 0 0 1-4.564-2.61688 44.79381 44.79381 0 0 1-7.51807-6.95514 59.34937 59.34937 0 0 1-5.97412-8.16138A42.4756 42.4756 0 0 1 422.72885 253.85681ZM422.72885 270.27563a61.482 61.482 0 0 1 9.23487 5.67981 104.62488 104.62488 0 0 1 8.28564 6.73413 102.85462 102.85462 0 0 1 7.56738 7.532 60.78971 60.78971 0 0 1 6.60889 8.59638 60.76608 60.76608 0 0 1-9.23975-5.67481 102.77444 102.77444 0 0 1-8.28125-6.73913 104.61852 104.61852 0 0 1-7.5625-7.537A61.4734 61.4734 0 0 1 422.72885 270.27563ZM423.80893 283.158a60.7939 60.7939 0 0 1 9.33008 5.39563 103.39654 103.39654 0 0 1 8.40918 6.47431 101.61545 101.61545 0 0 1 7.71142 7.29059 60.11051 60.11051 0 0 1 6.78077 8.37945 60.08187 60.08187 0 0 1-9.335-5.39044 101.55 101.55 0 0 1-8.40429-6.47943 103.39033 103.39033 0 0 1-7.707-7.29572A60.76345 60.76345 0 0 1 423.80893 283.158ZM424.52866 296.928a56.52109 56.52109 0 0 1 9.3457 4.53376 95.71353 95.71353 0 0 1 8.49707 5.67047 94.12111 94.12111 0 0 1 7.85449 6.53088 55.85088 55.85088 0 0 1 6.99756 7.67853 55.90279 55.90279 0 0 1-9.34961-4.52832 94.11687 94.11687 0 0 1-8.49316-5.676 95.77735 95.77735 0 0 1-7.8501-6.53631A56.52015 56.52015 0 0 1 424.52866 296.928ZM423.80893 306.918a62.88272 62.88272 0 0 1 9.77832 4.96485 107.11361 107.11361 0 0 1 8.92041 6.09478 105.23079 105.23079 0 0 1 8.27149 6.95 62.14459 62.14459 0 0 1 7.40478 8.09063 62.14862 62.14862 0 0 1-9.78223-4.95941 105.22955 105.22955 0 0 1-8.9165-6.10022 107.09614 107.09614 0 0 1-8.26709-6.95538A62.87836 62.87836 0 0 1 423.80893 306.918ZM421.28891 316.27795a81.97353 81.97353 0 0 1 10.22119 5.67273c3.24512 2.07739 6.38477 4.2735 9.4458 6.56561 3.06983 2.27875 6.05469 4.65448 8.98682 7.10931 2.9624 2.43378 5.76074 4.96863 8.82568 7.479a24.713 24.713 0 0 1-5.72314-1.67017 55.96519 55.96519 0 0 1-5.31445-2.55853 87.22582 87.22582 0 0 1-9.76661-6.35547 100.70439 100.70439 0 0 1-8.87255-7.4873A63.78567 63.78567 0 0 1 421.28891 316.27795ZM418.22885 325.998a84.30436 84.30436 0 0 1 11.09912 5.27448c3.54444 1.97454 6.98438 4.09466 10.34522 6.32635q5.042 3.34653 9.84082 7.03778 2.39868 1.85083 4.75146 3.76819a42.341 42.341 0 0 0 4.82325 3.69324 9.31675 9.31675 0 0 1-3.11817-.53553c-1.00488-.2976-1.98047-.65966-2.94531-1.03625-1.92432-.76392-3.78369-1.6377-5.60742-2.5636a106.41511 106.41511 0 0 1-10.51319-6.202 120.18168 120.18168 0 0 1-9.78564-7.25213A74.38126 74.38126 0 0 1 418.22885 325.998ZM452.29184 289.66882a49.75038 49.75038 0 0 1 1.43457-9.62586 83.59669 83.59669 0 0 1 2.7666-9.13855 82.284 82.284 0 0 1 3.77539-8.76977 49.215 49.215 0 0 1 5.12012-8.27783 49.21934 49.21934 0 0 1-1.42773 9.62817 82.28457 82.28457 0 0 1-2.77344 9.13623 83.71015 83.71015 0 0 1-3.78174 8.76746A49.74989 49.74989 0 0 1 452.29184 289.66882ZM454.42563 300.90863a50.83638 50.83638 0 0 1 2.76269-9.44587 85.60707 85.60707 0 0 1 4.01758-8.78448 84.18068 84.18068 0 0 1 4.96778-8.284 50.294 50.294 0 0 1 6.23486-7.61633 50.29432 50.29432 0 0 1-2.75635 9.449 84.28155 84.28155 0 0 1-4.02392 8.78132 85.709 85.709 0 0 1-4.97364 8.28082A50.90111 50.90111 0 0 1 454.42563 300.90863ZM456.04038 311.77795a55.6833 55.6833 0 0 1 4.04394-9.483 94.36093 94.36093 0 0 1 5.21924-8.68866 92.70641 92.70641 0 0 1 6.10937-8.0874 55.06032 55.06032 0 0 1 7.2959-7.28553 55.05555 55.05555 0 0 1-4.03857 9.48682 92.59363 92.59363 0 0 1-5.2251 8.68481 94.255 94.255 0 0 1-6.11475 8.08368A55.68636 55.68636 0 0 1 456.04038 311.77795ZM457.22348 323.76971a71.80336 71.80336 0 0 1 5.78955-10.1778q3.22779-4.817 6.88819-9.27984 3.64818-4.47282 7.71923-8.60028a70.68809 70.68809 0 0 1 8.82813-7.69385A70.68206 70.68206 0 0 1 480.6644 298.2q-3.22779 4.81677-6.89307 9.27557-3.657 4.46631-7.72461 8.596A71.715 71.715 0 0 1 457.22348 323.76971ZM458.18393 336.20465a72.51168 72.51168 0 0 1 6.856-9.5669q3.731-4.47876 7.856-8.56006 4.11329-4.09268 8.61182-7.79809a71.41593 71.41593 0 0 1 9.62109-6.78162 71.41867 71.41867 0 0 1-6.85107 9.57166q-3.73095 4.47829-7.86035 8.55529-4.12134 4.08526-8.6167 7.79328A72.48541 72.48541 0 0 1 458.18393 336.20465ZM458.7684 344.178a63.195 63.195 0 0 1 7.44873-8.08764 107.66729 107.66729 0 0 1 8.3042-6.95594 105.76472 105.76472 0 0 1 8.95166-6.09948 62.46934 62.46934 0 0 1 9.81592-4.957 62.486 62.486 0 0 1-7.44482 8.093 105.84615 105.84615 0 0 1-8.30811 6.95057 107.74531 107.74531 0 0 1-8.95605 6.09405A63.207 63.207 0 0 1 458.7684 344.178ZM459.08872 350.838a66.89574 66.89574 0 0 1 8.70214-7.23548q4.56445-3.2448 9.40674-6.0039 4.83472-2.77267 9.93994-5.072a66.11172 66.11172 0 0 1 10.65137-3.82874 66.12049 66.12049 0 0 1-8.69922 7.24127q-4.56446 3.24445-9.40967 5.998-4.83984 2.7638-9.94336 5.06616A66.90764 66.90764 0 0 1 459.08872 350.838ZM458.84018 355.158a72.24722 72.24722 0 0 1 10.18115-5.86425c3.49317-1.68641 7.05469-3.189 10.67432-4.53406q5.42871-2.01948 11.04736-3.52735a71.19545 71.19545 0 0 1 11.5459-2.18432 71.19534 71.19534 0 0 1-10.17871 5.8706q-5.24048 2.52906-10.67676 4.52771c-3.62158 1.33985-7.30176 2.52234-11.0498 3.521A72.23646 72.23646 0 0 1 458.84018 355.158Z"></path>
  <path fill="#5e7c24" d="M460.64016,354.97143l-.85743-.51465c.24122-.40137,24.13965-40.22852,27.86133-50.15088l.93555.35156C484.82668,314.66479,461.62551,353.33031,460.64016,354.97143Z"></path>
  <path fill="#5e7c24" d="M480.01168 283.42171a42.96011 42.96011 0 0 1 2.31006 7.74274 72.38517 72.38517 0 0 1 1.18066 7.85022 70.94385 70.94385 0 0 1 .3252 7.93152 42.37966 42.37966 0 0 1-.81543 8.04 42.41853 42.41853 0 0 1-2.31543-7.74231 71.05957 71.05957 0 0 1-1.17529-7.85071 72.38364 72.38364 0 0 1-.31983-7.932A42.92219 42.92219 0 0 1 480.01168 283.42171ZM471.19137 295.48171a40.97737 40.97737 0 0 1 2.99756 7.30029 68.81961 68.81961 0 0 1 1.8833 7.51429 67.76828 67.76828 0 0 1 1.03955 7.67633 40.52933 40.52933 0 0 1-.08594 7.89239 40.49106 40.49106 0 0 1-3.00293-7.29925 67.77065 67.77065 0 0 1-1.87793-7.51538 68.93312 68.93312 0 0 1-1.03418-7.67731A41.01564 41.01564 0 0 1 471.19137 295.48171ZM466.33151 309.52169a34.76867 34.76867 0 0 1 2.55175 6.78558 57.75915 57.75915 0 0 1 1.42774 6.946 56.79105 56.79105 0 0 1 .57763 7.06732 34.32916 34.32916 0 0 1-.55664 7.22925 34.332 34.332 0 0 1-2.55713-6.78485 56.69905 56.69905 0 0 1-1.42236-6.94672 57.76044 57.76044 0 0 1-.57226-7.06812A34.735 34.735 0 0 1 466.33151 309.52169ZM460.21139 323.53573a26.61744 26.61744 0 0 1 2.5874 5.77459 43.3764 43.3764 0 0 1 1.46875 5.96772 42.57315 42.57315 0 0 1 .62256 6.11383 26.309 26.309 0 0 1-.50635 6.30877A26.28872 26.28872 0 0 1 461.791 341.927a42.64395 42.64395 0 0 1-1.46387-5.96863 43.44822 43.44822 0 0 1-.61719-6.11474A26.61706 26.61706 0 0 1 460.21139 323.53573ZM454.81149 332.295a23.96426 23.96426 0 0 1 2.73144 5.07032 41.32132 41.32132 0 0 1 1.71729 5.25976 47.21839 47.21839 0 0 1 1.03711 5.39392c.1123.91553.21533 1.82593.28369 2.75391a20.49391 20.49391 0 0 0 .30175 2.81982 5.53449 5.53449 0 0 1-.66406-.41919l-.53906-.54016a9.96665 9.96665 0 0 1-.94287-1.17932 18.88949 18.88949 0 0 1-1.44971-2.52307 28.09585 28.09585 0 0 1-1.90234-5.32019 31.491 31.491 0 0 1-.89551-5.53955A20.854 20.854 0 0 1 454.81149 332.295ZM485.25631 310.67336a34.44938 34.44938 0 0 1 6.084-5.27569 56.37912 56.37912 0 0 1 6.72461-4.01 55.38957 55.38957 0 0 1 7.21-3.05194 34.05512 34.05512 0 0 1 7.85645-1.77411 34.04552 34.04552 0 0 1-6.08057 5.28174 55.39529 55.39529 0 0 1-6.728 4.0039 56.35692 56.35692 0 0 1-7.21289 3.0459A34.4458 34.4458 0 0 1 485.25631 310.67336ZM479.28024 321.83559a42.437 42.437 0 0 1 7.5039-4.91229 70.65507 70.65507 0 0 1 8.00293-3.58417 69.39218 69.39218 0 0 1 8.38037-2.5791 41.95341 41.95341 0 0 1 8.88379-1.23834 41.96189 41.96189 0 0 1-7.501 4.91864 69.40249 69.40249 0 0 1-8.00538 3.57782 70.63825 70.63825 0 0 1-8.38281 2.57275A42.43635 42.43635 0 0 1 479.28024 321.83559ZM472.24557 334.24282a36.18922 36.18922 0 0 1 6.76416-4.74268 59.47306 59.47306 0 0 1 7.28027-3.421 58.41711 58.41711 0 0 1 7.67041-2.42077 35.77008 35.77008 0 0 1 8.19092-1.08649 35.7829 35.7829 0 0 1-6.76172 4.749 58.4267 58.4267 0 0 1-7.28271 3.41474 59.48086 59.48086 0 0 1-7.67286 2.41449A36.18756 36.18756 0 0 1 472.24557 334.24282ZM466.686 343.79269a27.12992 27.12992 0 0 1 5.94092-3.91315 43.327 43.327 0 0 1 6.36474-2.55914 42.55075 42.55075 0 0 1 6.686-1.53455 26.84216 26.84216 0 0 1 7.11377-.16766 26.84044 26.84044 0 0 1-5.939 3.91955 42.54838 42.54838 0 0 1-6.36719 2.55274 43.30791 43.30791 0 0 1-6.6875 1.528A27.14432 27.14432 0 0 1 466.686 343.79269Z"></path>
  <path fill="#5e7c24" d="M462.29733 352.36166a35.68335 35.68335 0 0 1 6.53027-4.9618 58.56408 58.56408 0 0 1 7.09375-3.65979 57.54421 57.54421 0 0 1 7.52051-2.67456 35.28266 35.28266 0 0 1 8.08935-1.3601 35.26982 35.26982 0 0 1-6.52734 4.968 57.52256 57.52256 0 0 1-7.09668 3.65369 58.55359 58.55359 0 0 1-7.523 2.66821A35.68211 35.68211 0 0 1 462.29733 352.36166ZM487.1982 305.92171a25.11579 25.11579 0 0 1 .19483-8.01983 37.78922 37.78922 0 0 1 2.04346-7.2959 37.16919 37.16919 0 0 1 3.44384-6.74756 24.86487 24.86487 0 0 1 5.311-6.01672 24.85 24.85 0 0 1-.18555 8.02325 37.2027 37.2027 0 0 1-2.05224 7.29248 37.79268 37.79268 0 0 1-3.45313 6.74408A25.11959 25.11959 0 0 1 487.1982 305.92171Z"></path>
  <path fill="#e19974" d="M466.25915,383.15077h-18.0714L442.374,352.307a1.22593,1.22593,0,0,1,1.19629-1.45892h27.30633a1.22593,1.22593,0,0,1,1.19629,1.45892Z"></path>
  <path fill="#d6694b" d="M471.65289,354.53558l.42009-2.2286a1.22593,1.22593,0,0,0-1.19629-1.45892H443.57027A1.22592,1.22592,0,0,0,442.374,352.307l.42008,2.2286Z"></path>
  <polygon fill="#d6694b" points="449.632 374.416 445.815 370.562 449.632 366.709 453.45 370.562 449.632 374.416"></polygon>
  <polygon fill="#d6694b" points="457.267 374.416 453.45 370.562 457.267 366.709 461.085 370.562 457.267 374.416"></polygon>
  <polygon fill="#d6694b" points="464.814 374.416 460.997 370.562 464.814 366.709 468.632 370.562 464.814 374.416"></polygon>
  <path fill="#8b9d36" d="M578.92623,449.93335c-.37387-.73686-37.37865-74.07278-35.08358-103.57322l-1.23651-.09524c-2.32214,29.84622,33.68,101.20736,35.214,104.23037Z"></path>
  <path fill="#8b9d36" d="M543.26182 347.97656a14.51143 14.51143 0 0 0 1.56682-5.37628 19.3648 19.3648 0 0 0-.16873-5.087 19.02869 19.02869 0 0 0-1.483-4.86763l-.02286-.04821a2.52865 2.52865 0 0 0-4.78114.79728l-.006.053a19.03075 19.03075 0 0 0 .17693 5.08564 19.36227 19.36227 0 0 0 1.49123 4.86629A14.511 14.511 0 0 0 543.26182 347.97656ZM545.794 366.89634a9.88462 9.88462 0 0 0 5.25037-2.36559 13.001 13.001 0 0 0 3.38466-4.44829 11.869 11.869 0 0 0 1.09824-5.636l-.00358-.06448a2.50346 2.50346 0 0 0-4.69679-.96835q-.05075.09249-.102.18458c-.72447 1.329-1.31337 2.58527-1.93206 3.89928a44.97734 44.97734 0 0 0-1.68982 4.18955A29.46466 29.46466 0 0 0 545.794 366.89634ZM543.53724 355.00016a9.88453 9.88453 0 0 0 5.25037-2.36558 13.00114 13.00114 0 0 0 3.38467-4.4483 11.86907 11.86907 0 0 0 1.09823-5.636l-.00358-.06449a2.50346 2.50346 0 0 0-4.69679-.96835q-.05075.09249-.10195.18458c-.72447 1.329-1.31337 2.58527-1.93206 3.89928a44.97734 44.97734 0 0 0-1.68982 4.18955A29.46466 29.46466 0 0 0 543.53724 355.00016ZM543.88381 358.26526a15.34022 15.34022 0 0 0-1.79954-5.49047 20.85564 20.85564 0 0 0-3.08621-4.28984 20.485 20.485 0 0 0-4.0601-3.38109l-.09786-.06015a2.50567 2.50567 0 0 0-3.52133 3.285l.05348.1023a20.48361 20.48361 0 0 0 3.09251 4.284 20.88145 20.88145 0 0 0 4.06591 3.37558A15.35116 15.35116 0 0 0 543.88381 358.26526ZM550.491 382.96275a15.371 15.371 0 0 0 4.25514-3.91765 20.91885 20.91885 0 0 0 2.629-4.59144 20.54885 20.54885 0 0 0 1.39875-5.10171q.01258-.09876.02443-.19784a2.48268 2.48268 0 0 0-4.4065-1.82731q-.06182.07845-.12288.15723a20.54865 20.54865 0 0 0-2.62117 4.59459 20.91968 20.91968 0 0 0-1.39147 5.10513A15.36158 15.36158 0 0 0 550.491 382.96275ZM555.1813 397.21728a17.02753 17.02753 0 0 0 4.29961-4.36019 23.92079 23.92079 0 0 0 2.65932-4.99724 23.49209 23.49209 0 0 0 1.41734-5.47914q.01008-.08319.01972-.16658a2.48211 2.48211 0 0 0-4.46839-1.73478q-.04917.06806-.09788.1363a23.50868 23.50868 0 0 0-2.651 5 23.92736 23.92736 0 0 0-1.40955 5.48221A17.0178 17.0178 0 0 0 555.1813 397.21728ZM560.42744 410.23308a19.46676 19.46676 0 0 0 4.82492-4.49 28.29374 28.29374 0 0 0 3.23466-5.245 27.79522 27.79522 0 0 0 2.03262-5.81734l.0269-.12494a2.4815 2.4815 0 0 0-4.35194-2.06825l-.07982.09967a27.81005 27.81005 0 0 0-3.22777 5.249 28.29873 28.29873 0 0 0-2.02465 5.82076A19.467 19.467 0 0 0 560.42744 410.23308ZM565.707 423.28215a19.63968 19.63968 0 0 0 5.00385-4.33912 28.59988 28.59988 0 0 0 3.443-5.15268 28.0807 28.0807 0 0 0 2.26233-5.76881l.00007-.00029a2.50444 2.50444 0 0 0-4.32395-2.25515h0a28.11 28.11 0 0 0-3.436 5.15686 28.62762 28.62762 0 0 0-2.25483 5.77265A19.64565 19.64565 0 0 0 565.707 423.28215ZM570.36758 434.13448a21.65425 21.65425 0 0 0 5.58448-4.19151 32.22442 32.22442 0 0 0 4.10406-5.14332 31.64542 31.64542 0 0 0 2.98406-5.86383l.0001-.00026a2.4968 2.4968 0 0 0-4.10193-2.63769h0a31.65031 31.65031 0 0 0-4.09742 5.14812 32.2279 32.2279 0 0 0-2.97688 5.86834A21.64015 21.64015 0 0 0 570.36758 434.13448ZM576.17193 445.89666a23.068 23.068 0 0 0 5.17373-5.04237 34.77024 34.77024 0 0 0 3.5928-5.81606 34.13928 34.13928 0 0 0 2.39621-6.40144l.00008-.00035a2.49231 2.49231 0 0 0-4.38028-2.14378h0a34.12125 34.12125 0 0 0-3.58534 5.81982 34.764 34.764 0 0 0-2.38877 6.40514A23.07012 23.07012 0 0 0 576.17193 445.89666ZM547.07488 372.85441a18.53548 18.53548 0 0 0-2.84952-5.75021 26.62545 26.62545 0 0 0-4.01334-4.42962 26.163 26.163 0 0 0-4.89348-3.43057l-.12576-.066a2.48171 2.48171 0 0 0-3.18008 3.60871l.08127.11636a26.163 26.163 0 0 0 4.01892 4.42333 26.626 26.626 0 0 0 4.89907 3.42429A18.53653 18.53653 0 0 0 547.07488 372.85441ZM551.24241 386.42043a15.86139 15.86139 0 0 0-2.98962-5.0697 21.78733 21.78733 0 0 0-4.00174-3.6291 21.3952 21.3952 0 0 0-4.76694-2.53945l-.05216-.019a2.51755 2.51755 0 0 0-2.7863 3.96734l.0356.04258a21.39269 21.39269 0 0 0 4.0064 3.62235 21.78923 21.78923 0 0 0 4.77157 2.53264A15.8502 15.8502 0 0 0 551.24241 386.42043ZM555.76482 399.27946a17.67465 17.67465 0 0 0-4.01167-4.79366 25.09662 25.09662 0 0 0-4.81611-3.22819 24.619 24.619 0 0 0-5.42494-2.04342h0a2.51427 2.51427 0 0 0-2.2287 4.3377h0a24.61252 24.61252 0 0 0 4.81973 3.2208 25.08917 25.08917 0 0 0 5.42861 2.03609A17.66452 17.66452 0 0 0 555.76482 399.27946ZM561.4107 413.11991a18.5793 18.5793 0 0 0-4.61848-4.47183 26.748 26.748 0 0 0-5.27348-2.83866 26.29516 26.29516 0 0 0-5.7696-1.60254l-.14016-.02022a2.4817 2.4817 0 0 0-1.79189 4.46424l.11519.08227a26.27509 26.27509 0 0 0 5.27687 2.83079 26.77325 26.77325 0 0 0 5.77295 1.59461A18.6017 18.6017 0 0 0 561.4107 413.11991ZM566.14918 424.64956a22.23657 22.23657 0 0 0-5.8508-3.9908 33.26881 33.26881 0 0 0-6.28376-2.28469 32.70166 32.70166 0 0 0-6.61062-.9939l-.0004 0a2.49507 2.49507 0 0 0-1.19865 4.72748h0a32.67562 32.67562 0 0 0 6.28568 2.27665 33.27531 33.27531 0 0 0 6.613.98552A22.22642 22.22642 0 0 0 566.14918 424.64956Z"></path>
  <path fill="#8b9d36" d="M570.85336 434.4617a19.29246 19.29246 0 0 0-5.68311-3.27216 27.98351 27.98351 0 0 0-5.93345-1.53018 27.48144 27.48144 0 0 0-6.1231-.21172h-.0001a2.50621 2.50621 0 0 0-.69416 4.82743h0a27.48581 27.48581 0 0 0 5.93509 1.5216 27.97941 27.97941 0 0 0 6.12421.20343A19.28484 19.28484 0 0 0 570.85336 434.4617ZM574.23731 442.37736a24.166 24.166 0 0 0-6.91861-2.64271 36.72584 36.72584 0 0 0-6.97277-.88331 36.07555 36.07555 0 0 0-7.01272.44756l-.00038.00007a2.4896 2.4896 0 0 0-.149 4.87485h0a36.09579 36.09579 0 0 0 6.97312.8749 36.72575 36.72575 0 0 0 7.01305-.456A24.1657 24.1657 0 0 0 574.23731 442.37736ZM556.6726 448.42576a2.48621 2.48621 0 0 0 .74455 4.80272h.00016a33.49771 33.49771 0 0 0 6.70034-.36076 32.88655 32.88655 0 0 0 6.49549-1.67662 22.12351 22.12351 0 0 0 6.22406-3.43266 22.12694 22.12694 0 0 0-6.97132-1.38662 32.89888 32.89888 0 0 0-6.69824.36864 33.49623 33.49623 0 0 0-6.495 1.68529Z"></path>
  <path fill="#5f7d37" d="M561.1755,435.62554c.15579-.9352,15.43655-93.9397,2.77684-125.44234l1.32077-.52959c12.80827,31.87183-2.05427,122.36981-2.69358,126.20654Z"></path>
  <path fill="#5f7d37" d="M565.14416 311.7528a16.65021 16.65021 0 0 1-3.56441-5.34609 22.21889 22.21889 0 0 1-1.56509-5.62639 21.83351 21.83351 0 0 1-.051-5.83838l.00844-.06065a2.90139 2.90139 0 0 1 5.50784-.77186l.02475.05591a21.836 21.836 0 0 1 1.55566 5.62776 22.21642 22.21642 0 0 1 .04155 5.83974A16.65014 16.65014 0 0 1 565.14416 311.7528ZM568.88032 333.334a11.34163 11.34163 0 0 1-6.56093-.78343 14.91739 14.91739 0 0 1-5.23506-3.705 13.61865 13.61865 0 0 1-3.14082-5.7916l-.01826-.07182a2.87248 2.87248 0 0 1 4.80816-2.67557q.08736.08379.17509.167c1.25017 1.20558 2.32692 2.37815 3.45615 3.60369a51.60812 51.60812 0 0 1 3.29083 4.00475A33.8081 33.8081 0 0 1 568.88032 333.334ZM567.25863 319.53579a11.3417 11.3417 0 0 1-6.56093-.78344 14.9174 14.9174 0 0 1-5.23506-3.705 13.61858 13.61858 0 0 1-3.14082-5.79161l-.01826-.07182a2.87248 2.87248 0 0 1 4.80816-2.67556q.08736.08379.17508.167c1.25018 1.20557 2.32693 2.37814 3.45616 3.60369a51.60624 51.60624 0 0 1 3.29083 4.00475A33.80791 33.80791 0 0 1 567.25863 319.53579ZM568.00238 323.22908a17.60151 17.60151 0 0 1 .08123-6.629 23.92952 23.92952 0 0 1 1.90266-5.75736 23.50472 23.50472 0 0 1 3.2813-5.09764l.08643-.09949a2.875 2.875 0 0 1 4.98452 2.38462l-.02335.13037a23.50307 23.50307 0 0 1-1.91157 5.75314 23.95959 23.95959 0 0 1-3.28955 5.09359A17.61408 17.61408 0 0 1 568.00238 323.22908ZM569.26527 352.53643a17.63675 17.63675 0 0 1-6.00538-2.82471 24.00242 24.00242 0 0 1-4.45713-4.12163 23.57774 23.57774 0 0 1-3.286-5.10334q-.04774-.10378-.09479-.20816a2.84864 2.84864 0 0 1 4.19494-3.516q.09465.06462.18859.12984a23.57817 23.57817 0 0 1 4.44964 4.12776 24.00369 24.00369 0 0 1 3.27919 5.10961A17.62557 17.62557 0 0 1 569.26527 352.53643ZM569.03436 369.75323a19.53755 19.53755 0 0 1-6.20629-3.29385 27.4474 27.4474 0 0 1-4.62991-4.55539 26.95576 26.95576 0 0 1-3.43615-5.51009q-.03966-.08761-.07889-.17557a2.848 2.848 0 0 1 4.29452-3.436q.07724.05759.154.11553a26.97364 26.97364 0 0 1 4.62175 4.56131 27.45468 27.45468 0 0 1 3.42869 5.51615A19.52621 19.52621 0 0 1 569.03436 369.75323ZM567.7689 385.80526a22.33648 22.33648 0 0 1-6.826-3.25519 32.46422 32.46422 0 0 1-5.34492-4.62872 31.89241 31.89241 0 0 1-4.226-5.66866l-.07241-.12751a2.84728 2.84728 0 0 1 4.05233-3.76094l.12166.08165a31.90921 31.90921 0 0 1 5.33874 4.63544 32.46907 32.46907 0 0 1 4.21845 5.67514A22.33651 22.33651 0 0 1 567.7689 385.80526ZM566.47828 401.90523a22.53465 22.53465 0 0 1-6.96993-3.02854 32.816 32.816 0 0 1-5.54119-4.456 32.22008 32.22008 0 0 1-4.46075-5.53654l-.00018-.00028a2.87361 2.87361 0 0 1 3.95742-3.9559h0a32.25377 32.25377 0 0 1 5.535 4.463 32.84805 32.84805 0 0 1 4.45386 5.54331A22.5422 22.5422 0 0 1 566.47828 401.90523ZM565.10962 415.38764a24.846 24.846 0 0 1-7.55472-2.66723 36.97449 36.97449 0 0 1-6.26161-4.21834 36.31011 36.31011 0 0 1-5.28346-5.39228l-.0002-.00025a2.86485 2.86485 0 0 1 3.5828-4.29827h0a36.31555 36.31555 0 0 1 6.256 4.22587 36.97841 36.97841 0 0 1 5.27716 5.39969A24.83 24.83 0 0 1 565.10962 415.38764ZM562.80191 430.25944a26.46792 26.46792 0 0 1-7.39777-3.7399 39.89575 39.89575 0 0 1-5.93339-5.1306 39.1713 39.1713 0 0 1-4.82489-6.183l-.00022-.00035a2.85969 2.85969 0 0 1 4.05738-3.85336h0a39.15138 39.15138 0 0 1 5.9265 5.13729 39.88748 39.88748 0 0 1 4.818 6.18958A26.47068 26.47068 0 0 1 562.80191 430.25944ZM569.52765 340.29646a21.26813 21.26813 0 0 1 1.14123-7.27452 30.55078 30.55078 0 0 1 2.86945-6.22929 30.01854 30.01854 0 0 1 4.17652-5.43845l.11494-.11554a2.84753 2.84753 0 0 1 4.72233 2.85632l-.04894.15533a30.01957 30.01957 0 0 1-2.87772 6.22433 30.55117 30.55117 0 0 1-4.18479 5.43349A21.269 21.269 0 0 1 569.52765 340.29646ZM569.63213 356.57977a18.19931 18.19931 0 0 1 1.52867-6.57781 24.99858 24.99858 0 0 1 3.13211-5.349 24.54839 24.54839 0 0 1 4.34453-4.41947l.05054-.0388a2.88865 2.88865 0 0 1 4.41464 3.38435l-.02433.05885a24.54563 24.54563 0 0 1-3.13952 5.34325 25.00112 25.00112 0 0 1-4.35194 4.41361A18.18668 18.18668 0 0 1 569.63213 356.57977ZM569.105 372.21127a20.27968 20.27968 0 0 1 2.74239-6.62721 28.79589 28.79589 0 0 1 4.16144-5.1903 28.2486 28.2486 0 0 1 5.23542-4.10285h0a2.88487 2.88487 0 0 1 3.93167 3.98155h0a28.2401 28.2401 0 0 1-4.168 5.18346 28.78718 28.78718 0 0 1-5.242 4.09608A20.26845 20.26845 0 0 1 569.105 372.21127ZM567.6856 389.30349a21.318 21.318 0 0 1 3.51731-6.48365 30.69126 30.69126 0 0 1 4.79609-4.92124 30.17081 30.17081 0 0 1 5.76435-3.73878l.14647-.07035a2.84752 2.84752 0 0 1 3.49705 4.27033l-.0978.12967a30.148 30.148 0 0 1-4.8025 4.91379 30.71905 30.71905 0 0 1-5.77074 3.73126A21.34349 21.34349 0 0 1 567.6856 389.30349ZM566.46463 403.55413a25.5143 25.5143 0 0 1 5.03172-6.381 38.17338 38.17338 0 0 1 6.09252-4.66236 37.52291 37.52291 0 0 1 6.89431-3.36185l.00043-.00015a2.86285 2.86285 0 0 1 2.93822 4.76253h0a37.49338 37.49338 0 0 1-6.09739 4.65423 38.18027 38.18027 0 0 1-6.89984 3.3535A25.503 25.503 0 0 1 566.46463 403.55413Z"></path>
  <path fill="#5f7d37" d="M564.69043 415.91292a22.13657 22.13657 0 0 1 5.09536-5.53667 32.1085 32.1085 0 0 1 5.96859-3.71593 31.53162 31.53162 0 0 1 6.62972-2.338l.0001 0a2.87563 2.87563 0 0 1 2.42037 5.04548h0a31.53679 31.53679 0 0 1-5.97333 3.70712 32.103 32.103 0 0 1-6.63377 2.32927A22.12773 22.12773 0 0 1 564.69043 415.91292ZM563.70906 425.74165a27.72812 27.72812 0 0 1 6.66428-5.27264 42.13939 42.13939 0 0 1 7.32877-3.36536 41.39269 41.39269 0 0 1 7.8303-1.92229l.00043-.00006a2.85657 2.85657 0 0 1 1.83992 5.28491h0a41.41709 41.41709 0 0 1-7.332 3.35628 42.13929 42.13929 0 0 1-7.83357 1.91312A27.7278 27.7278 0 0 1 563.70906 425.74165ZM585.01643 426.32057a2.85269 2.85269 0 0 1 .837 5.51331l-.00018.00007a38.43654 38.43654 0 0 1-7.45849 1.90986 37.73552 37.73552 0 0 1-7.68689.399 25.38435 25.38435 0 0 1-7.99379-1.61657 25.38862 25.38862 0 0 1 7.15406-3.9158 37.74691 37.74691 0 0 1 7.4589-1.90051 38.43319 38.43319 0 0 1 7.68936-.38937Z"></path>
  <path fill="#c4ce6e" d="M559.96518,454.92887c.30688-.60483,30.6815-60.80114,28.79764-85.016l1.015-.07818c1.90609,24.49867-27.64555,83.074-28.9047,85.55539Z"></path>
  <path fill="#c4ce6e" d="M589.23959 371.23971a11.91127 11.91127 0 0 1-1.2861-4.413 15.89472 15.89472 0 0 1 .1385-4.17553 15.61982 15.61982 0 0 1 1.21731-3.9955l.01877-.03957a2.07559 2.07559 0 0 1 3.9245.65443l.0049.04347a15.62081 15.62081 0 0 1-.14523 4.17444 15.893 15.893 0 0 1-1.224 3.9944A11.91118 11.91118 0 0 1 589.23959 371.23971ZM587.16111 386.76962a8.11363 8.11363 0 0 1-4.30967-1.94174 10.67163 10.67163 0 0 1-2.77823-3.65129 9.74248 9.74248 0 0 1-.90146-4.62622l.00294-.05293a2.05491 2.05491 0 0 1 3.85526-.79485q.04166.07592.08368.15151c.59467 1.09089 1.07806 2.12206 1.5859 3.20064a36.91757 36.91757 0 0 1 1.38705 3.43891A24.18655 24.18655 0 0 1 587.16111 386.76962ZM589.01351 377.00488a8.11348 8.11348 0 0 1-4.30966-1.94174 10.6715 10.6715 0 0 1-2.77823-3.65129 9.7426 9.7426 0 0 1-.90147-4.62622l.00294-.05293a2.05492 2.05492 0 0 1 3.85527-.79485q.04164.07593.08368.15151c.59466 1.09089 1.078 2.12207 1.58589 3.20065a36.92119 36.92119 0 0 1 1.38706 3.4389A24.18618 24.18618 0 0 1 589.01351 377.00488ZM588.729 379.685a12.59169 12.59169 0 0 1 1.47711-4.50675 17.11848 17.11848 0 0 1 2.53325-3.52122 16.81453 16.81453 0 0 1 3.33266-2.7753l.08032-.04937a2.05672 2.05672 0 0 1 2.89041 2.69643l-.04389.084a16.81367 16.81367 0 0 1-2.53843 3.51643 17.14054 17.14054 0 0 1-3.33742 2.77077A12.60068 12.60068 0 0 1 588.729 379.685ZM583.30565 399.95741a12.61683 12.61683 0 0 1-3.49274-3.21572 17.17028 17.17028 0 0 1-2.158-3.76879 16.86689 16.86689 0 0 1-1.14815-4.18764q-.01032-.08106-.02-.16239a2.03786 2.03786 0 0 1 3.617-1.49991q.05075.0644.10086.12905a16.86719 16.86719 0 0 1 2.15154 3.77138 17.17169 17.17169 0 0 1 1.14216 4.19045A12.609 12.609 0 0 1 583.30565 399.95741ZM579.45572 411.658a13.977 13.977 0 0 1-3.52925-3.579 19.63534 19.63534 0 0 1-2.18285-4.10189 19.28311 19.28311 0 0 1-1.16339-4.49743l-.01619-.13674a2.0374 2.0374 0 0 1 3.66779-1.424l.08034.11188a19.29591 19.29591 0 0 1 2.176 4.10418 19.6397 19.6397 0 0 1 1.157 4.5A13.96851 13.96851 0 0 1 579.45572 411.658ZM575.14954 422.34171a15.9788 15.9788 0 0 1-3.96045-3.6855 23.22439 23.22439 0 0 1-2.6551-4.30527 22.81456 22.81456 0 0 1-1.66844-4.775l-.02208-.10255a2.03689 2.03689 0 0 1 3.5722-1.69769l.06552.08181a22.82758 22.82758 0 0 1 2.64945 4.30854 23.22813 23.22813 0 0 1 1.6619 4.77784A15.97929 15.97929 0 0 1 575.14954 422.34171ZM570.8159 433.05278a16.12072 16.12072 0 0 1-4.10731-3.56169 23.47546 23.47546 0 0 1-2.82611-4.22947 23.04945 23.04945 0 0 1-1.857-4.73521l-.00006-.00023a2.05572 2.05572 0 0 1 3.54923-1.8511h0a23.07387 23.07387 0 0 1 2.82035 4.2329 23.49845 23.49845 0 0 1 1.85083 4.73836A16.12609 16.12609 0 0 1 570.8159 433.05278ZM566.99037 441.96069a17.7745 17.7745 0 0 1-4.58391-3.44052 26.45091 26.45091 0 0 1-3.36873-4.22179 25.97582 25.97582 0 0 1-2.44941-4.8132l-.00008-.00022a2.04945 2.04945 0 0 1 3.367-2.16509h0a25.97933 25.97933 0 0 1 3.36327 4.22573 26.45311 26.45311 0 0 1 2.44352 4.81691A17.763 17.763 0 0 1 566.99037 441.96069ZM562.226 451.61544a18.93482 18.93482 0 0 1-4.24675-4.13893 28.54093 28.54093 0 0 1-2.94909-4.774 28.02182 28.02182 0 0 1-1.96687-5.25449l-.00007-.00028a2.04576 2.04576 0 0 1 3.59546-1.75968h0a28.00786 28.00786 0 0 1 2.943 4.77709 28.535 28.535 0 0 1 1.96077 5.25752A18.937 18.937 0 0 1 562.226 451.61544ZM586.10971 391.66018a15.21462 15.21462 0 0 1 2.339-4.71994 21.85512 21.85512 0 0 1 3.29427-3.636 21.47513 21.47513 0 0 1 4.01671-2.81592l.10323-.0542a2.03706 2.03706 0 0 1 2.61031 2.96213l-.06671.09552a21.476 21.476 0 0 1-3.29885 3.6308 21.85559 21.85559 0 0 1-4.0213 2.81075A15.21506 15.21506 0 0 1 586.10971 391.66018ZM582.68888 402.79558a13.01946 13.01946 0 0 1 2.454-4.16137 17.8839 17.8839 0 0 1 3.28474-2.97887 17.56173 17.56173 0 0 1 3.91285-2.08445l.04282-.01564a2.06648 2.06648 0 0 1 2.28708 3.25651l-.02923.03495a17.55969 17.55969 0 0 1-3.28857 2.97334 17.88531 17.88531 0 0 1-3.91665 2.07886A13.0103 13.0103 0 0 1 582.68888 402.79558ZM578.97675 413.35066a14.50769 14.50769 0 0 1 3.2929-3.93479 20.60022 20.60022 0 0 1 3.9532-2.64979 20.20777 20.20777 0 0 1 4.453-1.6773h0a2.06378 2.06378 0 0 1 1.82939 3.56051h0A20.20315 20.20315 0 0 1 588.549 411.293a20.59418 20.59418 0 0 1-4.456 1.67129A14.49967 14.49967 0 0 1 578.97675 413.35066ZM574.34245 424.71131a15.25049 15.25049 0 0 1 3.791-3.67062 21.95566 21.95566 0 0 1 4.32863-2.33006 21.58379 21.58379 0 0 1 4.73586-1.3154l.115-.0166a2.037 2.037 0 0 1 1.47083 3.66438l-.09455.06753a21.568 21.568 0 0 1-4.33141 2.3236 21.9761 21.9761 0 0 1-4.73861 1.30889A15.26867 15.26867 0 0 1 574.34245 424.71131ZM570.453 434.17519a18.25216 18.25216 0 0 1 4.80251-3.27577 27.30843 27.30843 0 0 1 5.1579-1.87535 26.84329 26.84329 0 0 1 5.42618-.81582h.00033a2.048 2.048 0 0 1 .9839 3.88046h0a26.82186 26.82186 0 0 1-5.15948 1.86875 27.313 27.313 0 0 1-5.42818.80894A18.24454 18.24454 0 0 1 570.453 434.17519Z"></path>
  <path fill="#c4ce6e" d="M566.59163 442.22928a15.83607 15.83607 0 0 1 4.66486-2.68589 22.96981 22.96981 0 0 1 4.87035-1.256 22.55693 22.55693 0 0 1 5.026-.17378h.00008a2.05717 2.05717 0 0 1 .56979 3.9625h0a22.56123 22.56123 0 0 1-4.8717 1.249 22.96641 22.96641 0 0 1-5.02693.167A15.82943 15.82943 0 0 1 566.59163 442.22928ZM563.814 448.72669a19.83648 19.83648 0 0 1 5.679-2.16922 30.14529 30.14529 0 0 1 5.72346-.725 29.61157 29.61157 0 0 1 5.75625.36737l.00031.00006a2.04354 2.04354 0 0 1 .12229 4.00142h0a29.62829 29.62829 0 0 1-5.72375.71814 30.14524 30.14524 0 0 1-5.75652-.37433A19.83591 19.83591 0 0 1 563.814 448.72669ZM578.23162 453.6914a2.04076 2.04076 0 0 1-.61115 3.94222h-.00013a27.49616 27.49616 0 0 1-5.49984-.29612 26.99457 26.99457 0 0 1-5.3317-1.37622 18.15983 18.15983 0 0 1-5.10889-2.81763 18.16277 18.16277 0 0 1 5.72227-1.13818 27.0046 27.0046 0 0 1 5.49811.30259 27.49363 27.49363 0 0 1 5.33132 1.38334Z"></path>
  <path fill="#e19974" d="M579.59321,475.59087H553.8717l-8.27487-43.90081a1.7449,1.7449,0,0,1,1.70271-2.07651h38.86583a1.7449,1.7449,0,0,1,1.70271,2.07651Z"></path>
  <path fill="#d6694b" d="M587.27025,434.86212l.59793-3.172a1.74489,1.74489,0,0,0-1.70271-2.07652H547.29953a1.74489,1.74489,0,0,0-1.70271,2.07652l.59792,3.172Z"></path>
  <polygon fill="#d6694b" points="555.928 463.158 550.494 457.673 555.928 452.189 561.361 457.673 555.928 463.158"></polygon>
  <polygon fill="#d6694b" points="566.795 463.158 561.361 457.673 566.795 452.189 572.228 457.673 566.795 463.158"></polygon>
  <polygon fill="#d6694b" points="577.537 463.158 572.103 457.673 577.537 452.189 582.97 457.673 577.537 463.158"></polygon>
  <rect width="500" height="1.977" x="107.281" y="474.603" fill="#935b50"></rect>
  <polygon fill="#e19974" points="518.627 221.061 496.65 221.061 489.245 182.141 526.032 182.141 518.627 221.061"></polygon>
  <polygon fill="#d6694b" points="525.186 186.584 526.032 182.141 489.245 182.141 490.09 186.584 525.186 186.584"></polygon>
  <rect width="6.566" height="6.566" x="495.124" y="202.611" fill="#d6694b" transform="rotate(45 498.406 205.894)"></rect>
  <rect width="6.566" height="6.566" x="504.409" y="202.611" fill="#d6694b" transform="rotate(45 507.692 205.894)"></rect>
  <rect width="6.566" height="6.566" x="513.587" y="202.611" fill="#d6694b" transform="rotate(45 516.87 205.894)"></rect>
  <path fill="#558031" d="M516.19911,149.38758s1.92987,27.26441-9.38129,33.04248C506.81782,182.43006,502.90193,172.09319,516.19911,149.38758Z"></path>
  <path fill="#849f4c" d="M479.70015,161.09918s18.50451,3.19278,27.11767,21.33088C506.81782,182.43006,486.46917,175.51883,479.70015,161.09918Z"></path>
  <path fill="#849f4c" d="M497.86975,153.27381s13.05754,11.922,8.94807,29.15625C506.81782,182.43006,499.58442,174.76275,497.86975,153.27381Z"></path>
  <path fill="#a6b862" d="M506.81782,182.43006s4.5876-16.79326,27.779-21.09951C534.59677,161.33055,529.37769,176.62109,506.81782,182.43006Z"></path>
  <path fill="#849f4c" d="M540.7402,178.04018s-17.69434-7.29464-33.92238,4.38988C506.81782,182.43006,528.39127,185.02015,540.7402,178.04018Z"></path>
  <path fill="#558031" d="M489.225,155.26468s20.73553,14.66562,17.761,27.1773C506.986,182.442,492.60032,170.90773,489.225,155.26468Z"></path>
  <rect width="1.271" height="44.763" x="504.819" y="96.49" fill="#7ca1b1"></rect>
  <path fill="#7ca1b1" d="M533.70461,221.696H504.81887V139.2766l45.41992,63.36279Zm-27.61426-1.27051h27.03418L548.6216,202.5642l-42.53125-59.3335Z"></path>
  <polygon fill="#7ca1b1" points="521.251 221.283 520.06 220.839 526.765 202.868 504.856 141.467 506.053 141.04 528.119 202.878 521.251 221.283"></polygon>
  <rect width="43.976" height="1.271" x="505.455" y="201.967" fill="#7ca1b1"></rect>
  <path fill="#7ca1b1" d="M506.09035,221.696H477.20461l-16.53418-19.05665,45.41992-63.36279Zm-28.30566-1.27051h27.03418V143.2307l-42.53125,59.3335Z"></path>
  <polygon fill="#7ca1b1" points="489.658 221.283 482.791 202.878 482.869 202.66 504.856 141.04 506.053 141.467 484.144 202.868 490.849 220.839 489.658 221.283"></polygon>
  <rect width="43.976" height="1.271" x="461.479" y="201.967" fill="#7ca1b1"></rect>
  <rect width="18.895" height="1.271" x="496.007" y="95.855" fill="#7ca1b1"></rect>
  <path fill="#558031" d="M470.16911,180.21491s23.23818-8.61664,36.95281,1.80315C507.12192,182.01806,494.09952,189.19095,470.16911,180.21491Z"></path>
  <path fill="#849f4c" d="M525.59888,197.02734s-17.09408-2.91833-18.78106-14.59728C506.81782,182.43006,519.308,183.04869,525.59888,197.02734Z"></path>
  <path fill="#558031" d="M540.57923,195.02289s-8.54376-13.68511-33.76141-12.59283Z"></path>
  <path fill="#a6b862" d="M486.26136,196.81192s9.4108-14.07894,20.55646-14.38186C506.81782,182.43006,505.1399,193.76621,486.26136,196.81192Z"></path>
  <rect width="1.271" height="82.993" x="504.819" y="138.068" fill="#7ca1b1"></rect>
  <path fill="#50661a" d="M161.78664,448.3462a116.96167,116.96167,0,0,1-1.61377-16.68119,123.03128,123.03128,0,0,1,.66089-16.76718,89.47115,89.47115,0,0,1,3.42847-16.42931,72.49836,72.49836,0,0,1,3.06006-7.82051,59.74518,59.74518,0,0,1,4.1875-7.26185,62.90894,62.90894,0,0,0-6.77442,15.2293c-.76929,2.67472-1.46313,5.37065-2.00268,8.10211q-.7892,4.10019-1.25953,8.25334a131.41212,131.41212,0,0,0-.80688,16.68422q.03844,4.18122.32275,8.35807C161.16579,442.79684,161.40212,445.58,161.78664,448.3462Z"></path>
  <path fill="#5e7c24" d="M161.78667,406.50966s-29.38216,3.70051-42.16929-8.90757c-9.48919-9.35633-.46338-25.45988,12.54131-22.55062C140.865,376.99915,151.60356,384.73794,161.78667,406.50966Z"></path>
  <path fill="#50661a" d="M161.78664,406.50966c-4.12451-1.25539-8.18408-2.72545-12.18042-4.35277q-5.99157-2.44827-11.74829-5.44228-2.86341-1.51746-5.61841-3.233a56.528,56.528,0,0,1-5.33569-3.689,39.86558,39.86558,0,0,1-4.80054-4.36648,19.32349,19.32349,0,0,1-3.52759-5.41036,19.16524,19.16524,0,0,0,3.75782,5.19488,39.9812,39.9812,0,0,0,4.8706,4.18772,82.173,82.173,0,0,0,10.95459,6.74743c3.78491,2.0368,7.69775,3.83152,11.63892,5.5564q2.95788,1.29155,5.96045,2.482C157.752,404.99707,159.75856,405.78145,161.78664,406.50966Z"></path>
  <path fill="#50661a" d="m129.9258 391.65242.02881-4.33467c-.00806-1.44083.00049-2.87931-.08154-4.313a37.71224 37.71224 0 0 0-.38086-4.27425l-.19947-1.05c-.0708-.34941-.1936-.68132-.2854-1.02647a7.58793 7.58793 0 0 0-.38769-.99229 8.68066 8.68066 0 0 0-.57691-.90651 7.29722 7.29722 0 0 1 1.9358 3.88059 29.0951 29.0951 0 0 1 .53735 4.3415c.029 1.45507.03 2.90852-.06836 4.35683A36.405 36.405 0 0 1 129.9258 391.65242ZM116.09792 391.65242c1.727-.30062 3.43066-.5483 5.0957-.9319a15.31981 15.31981 0 0 0 2.41651-.76079 3.49238 3.49238 0 0 0 1.88794-1.59092 3.02959 3.02959 0 0 1-1.65845 2.0382 9.85245 9.85245 0 0 1-2.499.94042A15.88176 15.88176 0 0 1 116.09792 391.65242ZM121.40993 399.18078a48.93029 48.93029 0 0 0 6.82056-1.37105 12.808 12.808 0 0 0 3.12939-1.3424 4.47393 4.47393 0 0 0 2.08179-2.59355 4.05212 4.05212 0 0 1-1.79492 3.00629 10.42423 10.42423 0 0 1-3.22974 1.546A20.25189 20.25189 0 0 1 121.40993 399.18078ZM137.83913 396.34538c.4895-1.43566.94263-2.87457 1.34912-4.32361.39795-1.45067.79029-2.90183 1.05-4.379a25.96048 25.96048 0 0 0 .4021-8.94344 15.0595 15.0595 0 0 1 .68652 4.50962 26.95569 26.95569 0 0 1-.457 4.55672 35.62 35.62 0 0 1-1.21118 4.40463A28.11323 28.11323 0 0 1 137.83913 396.34538ZM133.44167 404.84753c.93652-.24589 1.843-.553 2.73071-.88147a15.26273 15.26273 0 0 0 2.54175-1.20738 9.36 9.36 0 0 0 2.14771-1.74223 7.5842 7.5842 0 0 0 1.34179-2.46381 5.45534 5.45534 0 0 1-.94507 2.77237 7.61723 7.61723 0 0 1-2.21337 1.98587 10.62731 10.62731 0 0 1-2.71851 1.13161A10.94293 10.94293 0 0 1 133.44167 404.84753ZM148.32961 385.31375a14.29327 14.29327 0 0 1 1.38159 3.84283 16.49394 16.49394 0 0 1 .32276 4.10221 13.38052 13.38052 0 0 1-.86158 4.03031 12.08765 12.08765 0 0 1-2.08325 3.515 18.331 18.331 0 0 0 1.615-3.677 14.65635 14.65635 0 0 0 .68726-3.90521 18.85282 18.85282 0 0 0-.166-3.9793A24.10894 24.10894 0 0 0 148.32961 385.31375ZM146.43 406.50966c1.06787-.53528 2.11743-.99444 3.12427-1.53381a12.45439 12.45439 0 0 0 2.81933-1.94745 5.291 5.291 0 0 1-2.51709 2.516A8.21041 8.21041 0 0 1 146.43 406.50966ZM155.731 395.22824a14.38535 14.38535 0 0 1 1.00927 4.56709 10.26942 10.26942 0 0 1-.11328 2.36392 4.54476 4.54476 0 0 1-.896 2.18278 7.20684 7.20684 0 0 0 .39648-2.23935 20.04831 20.04831 0 0 0-.03-2.27117C156.01857 398.30954 155.835 396.78977 155.731 395.22824Z"></path>
  <path fill="#c4ce6e" d="M160.71876,406.36163s-22.89271-18.78641-22.533-36.74038c.2669-13.32345,18.165-17.84521,24.99628-6.40318C167.75536,370.87824,169.522,383.99632,160.71876,406.36163Z"></path>
  <path fill="#8b9d36" d="M160.71877,406.36163a125.587,125.587,0,0,1-5.34375-11.7883q-2.38623-6.02307-4.17212-12.27228-.86207-3.12867-1.50391-6.31683a53.80657,53.80657,0,0,1-.96875-6.429,39.91885,39.91885,0,0,1-.08252-6.50783,18.59764,18.59764,0,0,1,1.58912-6.27655,19.94891,19.94891,0,0,0-1.09986,6.30595,39.98257,39.98257,0,0,0,.35816,6.396,83.79372,83.79372,0,0,0,2.66992,12.56024c1.10815,4.14646,2.49707,8.21609,3.92651,12.27059q1.07263,3.04194,2.24976,6.04851C159.09426,402.36971,159.90749,404.36319,160.71877,406.36163Z"></path>
  <path fill="#8b9d36" d="M149.59426 373.01354c2.031-2.08907 4.12109-4.05634 6.114-6.10923.99414-1.02619 1.95313-2.07816 2.85327-3.17482a18.33624 18.33624 0 0 0 1.21094-1.73471 7.47807 7.47807 0 0 0 .48731-.93919 9.992 9.992 0 0 0 .30664-1.02942 7.02147 7.02147 0 0 1-1.37012 4.15694A24.369 24.369 0 0 1 156.426 367.6 33.57751 33.57751 0 0 1 149.59426 373.01354ZM140.08474 362.97456c1.50463.94625 2.86523 1.97932 4.2788 2.91016a18.71538 18.71538 0 0 0 2.16236 1.24867 3.71658 3.71658 0 0 0 2.40722.40752 2.93994 2.93994 0 0 1-2.66625.3286 9.1099 9.1099 0 0 1-2.45313-1.15011A13.04762 13.04762 0 0 1 140.08474 362.97456ZM138.27224 372.00822c1.94482 1.34231 3.79443 2.72622 5.77417 3.85458a13.851 13.851 0 0 0 3.06665 1.36709 4.654 4.654 0 0 0 3.28637-.13632 3.95313 3.95313 0 0 1-3.44506.90036 10.00132 10.00132 0 0 1-3.40357-1.26324 17.521 17.521 0 0 1-2.88574-2.10351A15.76409 15.76409 0 0 1 138.27224 372.00822ZM151.62917 381.98582c1.35889-.68874 2.68359-1.40961 4.00464-2.12152 1.311-.73076 2.615-1.46313 3.86792-2.27165a42.495 42.495 0 0 0 3.63721-2.58352 27.06046 27.06046 0 0 0 3.22753-3.12478 13.76579 13.76579 0 0 1-2.70654 3.70575 23.19331 23.19331 0 0 1-3.62207 2.846A27.37289 27.37289 0 0 1 151.62917 381.98582ZM142.43239 384.64023c.87378.4461 1.72681.867 2.58423 1.25494a17.60993 17.60993 0 0 0 2.606.96512 10.16687 10.16687 0 0 0 2.68066.39415 8.65566 8.65566 0 0 0 2.72486-.582 5.05259 5.05259 0 0 1-2.64893 1.35869 7.329 7.329 0 0 1-3.02515-.2082 9.88591 9.88591 0 0 1-2.70947-1.24515A9.26045 9.26045 0 0 1 142.43239 384.64023ZM166.85256 382.01552a14.11907 14.11907 0 0 1-4.48145 6.837 15.6489 15.6489 0 0 1-1.69384 1.22746c-.29908.17947-.61744.32786-.92456.49216a5.25849 5.25849 0 0 1-.95582.42031 11.06343 11.06343 0 0 1-4.04345.77518 21.52688 21.52688 0 0 0 3.72119-1.486 16.56338 16.56338 0 0 0 3.252-2.19287 22.14535 22.14535 0 0 0 2.77539-2.80562A30.03476 30.03476 0 0 0 166.85256 382.01552ZM150.158 395.21272c1.19653.28669 2.2478.69577 3.3186 1.045a20.97548 20.97548 0 0 0 3.29614.87593 3.6473 3.6473 0 0 1-1.80322.3977 6.33205 6.33205 0 0 1-1.81079-.32618 7.52553 7.52553 0 0 1-1.63379-.79185A5.4307 5.4307 0 0 1 150.158 395.21272ZM164.7444 394.20694a9.50053 9.50053 0 0 1-1.0437 2.12545 12.75377 12.75377 0 0 1-1.44848 1.87008 9.19845 9.19845 0 0 1-1.83985 1.53232 4.14713 4.14713 0 0 1-2.28442.73971 8.91882 8.91882 0 0 0 1.81494-1.363c.543-.50942 1.074-1.03652 1.58228-1.59481C162.57155 396.42651 163.56545 395.2776 164.7444 394.20694Z"></path>
  <path fill="#c4ce6e" d="M160.03077,437.82763s-29.59516,1.06406-41.20629-12.6347c-8.6165-10.16571,1.81019-25.39967,14.50342-21.34164C141.82573,406.56805,151.83092,415.23414,160.03077,437.82763Z"></path>
  <path fill="#8b9d36" d="M160.03078,437.82763a125.59781,125.59781,0,0,1-11.80713-5.30192c-3.84985-1.95789-7.59936-4.11575-11.249-6.44018q-2.71656-1.77528-5.30762-3.7408a53.8454,53.8454,0,0,1-4.98071-4.179,39.90709,39.90709,0,0,1-4.36817-4.82456,18.59919,18.59919,0,0,1-2.96191-5.75739,19.94234,19.94234,0,0,0,3.34815,5.45562,39.96167,39.96167,0,0,0,4.501,4.55845,83.80322,83.80322,0,0,0,10.31323,7.65c3.57471,2.37546,7.30909,4.50757,11.06372,6.60143q2.81727,1.57093,5.68946,3.046C156.17141,435.90967,158.10012,436.86613,160.03078,437.82763Z"></path>
  <path fill="#8b9d36" d="M129.62282 420.18679c.14014-2.91026.40528-5.76817.54126-8.62623.06616-1.42718.08887-2.85045.03809-4.26825a18.36414 18.36414 0 0 0-.24-2.102 7.48605 7.48605 0 0 0-.25611-1.02664 9.98725 9.98725 0 0 0-.45141-.97468 7.0231 7.0231 0 0 1 1.72363 4.02325 24.3816 24.3816 0 0 1 .18408 4.395A33.58544 33.58544 0 0 1 129.62282 420.18679ZM115.84987 418.953c1.75415-.28613 3.458-.412 5.13379-.6495a18.71706 18.71706 0 0 0 2.44751-.49478 3.71651 3.71651 0 0 0 2.07446-1.28747 2.94015 2.94015 0 0 1-1.78149 2.01073 9.10832 9.10832 0 0 1-2.60034.761A13.04616 13.04616 0 0 1 115.84987 418.953ZM120.469 426.92526c2.3462-.28062 4.64869-.46689 6.87964-.931a13.84861 13.84861 0 0 0 3.20386-1.00433 4.65377 4.65377 0 0 0 2.37378-2.2769 3.95356 3.95356 0 0 1-1.98706 2.95472 10.00269 10.00269 0 0 1-3.3877 1.30512 17.52916 17.52916 0 0 1-3.55566.3326A15.764 15.764 0 0 1 120.469 426.92526ZM137.08547 425.56711c.56323-1.41562 1.07934-2.83275 1.59863-4.24064.49927-1.41534.99243-2.82739 1.39673-4.26265a42.51006 42.51006 0 0 0 1.01733-4.3438 27.05661 27.05661 0 0 0 .352-4.47865 13.77116 13.77116 0 0 1 .4231 4.56946 23.18963 23.18963 0 0 1-.83252 4.53063A27.367 27.367 0 0 1 137.08547 425.56711ZM131.947 433.643c.9502-.24366 1.86841-.4926 2.76782-.7691a17.61188 17.61188 0 0 0 2.59253-1.001 10.16787 10.16787 0 0 0 2.27051-1.47827 8.66238 8.66238 0 0 0 1.658-2.23964 5.054 5.054 0 0 1-1.08716 2.77162 7.329 7.329 0 0 1-2.40576 1.84583 9.88868 9.88868 0 0 1-2.85523.85935A9.25518 9.25518 0 0 1 131.947 433.643ZM148.51882 415.51554a14.12036 14.12036 0 0 1 1.16455 8.09141 15.69652 15.69652 0 0 1-.45776 2.04124c-.10572.33251-.2461.65442-.36744.98074a5.26179 5.26179 0 0 1-.43872.94773 11.05826 11.05826 0 0 1-2.51855 3.2568 21.52 21.52 0 0 0 1.80664-3.57657 16.55572 16.55572 0 0 0 .98706-3.796 22.15134 22.15134 0 0 0 .22412-3.94A29.98349 29.98349 0 0 0 148.51882 415.51554ZM144.73537 436.45738c1.08667-.57682 2.14551-.96584 3.17969-1.41268a20.96259 20.96259 0 0 0 3.05054-1.52436 3.6457 3.6457 0 0 1-1.08863 1.49132 6.32737 6.32737 0 0 1-1.57348.95384 7.53339 7.53339 0 0 1-1.74878.48739A5.43061 5.43061 0 0 1 144.73537 436.45738ZM155.00588 426.05088a9.50686 9.50686 0 0 1 .62378 2.28417 12.76394 12.76394 0 0 1 .15161 2.36064 9.19086 9.19086 0 0 1-.36548 2.36636 4.14845 4.14845 0 0 1-1.22314 2.06626 8.92246 8.92246 0 0 0 .45874-2.2229c.06982-.74122.11938-1.488.13086-2.24282C154.84548 429.15277 154.83034 427.63378 155.00588 426.05088Z"></path>
  <path fill="#5e7c24" d="M161.77884,408.49762s29.53662,2.14316,41.63983-11.12283c8.98167-9.84456-.88225-25.44881-13.71509-21.85661C181.11229,377.92308,170.79757,386.21835,161.77884,408.49762Z"></path>
  <path fill="#50661a" d="M161.77883,408.49762c1.98681-.83433,3.94922-1.72362,5.89746-2.64069q2.93262-1.3519,5.8208-2.79341c3.84473-1.93068,7.65723-3.9296,11.3291-6.1635a82.167,82.167,0,0,0,10.583-7.31672,40.01845,40.01845,0,0,0,4.64258-4.43918,19.16537,19.16537,0,0,0,3.478-5.38614,19.32318,19.32318,0,0,1-3.23681,5.58917,39.8541,39.8541,0,0,1-4.56323,4.614,56.51927,56.51927,0,0,1-5.1333,3.96568q-2.65833,1.85715-5.4397,3.52533-5.5785,3.29892-11.44458,6.05533C169.80764,405.34363,165.83132,407.0261,161.77883,408.49762Z"></path>
  <path fill="#50661a" d="M192.81032 391.978a36.43161 36.43161 0 0 1-.74927-4.28466c-.17456-1.44109-.25048-2.89257-.29834-4.34714a29.13029 29.13029 0 0 1 .30713-4.36381 7.299 7.299 0 0 1 1.72828-3.97745 8.64529 8.64529 0 0 0-.52833.93573 7.58409 7.58409 0 0 0-.33447 1.01137c-.07348.34952-.17871.68746-.23095 1.04012l-.14356 1.059a37.64019 37.64019 0 0 0-.15454 4.2884c-.0061 1.436.07812 2.87207.14624 4.31131ZM206.61892 391.2475a15.8815 15.8815 0 0 1-5.25147-.02761 9.85489 9.85489 0 0 1-2.54541-.80708 3.03033 3.03033 0 0 1-1.76367-1.94774 3.49288 3.49288 0 0 0 1.96948 1.48895 15.31433 15.31433 0 0 0 2.45313.63207C203.16408 390.88119 204.87844 391.03854 206.61892 391.2475ZM201.71218 399.046a20.25289 20.25289 0 0 1-7.03736-.3835 10.42608 10.42608 0 0 1-3.30688-1.37319 4.05259 4.05259 0 0 1-1.95117-2.90729 4.47261 4.47261 0 0 0 2.21606 2.48 12.80511 12.80511 0 0 0 3.19556 1.17521A48.937 48.937 0 0 0 201.71218 399.046ZM185.156 397.08244a28.10409 28.10409 0 0 1-2.0376-4.07316 35.64727 35.64727 0 0 1-1.44239-4.33449 26.969 26.969 0 0 1-.697-4.52621 15.05923 15.05923 0 0 1 .44751-4.5396 25.95922 25.95922 0 0 0 .874 8.90971c.33715 1.46143.80566 2.88983 1.27978 4.31745Q184.30435 394.97445 185.156 397.08244ZM189.9966 405.34041a10.94539 10.94539 0 0 1-2.90259-.252 10.62624 10.62624 0 0 1-2.77441-.98642 7.61953 7.61953 0 0 1-2.31543-1.86618 5.45325 5.45325 0 0 1-1.08984-2.71857 7.5804 7.5804 0 0 0 1.47 2.38948 9.35407 9.35407 0 0 0 2.23681 1.62634 15.26224 15.26224 0 0 0 2.60181 1.07142C188.127 404.88549 189.04812 405.14435 189.9966 405.34041ZM174.09719 386.62041a24.13906 24.13906 0 0 0-.68677 3.97074 18.85908 18.85908 0 0 0 .04443 3.98251 14.65608 14.65608 0 0 0 .89258 3.86344 18.35346 18.35346 0 0 0 1.80689 3.58655 12.08885 12.08885 0 0 1-2.26587-3.40009 13.37721 13.37721 0 0 1-1.07324-3.97917 16.4911 16.4911 0 0 1 .10546-4.11354A14.30256 14.30256 0 0 1 174.09719 386.62041ZM177.11428 407.68636a8.21071 8.21071 0 0 1-3.4729-.78289 5.28959 5.28959 0 0 1-2.64624-2.37953 12.44556 12.44556 0 0 0 2.918 1.79581C174.947 406.80518 176.01955 407.20825 177.11428 407.68636ZM167.23024 396.91205c-.02148 1.56485-.12451 3.09219-.1228 4.61619a20.05441 20.05441 0 0 0 .08985 2.26959 7.20227 7.20227 0 0 0 .5144 2.21528 4.54574 4.54574 0 0 1-1.01025-2.1324 10.25636 10.25636 0 0 1-.2378-2.35463A14.38164 14.38164 0 0 1 167.23024 396.91205Z"></path>
  <path fill="#8b9d36" d="M160.65531,437.49139s29.53662,2.14315,41.63983-11.12284c8.98167-9.84456-.88225-25.44881-13.71509-21.8566C179.98876,406.91685,169.674,415.21212,160.65531,437.49139Z"></path>
  <path fill="#5e7c24" d="M160.65529,437.49139c1.96436-.89043,3.927-1.77587,5.86231-2.7203q2.92053-1.375,5.79663-2.83636c3.82861-1.95547,7.63818-3.94991,11.29712-6.19336a83.81371,83.81371,0,0,0,10.58569-7.26861,39.97353,39.97353,0,0,0,4.66431-4.39119,19.94633,19.94633,0,0,0,3.54492-5.32982,18.59621,18.59621,0,0,1-3.16992,5.64549,39.89831,39.89831,0,0,1-4.54151,4.66195,53.84691,53.84691,0,0,1-5.12988,3.99448q-2.65905,1.86718-5.44043,3.54466c-3.73193,2.18972-7.55786,4.20933-11.47632,6.02547A125.61858,125.61858,0,0,1,160.65529,437.49139Z"></path>
  <path fill="#5e7c24" d="M191.68679 420.97176a33.57711 33.57711 0 0 1-1.22559-8.63 24.394 24.394 0 0 1 .34424-4.38542 7.02327 7.02327 0 0 1 1.86914-3.95768 10.07189 10.07189 0 0 0-.48657.95757 7.511 7.511 0 0 0-.29346 1.0166 18.37 18.37 0 0 0-.31641 2.09185c-.10253 1.415-.13159 2.83816-.11743 4.26681C191.492 415.19264 191.65261 418.05832 191.68679 420.97176ZM205.49538 420.24126a13.04577 13.04577 0 0 1-5.28271.14737 9.10722 9.10722 0 0 1-2.5708-.8554 2.93989 2.93989 0 0 1-1.707-2.0744 3.71682 3.71682 0 0 0 2.02613 1.3623 18.72306 18.72306 0 0 0 2.428.58376C202.05471 419.70338 203.753 419.89132 205.49538 420.24126ZM200.58864 428.03973a15.76643 15.76643 0 0 1-3.53857.25123 17.52655 17.52655 0 0 1-3.541-.46211 10.00316 10.00316 0 0 1-3.33789-1.42785 3.95363 3.95363 0 0 1-1.87793-3.02525 4.65413 4.65413 0 0 0 2.28906 2.362 13.85272 13.85272 0 0 0 3.165 1.12056C195.96 427.40353 198.25393 427.67368 200.58864 428.03973ZM184.03249 426.07621a27.37635 27.37635 0 0 1-3.65259-8.36449 23.19355 23.19355 0 0 1-.66626-4.558 13.76173 13.76173 0 0 1 .58936-4.551 27.065 27.065 0 0 0 .18847 4.48852 42.4188 42.4188 0 0 0 .85816 4.378c.35156 1.44906.79272 2.87816 1.24023 4.31078C183.05739 423.206 183.5215 424.641 184.03249 426.07621ZM188.87307 434.33418a9.25485 9.25485 0 0 1-2.93824-.11846 9.88851 9.88851 0 0 1-2.822-.963 7.32824 7.32824 0 0 1-2.33691-1.93238 5.05153 5.05153 0 0 1-.98511-2.80943 8.65582 8.65582 0 0 0 1.575 2.29863 10.16317 10.16317 0 0 0 2.21509 1.56013 17.60717 17.60717 0 0 0 2.5542 1.09489C187.024 433.77373 187.93239 434.056 188.87307 434.33418ZM172.97365 415.61418a30.03806 30.03806 0 0 0-.5459 3.98809 22.15329 22.15329 0 0 0 .08033 3.94559 16.55754 16.55754 0 0 0 .8479 3.82944 21.55035 21.55035 0 0 0 1.6748 3.64012 11.06628 11.06628 0 0 1-2.39795-3.34653 5.26046 5.26046 0 0 1-.40356-.9631c-.10962-.33054-.23828-.65736-.33155-.99349a15.68026 15.68026 0 0 1-.383-2.05659A14.12154 14.12154 0 0 1 172.97365 415.61418ZM175.99074 436.68012a5.43093 5.43093 0 0 1-1.81811-.07087 7.53157 7.53157 0 0 1-1.73-.55088 6.3287 6.3287 0 0 1-1.5376-1.01062 3.64433 3.64433 0 0 1-1.03345-1.53 20.97241 20.97241 0 0 0 2.99292 1.63466C173.88161 435.63663 174.92556 436.064 175.99074 436.68012ZM166.10671 425.90581c.11743 1.58825.04687 3.10568.05493 4.6168-.01587.75479.00635 1.50283.04907 2.24611a8.918 8.918 0 0 0 .37744 2.23815 4.1469 4.1469 0 0 1-1.147-2.10951 9.17925 9.17925 0 0 1-.27881-2.37811 12.74892 12.74892 0 0 1 .23731-2.35355A9.50168 9.50168 0 0 1 166.10671 425.90581Z"></path>
  <path fill="#8b9d36" d="M170.52526,384.98031s-8.18918-28.45949,2.2952-43.03865c7.78036-10.81905,25.08358-4.3857,24.21547,8.91212C196.45475,359.75637,190.46532,371.56026,170.52526,384.98031Z"></path>
  <path fill="#5e7c24" d="M170.52517,384.98031a125.61853,125.61853,0,0,1,2.28955-12.7389c.96875-4.20889,2.15576-8.36911,3.52881-12.47246q1.06566-3.0653,2.34619-6.05465a53.84134,53.84134,0,0,1,2.85058-5.84337,39.89693,39.89693,0,0,1,3.625-5.40536,18.60093,18.60093,0,0,1,4.87012-4.26628,19.94956,19.94956,0,0,0-4.48389,4.56817,39.94518,39.94518,0,0,0-3.33471,5.4696,83.8065,83.8065,0,0,0-4.929,11.85724c-1.44067,4.043-2.60644,8.18206-3.73022,12.33171q-.843,3.11334-1.57959,6.25706C171.4529,380.77157,170.99147,382.87446,170.52517,384.98031Z"></path>
  <path fill="#5e7c24" d="M180.28933 351.20882c2.85766-.5676 5.69506-1.00148 8.501-1.5608 1.40088-.28086 2.78736-.60288 4.15088-.99513a18.33367 18.33367 0 0 0 1.98169-.74111 7.49262 7.49262 0 0 0 .93408-.49677 10.03379 10.03379 0 0 0 .83667-.67364 7.02282 7.02282 0 0 1-3.48706 2.64535 24.37645 24.37645 0 0 1-4.22021 1.24128A33.57138 33.57138 0 0 1 180.28933 351.20882ZM178.156 337.54645c.70166 1.63288 1.23584 3.25563 1.87158 4.82422a18.70279 18.70279 0 0 0 1.072 2.25525 3.71672 3.71672 0 0 0 1.75073 1.70162 2.94011 2.94011 0 0 1-2.38183-1.24244 9.10642 9.10642 0 0 1-1.36719-2.33907A13.0445 13.0445 0 0 1 178.156 337.54645ZM171.53713 343.95619c.83984 2.20892 1.57739 4.3979 2.56714 6.45047a13.85357 13.85357 0 0 0 1.74927 2.86586 4.65413 4.65413 0 0 0 2.78344 1.75264 3.95313 3.95313 0 0 1-3.34765-1.21356 10.00029 10.00029 0 0 1-2.08545-2.97152 17.53048 17.53048 0 0 1-1.18262-3.36965A15.75968 15.75968 0 0 1 171.53713 343.95619ZM176.87331 359.75127c1.50977.204 3.00977.36226 4.50122.52567 1.49414.1422 2.98364.27918 4.47412.32442a42.46576 42.46576 0 0 0 4.4607-.0633 27.07366 27.07366 0 0 0 4.4309-.74134 13.76434 13.76434 0 0 1-4.33154 1.51535 23.1909 23.1909 0 0 1-4.59741.288A27.37082 27.37082 0 0 1 176.87331 359.75127ZM167.79445 356.71815c.46631.86308.92993 1.69376 1.41553 2.49968a17.59391 17.59391 0 0 0 1.59839 2.27355 10.161 10.161 0 0 0 1.9834 1.84563 8.66005 8.66005 0 0 0 2.574 1.06709 5.053 5.053 0 0 1-2.95215-.38448 7.32847 7.32847 0 0 1-2.3728-1.88817 9.88927 9.88927 0 0 1-1.52441-2.56272A9.25817 9.25817 0 0 1 167.79445 356.71815ZM189.39138 368.41445a14.12076 14.12076 0 0 1-7.56983 3.08663 15.66332 15.66332 0 0 1-2.09131.04941c-.34814-.022-.69433-.08044-1.04052-.11936a5.26358 5.26358 0 0 1-1.02564-.19639 11.062 11.062 0 0 1-3.769-1.65617 21.53376 21.53376 0 0 0 3.90723.88814 16.55938 16.55938 0 0 0 3.92187.03973 22.14879 22.14879 0 0 0 3.87744-.73522A30.02546 30.02546 0 0 0 189.39138 368.41445ZM168.156 369.8074c.82251.915 1.45605 1.84847 2.13964 2.7437a20.96857 20.96857 0 0 0 2.217 2.5916 3.64751 3.64751 0 0 1-1.71044-.6957 6.33284 6.33284 0 0 1-1.30616-1.29625 7.54069 7.54069 0 0 1-.89575-1.57907A5.43336 5.43336 0 0 1 168.156 369.8074ZM180.73732 377.25659a9.50794 9.50794 0 0 1-2.06543 1.15783 12.75442 12.75442 0 0 1-2.2539.7178 9.18982 9.18982 0 0 1-2.38452.21765 4.14745 4.14745 0 0 1-2.30078-.68724 8.91143 8.91143 0 0 0 2.26782-.09241c.73608-.11135 1.47265-.24391 2.208-.41521C177.68874 377.85121 179.159 377.46913 180.73732 377.25659Z"></path>
  <path fill="#d6694b" d="M140.82,440.77972V446.126a1.85289,1.85289,0,0,0,1.83439,1.87085h36.75276a1.85289,1.85289,0,0,0,1.83438-1.87085v-4.927a1.85339,1.85339,0,0,0-1.81386-1.87073l-36.75276-.41936A1.8524,1.8524,0,0,0,140.82,440.77972Z"></path>
  <polygon fill="#e19974" points="142.574 447.997 143.881 475.591 177.316 475.591 179.487 447.997 142.574 447.997"></polygon>
  <path d="M158.72609,476.57055h-51.9873V294.52514h51.9873Zm-50.02832-1.959h48.06934V296.48412H108.69777Z"></path>
  <path d="M208.75441,476.57055h-51.9873V294.52514h51.9873Zm-50.02832-1.959h48.06934V296.48412H158.72609Z"></path>
  <path d="M258.44387,476.57055H206.45656V294.52514h51.98731Zm-50.02832-1.959h48.06933V296.48412H208.41555Z"></path>
  <path d="M308.47316,476.57055H256.48488V294.52514h51.98828Zm-50.02929-1.959h48.07031V296.48412H258.44387Z"></path>
  <path d="M358.25344,476.57055H306.26613V294.52514h51.98731Zm-50.02832-1.959h48.06933V296.48412H308.22512Z"></path>
  <path d="M408.28273,476.57055H356.29445V294.52514h51.98828Zm-50.02929-1.959h48.07031V296.48412H358.25344Z"></path>
  <path d="M457.97219,476.57055H405.98488V294.52514h51.98731Zm-50.02832-1.959H456.0132V296.48412H407.94387Z"></path>
  <path d="M508.00051,476.57055H456.0132V294.52514h51.98731Zm-50.02832-1.959h48.06933V296.48412H457.97219Z"></path>
  <path d="M557.79445,476.57055h-51.9873V294.52514h51.9873Zm-50.02832-1.959h48.06934V296.48412H507.76613Z"></path>
  <path d="M607.82277,476.57055h-51.9873V294.52514h51.9873Zm-50.02832-1.959h48.06934V296.48412H557.79445Z"></path>
</svg>