<svg xmlns="http://www.w3.org/2000/svg" id="man-watering-plants" viewBox="0 0 700 550">
  <path fill="#efedef" d="M427.7396,476.34584a3.03175,3.03175,0,0,0,.90442-.13854c16.07261-5.03618,30.54676-10.221,47.92734-19.98146,18.09-10.16,98.45-58.51,108.9-142.19a159.61541,159.61541,0,0,0-6.66-68.16c-3.23-9.47-9.93-28.49-26.84-47.3-20.7-23.04-44.32-31.97-58.17-37.02-29.14-10.63-53.58-10.07-65.22-9.69-12.56.41-34.73,1.33-59.93,12.34-16.44,7.18-26.66,15.37-41.72,27.61-23.86,19.41-27,27.49-68.74,67.57-11.46,11-20.88,19.67-35.26,28.21-9.97,5.92-18.03,9.23-32.9,15.27-36.55,14.85-46.95657,17.85676-58.91657,26.21676-23.26,16.27-21.75343,34.01324-22.75343,37.83324a75.12694,75.12694,0,0,0-1.77,29.97c3.05,20.07,13.86,33.19,20.57,41.13a113.09822,113.09822,0,0,0,32.9,26.44,209.09223,209.09223,0,0,0,26.446,11.7,3.05551,3.05551,0,0,0,1.05585.19Z"></path>
  <path fill="#efedef" d="M479.79258,462.16l-.49024-.87109c23.90039-13.42676,102.69727-63.7627,113.17774-147.73633a166.32655,166.32655,0,0,0-6.91309-70.77246c-2.97754-8.73243-9.95312-29.18262-27.84765-49.09571-21.9209-24.39062-46.94532-33.51855-60.38965-38.42187a174.02257,174.02257,0,0,0-67.74805-10.06836c-12.42383.4043-35.5498,1.15625-62.24316,12.81055l-.40039-.916c26.86914-11.73145,51.00976-12.5166,62.61035-12.89453a175.05674,175.05674,0,0,1,68.123,10.1289c13.52637,4.9336,38.70411,14.11719,60.792,38.69336,18.03125,20.06446,25.05273,40.65039,28.05078,49.44141a167.38065,167.38065,0,0,1,6.958,71.21777C582.93418,398.11512,503.79648,448.67566,479.79258,462.16Z"></path>
  <path fill="#8b9d36" d="M130.82261,383.52642c2.41169,1.874,6.66064,6.32428,6.77528,9.662,0,0,7.80885-8.49082,5.58874-15.75216a13.56165,13.56165,0,0,0-6.20117-6.24612s3.06212-1.7178,6.27749,2.49855c0,0-1.14821-11.39937-17.03351-7.26134,0,0-6.20116-12.64855-18.48824-.70275,0,0,8.268-1.054,6.66033,1.52258a24.03343,24.03343,0,0,0-8.249,4.16424,8.26519,8.26519,0,0,0-2.77521,5.77116c-.19127,3.08407-.48471,9.18707.11494,9.27173.80369.11708,6.08623-4.68463,9.64613-4.33325s-8.15339,10.89168-8.15339,10.89168,2.41169,9.13512,3.44527,9.018c1.03327-.11708,4.78475-2.73269,3.25338,0l-2.641,2.10809,3.445,4.76279,8.65086-3.8259s-3.8278-10.46231-.30622-7.61254c0,0,2.67928,3.55267,2.71759,6.2072,0,0,11.579-5.036,10.43081-8.491a77.6067,77.6067,0,0,0-4.37636-9.33671,3.94812,3.94812,0,0,1-.47848-1.65267C129.08752,383.31165,129.3171,382.35522,130.82261,383.52642ZM129.4,371.39841c1.08467-.74834,3.75148-.26686,4.753,2.17306,1.0719,2.60911,1.027,5.51749-.05732,6.26567-1.08466.74834-4.16609-.22763-4.938-2.75223C128.30283,374.27423,128.3156,372.14659,129.4,371.39841Z"></path>
  <path fill="#5e7c24" d="M126.22937,366.42729a42.86476,42.86476,0,0,0-3.41749,4.44335,26.03076,26.03076,0,0,0-2.42187,5.01465c-.6311,1.74927-1.13916,3.5437-1.59522,5.35816-.46215,1.81592-.90332,3.62988-1.27124,5.46191-.38989,1.82666-.73046,3.66553-1.00952,5.51172-.28711,1.84644-.45239,3.7041-.6792,5.571a31.1445,31.1445,0,0,1-3.30151,10.74073,37.41474,37.41474,0,0,0,1.83374-5.29859,29.8724,29.8724,0,0,0,.97485-5.49463,87.05622,87.05622,0,0,1,1.55176-11.16186c.38941-1.84009.85352-3.665,1.33447-5.4773a44.9164,44.9164,0,0,1,1.70118-5.38793,26.09965,26.09965,0,0,1,2.62158-5.01221A37.16329,37.16329,0,0,1,126.22937,366.42729Z"></path>
  <path fill="#5e7c24" d="M121.72009 372.3787a26.66374 26.66374 0 0 0-3.717 1.07031c-1.20826.43921-2.40235.91553-3.561 1.47242-2.3501 1.04931-4.57934 2.34008-6.854 3.60791.49658-.4209 1.01513-.81446 1.52929-1.217.53809-.36523 1.06812-.74682 1.61915-1.09619a33.51161 33.51161 0 0 1 3.437-1.87939 28.08828 28.08828 0 0 1 3.68042-1.35791A14.54294 14.54294 0 0 1 121.72009 372.3787ZM116.48645 390.49174c-.88965.68994-1.81592 1.25439-2.72022 1.8435q-.68005.43653-1.32812.90137a3.64432 3.64432 0 0 0-1.09888 1.14258 2.39935 2.39935 0 0 1 .76343-1.51709 7.73368 7.73368 0 0 1 1.31372-1.06738A9.47807 9.47807 0 0 1 116.48645 390.49174ZM118.25988 382.14945a30.54448 30.54448 0 0 1 2.92627 3.15625 37.07729 37.07729 0 0 1 2.51856 3.50269 24.78956 24.78956 0 0 1 1.96582 3.85473 11.737 11.737 0 0 1 .90332 4.2146 16.609 16.609 0 0 0-1.35889-4.01953 30.6661 30.6661 0 0 0-2.05664-3.70971c-.72192-1.22071-1.54468-2.38086-2.36475-3.54419C119.97058 384.44242 119.121 383.29691 118.25988 382.14945Z"></path>
  <path fill="#8b9d36" d="M107.66454,418.73948l3.21535,2.96695s3.13879-3.3183,3.4833-1.015c0,0-.49762,2.30329-1.11006,2.49849,0,0,7.69387,6.18766,9.24412,1.09309a49.14282,49.14282,0,0,1,2.3541-6.67565s1.72251.93693.22967,8.31528c0,0,5.95437-1.74977,8.1655-4.95984a2.29621,2.29621,0,0,0,.38895-1.28081c.02131-1.83519.26318-7.00034,2.35477-5.0611,0,0,1.20575.58558.28708,4.509,0,0,4.84585-5.46308,2.54407-8.8208a3.35734,3.35734,0,0,0-4.11676-1.08625c-1.34571.58416-3.84262,1.66-8.47527,3.64131A92.45656,92.45656,0,0,1,107.66454,418.73948Z"></path>
  <path fill="#5e7c24" d="M118.25988 423.26811a18.36012 18.36012 0 0 1 1.583-4.866 11.82255 11.82255 0 0 1 1.35938-2.20288 5.2755 5.2755 0 0 1 .93383-.92652 1.959 1.959 0 0 1 1.22339-.43725 3.51875 3.51875 0 0 0-1.74951 1.658 22.41915 22.41915 0 0 0-1.18872 2.1914C119.682 420.18778 119.0238 421.73612 118.25988 423.26811ZM128.7174 420.8477a15.2728 15.2728 0 0 1 .40772-4.499 11.541 11.541 0 0 1 .75171-2.1582 3.38769 3.38769 0 0 1 1.52-1.69727 4.61332 4.61332 0 0 0-1.05591 1.89038c-.22437.69434-.41724 1.40113-.59009 2.117C129.40222 417.93388 129.11291 419.38627 128.7174 420.8477ZM182.23 367.66021s-7.73215 1.10951-.84212 6.575c0 0 1.76079 1.48348 7.50249 3.20119C188.89039 377.43635 192.48851 361.788 182.23 367.66021Z"></path>
  <path fill="#50661a" d="M188.8905,377.43632c-.14331-.51245-.23706-1.02588-.366-1.53028-.16089-.49633-.27734-1.00146-.45337-1.48535a14.40043,14.40043,0,0,0-1.293-2.7727,10.9,10.9,0,0,0-1.94946-2.32666,9.248,9.248,0,0,0-2.59863-1.66113,6.54456,6.54456,0,0,1,2.91479,1.27,8.85186,8.85186,0,0,1,2.18018,2.37769,10.7815,10.7815,0,0,1,1.22632,2.97095c.14038.51513.19311,1.0498.282,1.571C188.85949,376.38187,188.89172,376.9102,188.8905,377.43632Z"></path>
  <path fill="#5e7c24" d="M172.41707,336.0444s8.5723-5.46149,11.13985,6.66537c0,0-4.44872-3.82925-4.50765-1.61407a16.97932,16.97932,0,0,1,3.227,5.74969,6.29575,6.29575,0,0,1-.6201,4.64846c-1.08966,1.98312-3.29121,5.87839-3.67815,5.702-.51807-.23612-1.75194-5.24253-3.981-6.392s.54852,9.88543.54852,9.88543-4.97626,4.73833-5.53806,4.26875-1.74836-3.5309-1.91268-1.249l.73143,2.321-3.88025,1.63013-3.59385-5.695s6.32577-5.0174,3.14577-4.60285c0,0-2.95883,1.17374-4.01555,2.80515,0,0-4.84339-7.57015-2.82246-9.27145a57.35656,57.35656,0,0,1,6.1944-4.1011,2.90276,2.90276,0,0,0,1.054-1.02849c.285-.491.34055-1.01439-.85242-.88343-2.14736.23573-6.37838,1.36346-7.74626,3.38909,0,0-1.28141-8.26436,2.85233-11.91423a9.54562,9.54562,0,0,1,6.078-1.49146s-1.13056-2.2413-4.66291-.86186C159.577,334.00457,164.693,327.377,172.41707,336.0444Z"></path>
  <path fill="#50661a" d="M176.25866 349.62089c-.6997-1.70508-1.3562-3.395-2.154-5.00659a14.55048 14.55048 0 0 0-1.387-2.27515 3.53141 3.53141 0 0 0-2.1355-1.47534 3.11758 3.11758 0 0 1 2.51221 1.14233 9.91078 9.91078 0 0 1 1.58593 2.31958A16.58374 16.58374 0 0 1 176.25866 349.62089ZM158.65075 353.70072a12.89156 12.89156 0 0 1 1.63867-2.65039 12.31273 12.31273 0 0 1 2.22364-2.22192 8.17526 8.17526 0 0 1 2.82226-1.44873 5.43443 5.43443 0 0 1 3.12451.10132 7.11485 7.11485 0 0 0-2.97461.37866 9.88233 9.88233 0 0 0-2.58081 1.48022 17.9 17.9 0 0 0-2.23632 2.03833C159.97424 352.12089 159.29211 352.88676 158.65075 353.70072Z"></path>
  <path fill="#50661a" d="M166.68908,337.14823a3.96931,3.96931,0,0,1,2.64673-1.55517,6.22663,6.22663,0,0,1,1.58472-.04224,8.86882,8.86882,0,0,1,1.55249.31958l.18872.05273-.07715.19458c-1.00146,2.5293-1.852,5.12769-2.69238,7.72022-.82227,2.60083-1.563,5.22607-2.28809,7.85571q-1.04589,3.95617-1.958,7.94824c-.61157,2.66114-1.14965,5.33838-1.70019,8.01832.33642-2.71387.74072-5.42261,1.27051-8.10816.48193-2.696,1.13623-5.35669,1.8-8.01318.66968-2.656,1.46509-5.27881,2.32129-7.88062.85108-2.60473,1.80445-5.17187,2.91162-7.68677l.11133.24707-.73144-.218c-.249-.04712-.49634-.10938-.74683-.15064a5.97337,5.97337,0,0,0-1.51782-.04907A4.00794,4.00794,0,0,0,166.68908,337.14823Z"></path>
  <path fill="#50661a" d="M169.33947,360.59159a14.19979,14.19979,0,0,0-1.0271-2.707,2.43563,2.43563,0,0,0-.87841-.94653,2.98478,2.98478,0,0,0-1.37159-.25562,2.01986,2.01986,0,0,1,1.56494-.20849,2.33506,2.33506,0,0,1,1.24146,1.08642A4.546,4.546,0,0,1,169.33947,360.59159Z"></path>
  <path fill="#c4ce6e" d="M140.7367,423.268s-1.52394-5.26049-5.3924-2.28652a7.76316,7.76316,0,0,0-2.68087,4.113c-.69767,2.51767-1.30072,7.08012.41768,13.55487,0,0,3.96025-5.47889,6.89-7.41738C143.27528,429.04574,145.40662,424.04876,140.7367,423.268Z"></path>
  <path fill="#8b9d36" d="M140.73669 423.26811a6.62751 6.62751 0 0 0-1.50244 1.54541 15.12653 15.12653 0 0 0-1.18482 1.80151 34.44986 34.44986 0 0 0-1.907 3.87939c-.58447 1.32227-1.08813 2.68018-1.58862 4.04224l-1.47266 4.11255c.12573-.72.29224-1.43067.4375-2.14819.16821-.71119.37744-1.41163.56446-2.11915.40673-1.40625.92138-2.77929 1.468-4.1416a27.29568 27.29568 0 0 1 2.08032-3.8872A8.81283 8.81283 0 0 1 140.73669 423.26811ZM146.32008 350.19354s.12906-5.48371-4.4466-3.861a7.62959 7.62959 0 0 0-3.78719 3.0779c-1.42021 2.17875-3.36442 6.33356-3.673 13.03393 0 0 5.41528-3.97855 8.78641-4.90872C147.00156 356.48659 150.5311 352.39551 146.32008 350.19354Z"></path>
  <path fill="#5e7c24" d="M146.32019,350.19364a6.51892,6.51892,0,0,0-1.89527,1.00122,14.85638,14.85638,0,0,0-1.67016,1.345,33.87486,33.87486,0,0,0-2.98072,3.0979c-.95312,1.07666-1.84033,2.21143-2.72534,3.35181l-2.6355,3.45483c.3357-.645.70728-1.26879,1.06079-1.90551.3733-.62378.78272-1.22486,1.1731-1.8396a43.36721,43.36721,0,0,1,2.64062-3.48316,26.89374,26.89374,0,0,1,3.14917-3.05346A8.67756,8.67756,0,0,1,146.32019,350.19364Z"></path>
  <path fill="#8b9d36" d="M180.85467,423.268s1.52394-5.26049,5.39241-2.28652a7.76328,7.76328,0,0,1,2.68087,4.113c.69766,2.51767,1.30072,7.08012-.41769,13.55487,0,0-3.96024-5.47889-6.89-7.41738C178.3161,429.04574,176.18476,424.04876,180.85467,423.268Z"></path>
  <path fill="#5e7c24" d="M180.85461,423.26811a8.81546,8.81546,0,0,1,3.10547,3.085,27.29425,27.29425,0,0,1,2.08008,3.8872c.54663,1.36231,1.06128,2.73535,1.468,4.1416.18726.70752.39649,1.408.56446,2.11915.1455.71752.31176,1.42822.43774,2.14819l-1.4729-4.11255c-.50024-1.36206-1.00415-2.72-1.58862-4.04224a34.48919,34.48919,0,0,0-1.90674-3.87939,15.09891,15.09891,0,0,0-1.18506-1.80151A6.62273,6.62273,0,0,0,180.85461,423.26811Z"></path>
  <path fill="#50661a" d="M158.29844,447.372l-.64258-.0332c3.17676-61.21191,12.05957-77.5918,18.95117-80.55371a5.67973,5.67973,0,0,1,5.832.62988l-.418.49024a5.02749,5.02749,0,0,0-5.17382-.52149C171.34727,369.76355,161.62363,383.3202,158.29844,447.372Z"></path>
  <path fill="#50661a" d="M159.80137 447.46277c-5.70215-16.16992 3.43457-77.25781 3.82617-79.85058l.63672.0957c-.09571.63379-9.50391 63.52246-3.85547 79.54ZM156.13926 447.43348c-.05176-.209-5.291-20.95313-11.99512-23.96778a3.53209 3.53209 0 0 0-3.25781.08789l-.29883-.57031a4.18682 4.18682 0 0 1 3.82129-.10449c6.9873 3.1416 12.13965 23.53223 12.35547 24.39844Z"></path>
  <path fill="#50661a" d="m157.79648 438.85145-.64257-.03711c.0498-.85059 4.84179-85.082-6.28125-90.043-1.23926-.55078-2.69434.00293-4.32422 1.64843l-.457-.45312c1.83691-1.85547 3.53418-2.4541 5.043-1.7832C162.66074 353.32312 158.00059 435.36219 157.79648 438.85145ZM165.45176 447.43348l-.625-.15625c.21582-.86621 5.36816-21.25684 12.35547-24.39844a4.18572 4.18572 0 0 1 3.82226.10449l-.29883.57031a3.528 3.528 0 0 0-3.25878-.08789C170.7418 426.48133 165.50352 447.22449 165.45176 447.43348Z"></path>
  <path fill="#50661a" d="M158.79258 446.74891c-4.33106-23.74219-10.75391-32.29786-15.37988-35.29493-2.95606-1.916-5.03516-1.43359-5.05469-1.43164l-.1543-.625c.0957-.02539 2.37012-.55078 5.55957 1.51563 4.73242 3.0664 11.291 11.752 15.66406 35.7207ZM161.09238 446.76941c-14.33008-57.53906-18.40332-61.623-18.56933-61.76855l.37695-.52149c.16406.1084 4.17773 3.35059 18.81738 62.13379ZM164.00352 447.372l-.64258-.0332c1.34472-25.82422 15.85449-49.06934 16.001-49.30078l.54493.34375C179.76133 398.61219 165.34043 421.71961 164.00352 447.372Z"></path>
  <path fill="#d6694b" d="M140.81326,440.53469V445.881a1.85289,1.85289,0,0,0,1.83439,1.87085h36.75276a1.85289,1.85289,0,0,0,1.83438-1.87085v-4.927a1.85338,1.85338,0,0,0-1.81386-1.87073l-36.75276-.41936A1.85239,1.85239,0,0,0,140.81326,440.53469Z"></path>
  <polygon fill="#e19974" points="142.568 447.752 143.875 475.346 177.309 475.346 179.481 447.752 142.568 447.752"></polygon>
  <path fill="#5e7c24" d="M173.61743,396.63691c.05108-2.51792,5.257,2.04964,5.257,2.04964-3.10074-13.91745-13.00822-8.11372-13.00822-8.11372-9.05924-10.228-14.94111-2.93427-14.94111-2.93427,4.08915-1.399,5.42271,1.2036,5.42271,1.2036a10.888,10.888,0,0,0-7.04972,1.40534c-4.76543,3.956-3.20229,13.41644-3.20229,13.41644,1.56938-2.23819,6.48153-3.31837,8.96953-3.48738,1.56314-.10421,1.28871.66367.86786,1.24919a3.1611,3.1611,0,0,1-1.06535.91084,62.50825,62.50825,0,0,0-7.17712,4.37885c-2.33506,1.83487,3.36832,10.67723,3.36832,10.67723,1.21208-1.8023,4.638-2.99955,4.638-2.99955,3.69385-.31881-3.611,5.08811-3.611,5.08811l4.22964,6.6496,4.49785-1.67221-.87409-2.67407c.17226-2.58957,1.57591.94992,2.23288,1.50939.657.56614,6.39867-4.587,6.39867-4.587s-3.33-12.68763-.7336-11.26926c2.60295,1.41185,4.08292,7.16364,4.68911,7.4564.45293.22128,2.973-4.10563,4.22341-6.31125a6.899,6.899,0,0,0,.67628-5.25078A20.51143,20.51143,0,0,0,173.61743,396.63691Zm-14.5265-.104c-1.65878,1.37278-4.21064.61157-4.61872-.40983-.41492-1.01505.85478-3.03863,2.75591-4.3269,1.78-1.21028,3.82779-.30579,4.23618.71577C161.87891,393.52679,160.93474,394.99742,159.09093,396.53286Z"></path>
  <path fill="#50661a" d="M165.86462,390.57279a31.01281,31.01281,0,0,1,.646,4.605,21.59119,21.59119,0,0,1-.41407,4.65406,35.87775,35.87775,0,0,1-1.22876,4.5c-.47851,1.47046-.97387,2.94336-1.52807,4.39355a70.36454,70.36454,0,0,1-3.949,8.418,24.45116,24.45116,0,0,0-1.80371,4.22681,31.44826,31.44826,0,0,0-1.13476,4.48071,25.35348,25.35348,0,0,1,2.49658-8.93213,80.00746,80.00746,0,0,0,3.79077-8.42554c.56763-1.43115,1.07642-2.88305,1.573-4.34594.5-1.459.94946-2.927,1.30127-4.417a21.53318,21.53318,0,0,0,.58276-4.54809A37.099,37.099,0,0,0,165.86462,390.57279Z"></path>
  <path fill="#50661a" d="M166.30114 396.7559a11.728 11.728 0 0 1 2.42847 2.18286 20.65655 20.65655 0 0 1 1.9314 2.64209 23.95218 23.95218 0 0 1 1.5122 2.89551 21.63383 21.63383 0 0 1 1.08325 3.07324L171.722 404.698c-.5227-.93775-1.04077-1.874-1.60913-2.7793q-.83752-1.366-1.77466-2.66748A25.05529 25.05529 0 0 0 166.30114 396.7559ZM161.79943 411.62724a7.12 7.12 0 0 1 1.57837 2.29394 6.13323 6.13323 0 0 1 .41553 1.35327 1.9729 1.9729 0 0 1-.19678 1.41529 3.30033 3.30033 0 0 0-.2893-1.28614c-.16651-.40844-.33789-.81616-.51929-1.22412A21.13482 21.13482 0 0 1 161.79943 411.62724ZM164.31018 405.074l-3.27 1.23731c-1.07959.42407-2.15454.854-3.20069 1.34131a28.5727 28.5727 0 0 0-3.06811 1.58008 13.94767 13.94767 0 0 0-2.75318 2.09008 9.12063 9.12063 0 0 1 2.47681-2.51 17.82375 17.82375 0 0 1 3.07837-1.74658A25.31889 25.31889 0 0 1 164.31018 405.074Z"></path>
  <path fill="#c4ce6e" d="M196.71882,380.90444s7.4681-11.15591,16.80819,2.01815c0,0-7.31492-2.20688-6.24233.483a21.73688,21.73688,0,0,1,6.84,5.16733,8.22334,8.22334,0,0,1,1.65506,5.91113c-.28407,2.96476-.91553,8.82106-1.47089,8.81715-.74356-.00523-4.80815-5.35061-8.07637-5.53325s5.76035,11.56823,5.76035,11.56823-3.526,8.35757-4.44257,8.09567-3.92045-3.29854-2.93989-.472l2.07564,2.39252-3.815,4.03929-7.252-4.90477s5.00143-9.41694,1.39934-7.21229c0,0-2.94486,2.99695-3.37093,5.522,0,0-9.71929-6.48415-8.17223-9.61067a76.8199,76.8199,0,0,1,5.30667-8.2329,3.94145,3.94145,0,0,0,.74055-1.7861c.09694-.75348-.09438-1.438-1.47543-.63038-2.4552,1.43568-6.95046,5.06039-7.54646,8.22553,0,0-5.80315-9.22946-2.72638-15.82856a12.74924,12.74924,0,0,1,6.52393-5.05274s-2.51349-2.08266-6.04041,1.469C180.25764,385.34979,182.9763,374.65013,196.71882,380.90444Z"></path>
  <path fill="#8b9d36" d="M196.71887,380.90434a80.793,80.793,0,0,1,3.23,10.30786c.87622,3.49731,1.5542,7.0437,2.0852,10.61059a106.39126,106.39126,0,0,1,1.00147,10.76758,92.576,92.576,0,0,1-.16455,10.80127c-.02832-3.60034-.04639-7.19311-.33033-10.77417q-.34058-5.37341-1.14331-10.7019c-.47534-3.55762-1.15942-7.084-1.92871-10.59058C198.69494,387.81913,197.80236,384.33622,196.71887,380.90434Z"></path>
  <path fill="#8b9d36" d="M198.58288 386.84281a17.16721 17.16721 0 0 0-1.614 2.39478 26.10235 26.10235 0 0 0-1.26685 2.5686c-.37646.87842-.70386 1.77808-1.00708 2.69068-.30029.91381-.56885 1.8413-.85449 2.77954a15.3622 15.3622 0 0 1 .36963-2.91333 16.63058 16.63058 0 0 1 .8999-2.81006 14.61461 14.61461 0 0 1 1.43677-2.585A8.817 8.817 0 0 1 198.58288 386.84281ZM201.6903 401.61869a7.38184 7.38184 0 0 1 4.75366 3.48169 6.04308 6.04308 0 0 1 .71729 1.87207 16.40345 16.40345 0 0 0-2.41333-3A18.285 18.285 0 0 0 201.6903 401.61869Z"></path>
  <path fill="#f9977a" d="M226.68287,429.92028,202.97429,417.2848s-9.965,11.8689,2.55436,25.95l14.61413,5.81717Z"></path>
  <path fill="#935b50" d="M215.51116,424.01659S204.7613,408.16581,194.38292,411.902a3.68744,3.68744,0,0,0-2.26093,2.40743L174.90645,471.0997a1.93462,1.93462,0,0,0,1.50319,2.45861c3.03764.58241,8.773.853,12.92635-3.93914,5.90533-6.81371,1.38528-14.33963,16.75869-23.99368C206.09468,445.62549,206.46459,427.06691,215.51116,424.01659Z"></path>
  <path fill="#376f92" d="M291.63712,473.90233c42.86506,7.742,13.83655-38.38,13.72608-38.6034,0,0-40.90864-84.12423-41.29948-84.67772-13.92459-19.71946-32.959-12.26825-33.13389-12.16566-22.94594,13.46062-27.5889,32.93642-15.63168,50.26591.11022.15974-1.89638,1.43543-1.67531,1.74827,12.13126,17.16761,37.8779,35.6164,54.84716,48.02358l-42.27638-10.7867-9.00741,20.59161C222.19209,450.24042,291.22515,473.82792,291.63712,473.90233Z"></path>
  <polygon fill="#10394f" points="267.051 410.024 274.937 421.248 282.777 432.503 298.427 455.034 298.779 455.541 298.173 455.418 278.874 451.511 259.589 447.535 240.305 443.559 221.038 439.493 240.364 443.267 259.671 447.133 278.978 450.998 298.272 454.932 298.018 455.316 282.496 432.697 274.751 421.376 267.051 410.024"></polygon>
  <path fill="#376f92" d="M351.40394,398.59047c13.63605-23.95739-3.34379-34.72495-20.20906-37.804q-.37425-.06832-.7436-.12639s-94.96529-10.69052-95.64286-10.69072c-24.14024-.007-29.01746,19.84119-29.05592,20.04026-5.19043,26.86644,10.97888,41.53816,32.03194,41.7728.19406.00216.48894.00325.872.00323a194.04447,194.04447,0,0,0,61.82655-10.1342l14.91573-5.01491-24.5591,33.54372,21.358,12.34545C316.67254,439.55817,350.30865,400.5148,351.40394,398.59047Z"></path>
  <path fill="#f9977a" d="M290.9075,430.22555l-14.94022,20.76036s10.43073,9.51591,26.69746.00774l7.91155-9.39907Z"></path>
  <path fill="#935b50" d="M275.96728,447.75187s-14.05558,17.69286-4.511,26.018l67.10166.01943s5.45818-9.5454-2.86033-13.02421-8.11647,5.31811-32.28613-10.81647C303.41148,449.94861,281.69326,455.39111,275.96728,447.75187Z"></path>
  <path fill="#10394f" d="M204.81823,381.618l23.68872-.13062,23.68872-.04321,47.37745-.081,23.68872.05346c.99121.01294,1.96435-.01928,2.9707.03052a7.0063,7.0063,0,0,1,2.93213.76392,6.9012,6.9012,0,0,1,2.346,1.91528,6.98432,6.98432,0,0,1,1.36865,2.69727,7.10569,7.10569,0,0,1-.95532,5.82788c-1.12476,1.63867-2.28931,3.22119-3.43189,4.83447l-13.77612,19.271L300.8673,435.9766l13.623-19.38013,13.69507-19.32861c1.13257-1.61279,2.30249-3.217,3.40454-4.83642a6.69233,6.69233,0,0,0,.88013-5.49707,6.5571,6.5571,0,0,0-1.29907-2.53492,6.461,6.461,0,0,0-2.20826-1.78906c-1.7102-.936-3.73047-.69092-5.70117-.72241l-23.68872.03955-47.37744-.1084-23.68848-.05688Z"></path>
  <path fill="#10394f" d="M233.65686 411.54423c4.90576.21753 9.81591.123 14.71386-.09619 4.89746-.23462 9.791-.59424 14.65552-1.20728q7.30554-.832 14.53272-2.23755c4.82519-.8833 9.58886-2.06176 14.34472-3.28637-2.35962.6726-4.69775 1.439-7.08081 2.03637-2.38257.60034-4.76733 1.19629-7.17847 1.67652-4.80639 1.03589-9.67334 1.772-14.55249 2.37231-4.88378.56763-9.79126.937-14.70507 1.07886-2.45679.07178-4.9148.08081-7.37159.05029C238.559 411.85966 236.10314 411.76176 233.65686 411.54423ZM298.0697 420.30521c-1.16236 1.677-2.29737 3.37427-3.48242 5.03467-1.18213 1.6626-2.34278 3.34082-3.54737 4.98682l-.07617-.36108 5.35669 3.05664 5.323 3.11523c1.77929 1.0293 3.533 2.10327 5.29785 3.1582 1.76807 1.04908 3.50317 2.15528 5.25635 3.23-1.8064-.98266-3.63086-1.93432-5.42261-2.94262-1.79468-1.00269-3.60083-1.98633-5.38086-3.01441L296.038 433.511l-5.32227-3.116-.23852-.13965.16235-.22168c1.20532-1.64575 2.45459-3.259 3.68237-4.88818C295.547 423.51444 296.82189 421.92 298.0697 420.30521ZM239.59167 381.628a29.5514 29.5514 0 0 0 1.72119-4.69971 28.76626 28.76626 0 0 0 .97583-4.88672 19.043 19.043 0 0 0-1.21753-9.71386 16.48971 16.48971 0 0 0-6.40845-7.33057A32.01685 32.01685 0 0 0 225.504 351.094a28.64974 28.64974 0 0 1 9.39258 3.53614 16.27417 16.27417 0 0 1 3.91309 3.21753A15.53158 15.53158 0 0 1 241.59 362.104a19.05831 19.05831 0 0 1 1.12866 9.99073A28.57232 28.57232 0 0 1 239.59167 381.628Z"></path>
  <path fill="#f9977a" d="M281.17319,386.92824s5.83291-.25054,15.7664,7.943,16.87754,15.70052,8.74138,11.67541l-6.14922-3.16993s4.513,9.31754,7.68765,14.63287a7.66661,7.66661,0,0,1-.75622,9.09111c-2.08051,2.26908-4.54522,2.40607-9.37773-2.99317-7.22769-8.07531-10.09639-12.26128-11.29745-14.77744-.4161-.8717-2.53566-3.92925-2.53566-3.92925Z"></path>
  <path fill="#dd765e" d="M296.35705 397.97025a10.14456 10.14456 0 0 1 1.99219 2.46314 8.96971 8.96971 0 0 1 1.18262 2.94336 15.01451 15.01451 0 0 1-1.86011-2.5398A12.87415 12.87415 0 0 1 296.35705 397.97025ZM299.21911 411.11527c.77954 1.03345 1.51245 2.08789 2.24854 3.13868l2.19287 3.15332q1.08654 1.57945 2.20752 3.13232c.75219 1.03247 1.52319 2.04761 2.35009 3.04346a17.77713 17.77713 0 0 1-2.82373-2.66431 32.723 32.723 0 0 1-2.38159-3.062c-.731-1.06543-1.42895-2.15186-2.05615-3.28027A32.68922 32.68922 0 0 1 299.21911 411.11527ZM296.45007 413.74418l2.2539 3.57275c.75855 1.18018 1.50928 2.36036 2.29981 3.51075.77124 1.1643 1.60449 2.28051 2.47217 3.365a18.40361 18.40361 0 0 0 1.38769 1.55346l.75879.71924c.28.20313.55957.41382.84082.6355a10.01515 10.01515 0 0 1-3.4397-2.50342 23.92368 23.92368 0 0 1-2.67163-3.32617 35.71677 35.71677 0 0 1-2.17163-3.65308A31.49385 31.49385 0 0 1 296.45007 413.74418ZM294.462 416.80668c1.30884 1.97485 2.541 3.95483 3.84277 5.89209 1.29395 1.94556 2.65381 3.81689 4.12916 5.67114a20.93833 20.93833 0 0 1-4.78443-5.23266A27.51669 27.51669 0 0 1 294.462 416.80668Z"></path>
  <path fill="#d6694b" d="M282.78291,236.36066h-134.532V83.65416h134.532Zm-129.75165-4.7796H278.00254V88.43376H153.03126Z"></path>
  <rect width="143.967" height="7.155" x="143.533" y="236.403" fill="#935b50" rx="1.291"></rect>
  <rect width="124.971" height="5.724" x="153.031" y="134.51" fill="#e19974"></rect>
  <rect width="58.919" height="1" x="164.706" y="179.912" fill="#e19974" transform="rotate(-43.892 194.166 180.412)"></rect>
  <rect width="48.558" height="1.001" x="166.454" y="159.293" fill="#e19974" transform="rotate(-42.785 190.733 159.793)"></rect>
  <polygon fill="#e19974" points="260.556 231.581 246.419 231.581 241.656 206.547 265.319 206.547 260.556 231.581"></polygon>
  <polygon fill="#d6694b" points="264.775 209.404 265.319 206.547 241.656 206.547 242.2 209.404 264.775 209.404"></polygon>
  <rect width="4.223" height="4.223" x="245.438" y="219.713" fill="#d6694b" transform="rotate(45 247.55 221.825)"></rect>
  <rect width="4.223" height="4.223" x="251.41" y="219.713" fill="#d6694b" transform="rotate(45 253.522 221.825)"></rect>
  <rect width="4.223" height="4.223" x="257.314" y="219.713" fill="#d6694b" transform="rotate(45 259.426 221.825)"></rect>
  <path fill="#558031" d="M258.99435,185.47819s1.24137,17.53747-6.03438,21.25414C252.96,206.73233,250.44112,200.08328,258.99435,185.47819Z"></path>
  <path fill="#849f4c" d="M235.51688,193.01153s11.90278,2.05371,17.44309,13.7208C252.96,206.73233,239.871,202.28677,235.51688,193.01153Z"></path>
  <path fill="#a6b862" d="M239.73729,215.98327s6.05338-9.05609,13.22268-9.25094C252.96,206.73233,251.88066,214.02416,239.73729,215.98327Z"></path>
  <path fill="#849f4c" d="M247.20424,187.978s8.39909,7.66866,5.75573,18.75437C252.96,206.73233,248.30717,201.80044,247.20424,187.978Z"></path>
  <path fill="#a6b862" d="M252.96,206.73233s2.9509-10.802,17.86843-13.572C270.8284,193.16035,267.4713,202.99579,252.96,206.73233Z"></path>
  <path fill="#849f4c" d="M274.78009,203.9086s-11.38165-4.69218-21.82012,2.82373C252.96,206.73233,266.8368,208.39838,274.78009,203.9086Z"></path>
  <path fill="#558031" d="M274.67655 214.8325s-5.49567-8.80276-21.71658-8.10017ZM229.38616 205.30746s14.94766-5.54253 23.76941 1.15986C253.15557 206.46732 244.77908 211.08118 229.38616 205.30746Z"></path>
  <path fill="#558031" d="M241.64361,189.25856S254.98147,198.692,253.06813,206.74C253.06813,206.74,243.81474,199.32075,241.64361,189.25856Z"></path>
  <path fill="#849f4c" d="M265.04063,216.12184s-10.99554-1.87718-12.08066-9.38951C252.96,206.73233,260.9941,207.13026,265.04063,216.12184Z"></path>
  <path fill="#ffba55" d="M212.54942,87.65416s-12.4869,56.42314-55.51816,80.64449c0,0,33.95474,47.46368,37.70174,75.68252H152.25089V87.65416Z"></path>
  <path fill="#e6952a" d="M157.03137 168.3599a5.44363 5.44363 0 0 1-2.39038.49976 5.38542 5.38542 0 0 1-2.39014-.49976 5.38179 5.38179 0 0 1 2.39014-.49951A5.44681 5.44681 0 0 1 157.03137 168.3599ZM162.4801 154.07646c1.635-2.06128 3.26147-4.12574 4.8291-6.23511 1.59741-2.08521 3.16724-4.19165 4.68921-6.3313 3.05371-4.26978 6.08887-8.55542 8.85058-13.01563 2.81592-4.42236 5.49341-8.93725 7.8606-13.614.63965-1.14624 1.14111-2.35718 1.71924-3.53394l.84057-1.77807.74268-1.81909c.47827-1.21851 1.06348-2.40357 1.45581-3.65479l1.26514-3.73462A74.187 74.187 0 0 1 189.39978 115.22q-.86389 1.77942-1.75708 3.54639c-.61475 1.16674-1.272 2.31006-1.906 3.46655-.625 1.16235-1.30273 2.293-1.98535 3.4209-.688 1.12427-1.332 2.2771-2.05933 3.37646q-4.27038 6.65735-9.0791 12.93677C169.40026 146.14018 166.07067 150.22636 162.4801 154.07646ZM165.36 131.34159c.91846-2.35229 1.93555-4.65649 2.96753-6.95337 1.02173-2.30176 2.114-4.56933 3.20679-6.83667 1.11377-2.25683 2.22973-4.51269 3.415-6.73486l1.781-3.33154c.62671-1.09449 1.22241-2.20386 1.87622-3.28516-.45019 1.18066-.95825 2.33276-1.43554 3.50024l-1.53052 3.45386c-1.02246 2.30152-2.1145 4.56909-3.20825 6.83594-1.115 2.2561-2.23047 4.51245-3.41651 6.73413C167.84 126.95072 166.64929 129.17021 165.36 131.34159ZM155.72473 131.34159c.3601-3.09912.82812-6.17847 1.31225-9.25464.47315-3.07837 1.02344-6.14233 1.574-9.20654.574-3.05981 1.1499-6.11914 1.802-9.16455l.98169-4.56738c.363-1.51587.69238-3.03809 1.08545-4.54859-.17017 1.55152-.40357 3.09131-.60352 4.63721l-.707 4.61792c-.47388 3.07812-1.02368 6.14233-1.57568 9.20605-.5752 3.05957-1.15088 6.11914-1.80371 9.16431C157.14855 125.27274 156.4906 128.31718 155.72473 131.34159ZM159.10241 184.81522c2.72681 4.27222 5.26123 8.66309 7.70508 13.10328 2.44531 4.44043 4.72656 8.97 6.92773 13.54028 2.11963 4.60767 4.16211 9.26147 5.8379 14.06055a74.995 74.995 0 0 1 2.14013 7.31836 24.53449 24.53449 0 0 1 .687 7.56567 26.30665 26.30665 0 0 0-1.16284-7.44751c-.66064-2.4314-1.48755-4.81689-2.387-7.17334-1.81275-4.70923-3.83618-9.34058-6.019-13.89819-2.11744-4.58936-4.40577-9.09937-6.70069-13.60743q-1.71276-3.38562-3.49219-6.739ZM157.03137 201.35526c.206 3.25025.30273 6.50074.38281 9.75122.09131 3.25049.10425 6.501.1167 9.75147-.01123 3.25049-.02442 6.501-.115 9.75122l-.13941 4.87573c-.08325 1.62525-.13183 3.25049-.24511 4.87573-.11353-1.62524-.16211-3.25048-.24512-4.87573l-.13965-4.87573c-.09057-3.25024-.10376-6.50073-.115-9.75122.01245-3.25049.02539-6.501.1167-9.75147C156.72839 207.856 156.82507 204.60551 157.03137 201.35526ZM162.4801 207.58231c.95483 2.47071 1.74829 4.99512 2.49145 7.5337.75318 2.53686 1.37769 5.10986 1.9502 7.69531a76.20008 76.20008 0 0 1 1.30054 7.84375c.14721 1.31909.2268 2.647.28588 3.97314l-.04687 1.99439c-.04175.66357-.13941 1.32422-.22119 1.97729l-.04395-1.97729-.17724-1.96314c-.15723-1.30542-.32056-2.60571-.5586-3.89966-.46-2.58618-.94067-5.17016-1.51587-7.73876-.54419-2.57447-1.14013-5.13941-1.71411-7.7129l-.89013-3.85546Z"></path>
  <polygon fill="#935b50" points="541.99 475.346 500.112 475.346 486.003 401.186 556.099 401.186 541.99 475.346"></polygon>
  <polygon fill="#d6694b" points="554.489 409.651 556.1 401.186 486.003 401.186 487.614 409.651 554.489 409.651"></polygon>
  <rect width="12.511" height="12.511" x="497.205" y="440.19" fill="#d6694b" transform="rotate(45 503.46 446.445)"></rect>
  <rect width="12.511" height="12.511" x="514.897" y="440.19" fill="#d6694b" transform="rotate(45 521.153 446.445)"></rect>
  <rect width="12.511" height="12.511" x="532.386" y="440.19" fill="#d6694b" transform="rotate(45 538.642 446.445)"></rect>
  <path fill="#558031" d="M537.3637,338.774s3.67733,51.95177-17.87584,62.96177C519.48786,401.73574,512.0262,382.039,537.3637,338.774Z"></path>
  <path fill="#849f4c" d="M467.8157,361.0902s35.26,6.08377,51.67216,40.64554C519.48786,401.73574,480.71392,388.56653,467.8157,361.0902Z"></path>
  <path fill="#a6b862" d="M480.318,429.14007s17.93209-26.82713,39.16991-27.40433C519.48786,401.73574,516.29061,423.33653,480.318,429.14007Z"></path>
  <path fill="#849f4c" d="M502.43749,346.17911s24.88088,22.7171,17.05037,55.55663C519.48786,401.73574,505.70476,387.12584,502.43749,346.17911Z"></path>
  <path fill="#a6b862" d="M519.48786,401.73574s8.74156-31.99922,52.93219-40.20469C572.42,361.53105,562.47521,390.66687,519.48786,401.73574Z"></path>
  <path fill="#849f4c" d="M584.12625,393.37091s-33.71621-13.89978-64.63839,8.36483C519.48786,401.73574,560.59561,406.67111,584.12625,393.37091Z"></path>
  <path fill="#558031" d="M583.81952 425.73111s-16.28-26.0767-64.33166-23.99537ZM449.6545 397.51481s44.27987-16.41882 70.4128 3.43586C520.0673 400.95067 495.25339 414.61846 449.6545 397.51481Z"></path>
  <path fill="#558031" d="M485.96508,349.97267s39.51112,27.945,33.84319,51.78578C519.80827,401.75845,492.39669,379.78019,485.96508,349.97267Z"></path>
  <path fill="#849f4c" d="M555.27477,429.55055s-32.57242-5.56082-35.78691-27.81481C519.48786,401.73574,543.2876,402.91453,555.27477,429.55055Z"></path>
  <path fill="#7ca1b1" d="m493.8043 295.55262-.9336-.81641c.03223-.03711.82129-.9375 2.1836-2.21777l.84961.90429C494.59043 294.65613 493.81211 295.54383 493.8043 295.55262ZM535.56113 355.66l-1.24023-.00391.001-.7666q.00146-2.7832-.03614-5.42969l1.24024-.01757q.03661 2.65575.03613 5.44726Zm-1.418-12.39453q-.10107-3.20069-.25976-6.18457l1.23828-.06641q.15821 2.99853.26172 6.21192Zm-.66015-12.36133c-.165-2.1084-.35645-4.18066-.57031-6.15918l1.23242-.13281c.21582 1.99023.40918 4.07519.57422 6.19629Zm-1.34571-12.29c-.30957-2.11523-.65625-4.16309-1.03222-6.08691l1.2168-.23828c.37988 1.94335.73046 4.01074 1.042 6.1455Zm-2.39746-12.09766c-.55175-2.09765-1.16113-4.07324-1.81347-5.86914l1.166-.42382c.66407 1.832 1.28614 3.84375 1.84668 5.97851Zm-4.26074-11.46679a26.036 26.036 0 0 0-3.37695-5.00293l.93164-.82031a27.3061 27.3061 0 0 1 3.541 5.24316Zm-24.83594-5.48047-.707-1.01953a30.01432 30.01432 0 0 1 5.53125-3.07715l.47461 1.14648A28.7402 28.7402 0 0 0 500.64316 289.56922Zm16.8125-3.167a11.95361 11.95361 0 0 0-5.71484-1.15918l-.05078-1.23828a13.16368 13.16368 0 0 1 6.30469 1.28027ZM535.4459 365.05359l-1.24024-.02734q.0337-1.54541.0586-3.05273l1.24023.01953Q535.47959 363.50624 535.4459 365.05359ZM496.40977 303.4198l-.76954-.97265a9.98553 9.98553 0 0 1 2.90235-1.48828l.3789 1.18164A8.89006 8.89006 0 0 0 496.40977 303.4198ZM512.35215 344.22742l-1.23828-.06445c.11133-2.14258.19336-4.23242.24414-6.21094l1.24023.03125C512.54648 339.97254 512.46445 342.0741 512.35215 344.22742Zm-.93262-12.48535c-.0166-2.1709-.07812-4.25684-.18164-6.2002l1.23828-.0664c.10449 1.96289.166 4.06738.1836 6.25683Zm-.69922-12.36816a59.41153 59.41153 0 0 0-1.01758-6.07715l1.209-.27539a60.83623 60.83623 0 0 1 1.041 6.20605Zm-2.88672-11.876a11.16738 11.16738 0 0 0-3.5039-4.65332l.709-1.01758a12.362 12.362 0 0 1 3.92383 5.15723ZM511.71738 353.54969l-1.23633-.10157q.12891-1.55126.23829-3.04394l1.23632.0918Q511.8458 351.993 511.71738 353.54969ZM487.527 289.51746l-1.14453-.47851c.01856-.04493.47168-1.12208 1.3291-2.80079l1.10352.56446C487.982 288.43445 487.53086 289.50672 487.527 289.51746ZM533.69688 291.1073c-1.05079-1.99511-2.12012-3.88476-3.17676-5.61621l1.05859-.64648c1.07031 1.75391 2.15234 3.667 3.21582 5.68457Zm-41.65625-9.85839-1.03711-.68164a47.22137 47.22137 0 0 1 3.96582-5.24707l.93164.81835A45.92942 45.92942 0 0 0 492.04063 281.24891Zm34.90136-1.10645a47.7522 47.7522 0 0 0-4.12109-4.90039l.88867-.86523a49.06683 49.06683 0 0 1 4.22949 5.02734Zm-26.39648-8.33691-.73438-1a18.79736 18.79736 0 0 1 5.959-3.0166l.33789 1.19335A17.5669 17.5669 0 0 0 500.54551 271.80555Zm17.415-.63379a16.6218 16.6218 0 0 0-5.72168-2.43555l.24609-1.21484a17.86019 17.86019 0 0 1 6.15137 2.60937ZM537.8502 299.71668q-.63574-1.4253-1.26368-2.77441l1.12305-.52344q.63428 1.3579 1.27344 2.79394ZM514.42051 298.79285a6.83493 6.83493 0 0 0-1.99707-1.88769l.5166-1.12793a7.54541 7.54541 0 0 1 2.45508 2.248ZM523.26133 355.50086l-1.23828-.06641q.16113-3.01319.2539-5.82519l1.24024.041Q523.4205 352.476 523.26133 355.50086Zm.3916-11.707-1.24023-.01367q.01611-1.44727.0166-2.83594 0-1.52929-.02051-2.99121l1.24023-.01758q.02052 1.47071.02051 3.00879Q523.66953 342.34021 523.65293 343.79383Zm-1.40723-11.66309c-.08886-2-.209-3.95508-.3584-5.80957l1.23633-.09961c.15039 1.87012.27149 3.83985.36035 5.85449Zm-.9541-11.59375c-.25488-2.00293-.55664-3.93262-.89746-5.73437l1.21875-.23047c.3457 1.82617.65137 3.78027.90918 5.80859Zm-2.19922-11.374a43.78378 43.78378 0 0 0-1.877-5.44141l1.14062-.48828a45.22819 45.22819 0 0 1 1.93165 5.59766ZM522.67832 364.41785l-1.23633-.0957q.12012-1.544.22461-3.04395l1.23633.08594Q522.79892 362.86854 522.67832 364.41785ZM536.53281 309.02527c-.47265-1.88183-.78515-2.90527-.78808-2.915l1.18554-.36328c.0127.042.32422 1.05957.80567 2.97559ZM541.83359 374.40223l-1.23437-.125c.21777-2.1543.4043-4.35645.55469-6.54493l1.23632.084C542.23984 370.01844 542.05234 372.23426 541.83359 374.40223Zm.90137-13.1836-1.24023-.04492c.0791-2.167.123-4.377.13183-6.56836l1.24024.00586C542.858 356.81531 542.81309 359.038 542.735 361.21863ZM541.54844 348.037c-.05957-2.18066-.15625-4.38965-.28516-6.56445l1.23828-.07422c.12989 2.18945.22657 4.41113.28711 6.60352Zm-.78028-13.11719c-.20117-2.17675-.43945-4.375-.71-6.53125l1.23047-.15429c.27149 2.16992.51172 4.38086.71387 6.57226Zm-1.63867-13.03515c-.35449-2.2002-.74609-4.374-1.16406-6.46289l1.2168-.24414c.4209 2.10449.81445 4.29492 1.17187 6.50976ZM540.62559 384.01941l-1.22657-.18359q.22706-1.51758.42871-3.0166l1.22852.166Q540.85409 382.49257 540.62559 384.01941ZM501.48691 318.787c-.21386-1.93554-.3955-2.97656-.39648-2.9873l1.2207-.21485c.00782.043.18946 1.085.40821 3.06543ZM502.66367 349.99988l-1.23437-.11133c.15429-1.72558.28906-3.46875.39746-5.17968l1.23828.07812C502.95469 346.50965 502.81992 348.26355 502.66367 349.99988Zm.66113-10.43847-1.24023-.04493c.0625-1.749.10059-3.49609.11133-5.1914l1.24023.00781C503.42539 336.0409 503.3873 337.79969 503.3248 339.56141Zm-1.17675-10.42871c-.04492-1.76856-.1211-3.5127-.22559-5.18458l1.23828-.07617c.10449 1.68555.18164 3.44532.22754 5.2295ZM501.75645 358.25184l-1.23047-.16016q.20068-1.53516.37207-3.02539l1.23242.14258Q501.95616 356.7074 501.75645 358.25184ZM534.01719 271.99012a10.79593 10.79593 0 0 0-2.25781-1.75293l.54589-1.11426a11.59433 11.59433 0 0 1 2.56739 1.96875ZM552.01523 368.94129l-1.23828-.06836q.17871-3.21534.30567-6.2959l1.23828.05078Q552.19346 365.71717 552.01523 368.94129Zm.51954-12.62988-1.24024-.03321q.085-3.22851.11133-6.30078l1.24023.01172Q552.61826 353.07118 552.53477 356.31141Zm-1.12793-12.63575q-.03224-3.24023-.125-6.29687l1.24023-.03711q.09228 3.06885.125 6.32227Zm-.38575-12.58593c-.1123-2.11914-.251-4.23243-.41211-6.28125l1.23633-.09766c.16211 2.06055.30078 4.18359.41407 6.3125Zm-.99414-12.5459c-.2334-2.13965-.49609-4.23926-.78125-6.24121l1.22852-.17578c.28711 2.0166.55078 4.12988.78516 6.28222Zm-1.78808-12.44727c-.38477-2.10742-.8125-4.17676-1.27051-6.15136l1.209-.2793c.46192 1.99219.89258 4.08105 1.28223 6.208Zm-2.85352-12.22168c-.60937-2.07617-1.27148-4.07715-1.96777-5.94629l1.16211-.43359c.707 1.89746 1.37793 3.92578 1.99511 6.03027Zm-4.41015-11.69629a47.1783 47.1783 0 0 0-3.06055-5.418l1.0332-.68554a48.25809 48.25809 0 0 1 3.14258 5.5625ZM551.401 378.34559l-1.23633-.0918q.11425-1.53663.21875-3.0459l1.23633.08594Q551.51572 376.80555 551.401 378.34559Z"></path>
  <path fill="#b02336" d="M224.95471,356.62357a45.35573,45.35573,0,0,0,1.22461,4.56348,28.29,28.29,0,0,0,1.77343,4.29468,18.34683,18.34683,0,0,0,2.62525,3.7644,14.999,14.999,0,0,0,3.73926,2.76563,10.27432,10.27432,0,0,1-4.27955-2.20264,14.344,14.344,0,0,1-2.97021-3.86352,19.18119,19.18119,0,0,1-1.6377-4.55249A18.22539,18.22539,0,0,1,224.95471,356.62357Z"></path>
  <path fill="#fff" d="M489.09794,201.974h70.22743a0,0,0,0,1,0,0v11.14966a0,0,0,0,1,0,0H489.09794a4.79756,4.79756,0,0,1-4.79756-4.79756v-1.55454A4.79756,4.79756,0,0,1,489.09794,201.974Z"></path>
  <path fill="#f65b2b" d="M561.5216,213.409a1.01021,1.01021,0,0,1-1.0102,1.01021H487.62308c-2.783,0-5.04667-3.05662-5.04667-6.81438,0-3.75684,2.26371-6.81346,5.04667-6.81346H560.5114a1.0102,1.0102,0,0,1,1.0102,1.0102v.79517a1.0102,1.0102,0,0,1-1.0102,1.0102H487.62308c-1.63312,0-2.96148,1.79364-2.96148,3.99789,0,2.20516,1.32836,3.99881,2.96148,3.99881H560.5114a1.0102,1.0102,0,0,1,1.0102,1.0102Z"></path>
  <path fill="#fff" d="M478.14113,188.34613h70.22743a0,0,0,0,1,0,0v11.14966a0,0,0,0,1,0,0H478.14113a4.79756,4.79756,0,0,1-4.79756-4.79756v-1.55454A4.79756,4.79756,0,0,1,478.14113,188.34613Z"></path>
  <path fill="#ffba55" d="M550.56479,199.78118a1.01021,1.01021,0,0,1-1.01021,1.01021H476.66626c-2.783,0-5.04666-3.05662-5.04666-6.81438,0-3.75684,2.2637-6.81346,5.04666-6.81346h72.88832a1.01021,1.01021,0,0,1,1.01021,1.01021v.79516a1.01021,1.01021,0,0,1-1.01021,1.0102H476.66626c-1.63312,0-2.96148,1.79365-2.96148,3.99789,0,2.20517,1.32836,3.99881,2.96148,3.99881h72.88832a1.01021,1.01021,0,0,1,1.01021,1.0102Z"></path>
  <path fill="#fff" d="M500.56929,174.71829h70.22743a0,0,0,0,1,0,0v11.14966a0,0,0,0,1,0,0H500.56929a4.79756,4.79756,0,0,1-4.79756-4.79756v-1.55454A4.79756,4.79756,0,0,1,500.56929,174.71829Z"></path>
  <path fill="#f65b2b" d="M572.99295,186.15335a1.01021,1.01021,0,0,1-1.01021,1.0102H499.09442c-2.783,0-5.04666-3.05662-5.04666-6.81438,0-3.75684,2.2637-6.81346,5.04666-6.81346h72.88832a1.01021,1.01021,0,0,1,1.01021,1.01021v.79516a1.01021,1.01021,0,0,1-1.01021,1.0102H499.09442c-1.63312,0-2.96148,1.79365-2.96148,3.99789,0,2.20517,1.32836,3.99881,2.96148,3.99881h72.88832a1.01021,1.01021,0,0,1,1.01021,1.01021Z"></path>
  <path fill="#935b50" d="M362.18853 216.69512h10.431a0 0 0 0 1 0 0v21.85611a2 2 0 0 1-2 2h-6.431a2 2 0 0 1-2-2V216.69512A0 0 0 0 1 362.18853 216.69512ZM536.43169 216.69512h10.431a0 0 0 0 1 0 0v21.85611a2 2 0 0 1-2 2h-6.431a2 2 0 0 1-2-2V216.69512A0 0 0 0 1 536.43169 216.69512Z"></path>
  <path fill="#d6694b" d="M574.41433,219.03432H343.431a2.33884,2.33884,0,1,1,0-4.67767H574.41433a2.33884,2.33884,0,1,1,0,4.67767Z"></path>
  <rect width="9.683" height="1.17" x="414.432" y="208.678" fill="#fff"></rect>
  <rect width="9.683" height="1.17" x="414.432" y="204" fill="#fff"></rect>
  <rect width="9.683" height="1.17" x="414.432" y="161.9" fill="#fff"></rect>
  <rect width="9.683" height="1.17" x="414.432" y="157.224" fill="#fff"></rect>
  <polygon fill="#e19974" points="542.815 173.444 528.678 173.444 523.915 148.41 547.578 148.41 542.815 173.444"></polygon>
  <polygon fill="#d6694b" points="547.034 151.268 547.578 148.41 523.915 148.41 524.459 151.268 547.034 151.268"></polygon>
  <rect width="4.223" height="4.223" x="527.697" y="161.577" fill="#d6694b" transform="rotate(45 529.808 163.688)"></rect>
  <rect width="4.223" height="4.223" x="533.669" y="161.577" fill="#d6694b" transform="rotate(45 535.78 163.688)"></rect>
  <rect width="4.223" height="4.223" x="539.573" y="161.577" fill="#d6694b" transform="rotate(45 541.685 163.688)"></rect>
  <path fill="#558031" d="M541.25317,127.34158s1.24136,17.53747-6.03439,21.25414C535.21878,148.59572,532.69993,141.94666,541.25317,127.34158Z"></path>
  <path fill="#849f4c" d="M517.7757,134.87491s11.90278,2.05372,17.44308,13.72081C535.21878,148.59572,522.12978,144.15016,517.7757,134.87491Z"></path>
  <path fill="#a6b862" d="M521.99611,157.84666s6.05337-9.05609,13.22267-9.25094C535.21878,148.59572,534.13948,155.88755,521.99611,157.84666Z"></path>
  <path fill="#849f4c" d="M529.463,129.84134s8.39909,7.66867,5.75573,18.75438C535.21878,148.59572,530.566,143.66382,529.463,129.84134Z"></path>
  <path fill="#a6b862" d="M535.21878,148.59572s2.95091-10.80205,17.86844-13.572C553.08722,135.02373,549.73012,144.85918,535.21878,148.59572Z"></path>
  <path fill="#849f4c" d="M557.03891,145.772s-11.38166-4.69218-21.82013,2.82373C535.21878,148.59572,549.09562,150.26176,557.03891,145.772Z"></path>
  <path fill="#558031" d="M556.93536 156.69589s-5.49566-8.80277-21.71658-8.10017ZM511.645 147.17085s14.94766-5.54254 23.76941 1.15985C535.41439 148.3307 527.0379 152.94457 511.645 147.17085Z"></path>
  <path fill="#558031" d="M523.90242,131.12194s13.33786,9.43347,11.42453,17.48145C535.327,148.60339,526.07356,141.18413,523.90242,131.12194Z"></path>
  <path fill="#849f4c" d="M547.29945,157.98522s-10.99554-1.87717-12.08067-9.3895C535.21878,148.59572,543.25291,148.99364,547.29945,157.98522Z"></path>
  <path fill="#8b9d36" d="M357.16172,183.95105c-7.44727,0-23.2793-11.501-25.16895-12.89453a1.2229,1.2229,0,1,1,1.45118-1.96875c7.24707,5.33985,20.29882,13.40235,24.46386,12.33789a1.22337,1.22337,0,1,1,.61133,2.36914A5.43555,5.43555,0,0,1,357.16172,183.95105Z"></path>
  <path fill="#8b9d36" d="M357.04355 184.86609a1.22324 1.22324 0 0 1-1.21875-1.13476l-2.9541-40.49317a1.22208 1.22208 0 0 1 1.13086-1.30859 1.20363 1.20363 0 0 1 1.3086 1.13086l2.9541 40.49316a1.22208 1.22208 0 0 1-1.13086 1.3086C357.10313 184.86512 357.07285 184.86609 357.04355 184.86609ZM369.46641 185.94129a1.25486 1.25486 0 0 1-.21582-.01856 1.22485 1.22485 0 0 1-.99024-1.418c.13477-.75879 3.49121-18.68262 20.54492-26.64063a1.22329 1.22329 0 1 1 1.03516 2.2168c-15.876 7.40918-19.13965 24.67871-19.1709 24.85254A1.2232 1.2232 0 0 1 369.46641 185.94129Z"></path>
  <path fill="#5e7c24" d="M368.00375 180.5451c-.99478-1.94819-6.34056-1.95089-9.75419.44264a9.34792 9.34792 0 0 0-3.28786 4.31442c-.58123 1.49715-1.51148 3.89278-.21911 5.53128 1.05245 1.33421 3.22929 1.72373 5.37017.99541a26.17621 26.17621 0 0 0 4.60312-4.53559C366.69621 184.786 368.80557 182.11548 368.00375 180.5451ZM372.16865 180.32394c-.37252.9783.36658 2.09974 1.75349 4.20368a20.19706 20.19706 0 0 0 4.82224 5.08895 5.7533 5.7533 0 0 0 6.79514.77424 5.5041 5.5041 0 0 0 2.52052-4.64632c-.02259-2.86617-2.47147-4.63971-3.39727-5.31012C380.17916 177.18708 373.06948 177.95922 372.16865 180.32394ZM385.32011 161.96013c.32673-.557 1.17345-.274 3.06875-.55337 1.50346-.22176 1.53111-.48254 4.71283-1.438a18.13677 18.13677 0 0 1 4.0552-.99571c.57439.0027 3.82093.01741 4.93165 2.21258 1.16364 2.2996-.99061 5.06764-1.09586 5.19938-2.0826 2.6021-5.64071 2.47516-6.79513 2.43375a10.49083 10.49083 0 0 1-7.34307-3.53988C386.59464 164.98806 384.75256 162.927 385.32011 161.96013ZM355.40022 151.22916c-1.1568-.58248-.47985-4.28321-.1097-6.30553a37.53442 37.53442 0 0 1 2.0823-6.30582c1.9179-5.05294 2.35552-5.59731 3.06875-5.86289 1.66906-.62179 4.12566.55067 5.04165 2.323 1.268 2.45355-.67577 5.5553-2.73994 8.85C360.76087 147.0918 356.90487 151.98659 355.40022 151.22916Z"></path>
  <path fill="#c4ce6e" d="M354.9617,160.96443c.85088-1.38462-.71471-4.09235-2.30142-5.53129-1.33191-1.20787-2.69474-1.53617-5.04164-2.10184-2.63588-.63529-5.53726-1.33451-6.35662-.11073-.78131,1.16675.74712,3.45885,1.09615,3.98251a9.68858,9.68858,0,0,0,4.49343,3.42945C349.19344,161.60182,353.86376,162.75087,354.9617,160.96443Z"></path>
  <path fill="#5e7c24" d="M355.0714 171.6951c.03122-1.10163-1.56143-1.33-4.82224-3.98251-2.5886-2.10574-2.66234-2.838-4.1649-3.31871-2.30023-.73583-5.303-.03511-5.80869 1.438-.12368.36071-.10614.79135 1.86319 3.98252 1.532 2.48236 2.31331 3.73314 3.06876 4.20368a7.20026 7.20026 0 0 0 5.47987.55307C352.063 174.24558 355.02919 173.18806 355.0714 171.6951ZM356.2699 158.96264c-1.07415-1.21625.00668-4.15544 1.32452-5.84843 1.10622-1.42112 2.3928-1.98115 4.60832-2.94587 2.48833-1.08348 5.2273-2.276 6.243-1.21275.9685 1.01371-.14655 3.537-.40114 4.11348a9.734 9.734 0 0 1-3.842 4.1585C362.0608 158.589 357.65591 160.53183 356.2699 158.96264ZM357.0647 170.39463c-.21848-1.0798 1.31151-1.58129 4.0717-4.76042 2.19118-2.5238 2.139-3.25792 3.53727-3.99238 2.14055-1.12423 5.218-.95532 5.96717.40807.18331.33386.23941.76112-1.15675 4.24665-1.08614 2.71135-1.64265 4.07915-2.30665 4.67384a7.21081 7.21081 0 0 1-5.30395 1.49627C360.46289 172.38476 357.36071 171.858 357.0647 170.39463ZM339.50853 176.12c-.1537-1.20036-2.13046-1.863-4.49342-2.65491-2.13493-.71541-3.82985-1.28379-5.80869-.6638-.34992.10953-3.46268 1.08453-3.72638 3.42945-.23666 2.10334 2.00738 3.63891 2.192 3.76135 1.80374 1.19706 3.82093.809 5.15106.55306C335.90493 179.95212 339.73478 177.88569 339.50853 176.12Z"></path>
  <path fill="#c4ce6e" d="M348.386,181.65124c-1.65032-1.17756-4.76516.81985-6.24721,1.77024a13.10155,13.10155,0,0,0-3.83579,3.76105c-1.14164,1.71322-2.228,3.34392-1.64408,4.757.83958,2.03132,4.464,2.001,4.932,1.99111A7.88239,7.88239,0,0,0,346.961,191.497a8.38464,8.38464,0,0,0,2.0826-4.20369C349.24309,186.37288,350.01459,182.8135,348.386,181.65124Z"></path>
  <path fill="#8b9d36" d="M335.23422 170.3675c-.92847-1.35011-.60323-2.30711-.98645-4.64632-.60917-3.71873-1.90511-4.195-1.42467-6.08436.37817-1.487 1.65954-3.07413 3.06875-3.09754 1.97379-.033 3.24357 3.01772 3.507 3.65061.9579 2.30111.60471 4.30722 0 7.74387-.39482 2.24348-.696 3.84957-1.64379 4.09325C336.83876 172.26258 335.748 171.11443 335.23422 170.3675ZM377.21 170.0356c.29285-.82856 1.84506-.954 3.72639-1.10614 2.35047-.19 4.11228-.3325 5.80869.77424.261.17015 3.0075 2.01361 2.52052 4.204-.38054 1.71142-2.50714 2.6093-4.0549 2.65491-1.67946.04951-2.8214-.9-4.93194-2.65491C378.616 172.52516 376.84938 171.05591 377.21 170.0356Z"></path>
  <path fill="#5e7c24" d="M379.94994,163.73007c-.42187-.096-.448-.68361-.98645-2.32331-1.20318-3.66321-2.145-3.996-1.9726-5.53128.19087-1.69852,1.59265-3.50717,2.84935-3.42945,1.37.08463,2.18933,2.38723,2.52082,3.319a7.17679,7.17679,0,0,1,.43852,3.42945C382.49217,161.57271,380.86474,163.93864,379.94994,163.73007Z"></path>
  <path fill="#8b9d36" d="M352.76969,147.8c-.6395.90688-4.27045-.16715-6.68543-2.32331-.61661-.55036-3.34554-2.98711-2.63023-5.31012a2.73667,2.73667,0,0,1,2.192-1.9911c1.0239-.02521,1.68956,1.01491,3.39756,3.53988C352.55563,146.90814,353.05005,147.40239,352.76969,147.8Z"></path>
  <path fill="#c4ce6e" d="M372.71658,172.24817c-1.83911.50056-4.24547-3.38353-4.82224-4.31441a14.272,14.272,0,0,1-2.192-7.965c.07879-1.75914.22238-4.96652,2.08231-5.75246,1.782-.75293,4.19255,1.11694,5.37016,2.54418,2.32372,2.81576,1.95417,6.45857,1.64408,9.5138C374.55747,168.65458,374.2346,171.835,372.71658,172.24817Z"></path>
  <path fill="#e19974" d="M372.98319,214.51859h-18.0714L349.098,183.67478a1.22592,1.22592,0,0,1,1.19629-1.45891h27.30633a1.22592,1.22592,0,0,1,1.19629,1.45891Z"></path>
  <path fill="#d6694b" d="M378.37692,185.9034l.42009-2.2286a1.22592,1.22592,0,0,0-1.19629-1.45892H350.29431a1.22592,1.22592,0,0,0-1.19629,1.45892l.42009,2.2286Z"></path>
  <polygon fill="#d6694b" points="356.356 205.783 352.539 201.93 356.356 198.077 360.174 201.93 356.356 205.783"></polygon>
  <polygon fill="#d6694b" points="363.991 205.783 360.174 201.93 363.991 198.077 367.809 201.93 363.991 205.783"></polygon>
  <polygon fill="#d6694b" points="371.538 205.783 367.721 201.93 371.538 198.077 375.356 201.93 371.538 205.783"></polygon>
  <path fill="#7ca1b1" d="M437.557,178.43935h60.56655a0,0,0,0,1,0,0v9.5233a0,0,0,0,1,0,0H437.557a.98986.98986,0,0,1-.98986-.98986v-7.54358a.98986.98986,0,0,1,.98986-.98986Z" transform="rotate(97.76 467.345 183.201)"></path>
  <rect width="1.149" height="9.524" x="470.293" y="152.593" fill="#fff" transform="rotate(-82.245 470.868 157.355)"></rect>
  <rect width="1.149" height="9.524" x="469.672" y="157.151" fill="#fff" transform="rotate(-82.239 470.246 161.912)"></rect>
  <rect width="1.149" height="9.524" x="464.081" y="198.178" fill="#fff" transform="rotate(-82.245 464.656 202.94)"></rect>
  <rect width="1.149" height="9.524" x="463.46" y="202.736" fill="#fff" transform="rotate(-82.245 464.035 207.5)"></rect>
  <path fill="#f65b2b" d="M445.65342,153.77374l0,60.56655h-9.5233l0-60.56655a.98985.98985,0,0,1,.98986-.98986h7.54358A.98987.98987,0,0,1,445.65342,153.77374Z"></path>
  <rect width="9.522" height="1.15" x="436.13" y="209.072" fill="#fff"></rect>
  <rect width="9.522" height="1.15" x="436.13" y="204.472" fill="#fff"></rect>
  <rect width="9.522" height="1.15" x="436.13" y="163.066" fill="#fff"></rect>
  <rect width="9.522" height="1.15" x="436.13" y="158.466" fill="#fff"></rect>
  <path fill="#ffba55" d="M445.64189,214.34029V156.53411a.98987.98987,0,0,1,.98987-.98986h10.856a.98987.98987,0,0,1,.98986.98986v57.80618Z"></path>
  <rect width="12.836" height="1.15" x="445.642" y="207.105" fill="#fff"></rect>
  <rect width="27.466" height="8.281" x="438.327" y="168.449" fill="#fff" transform="rotate(90 452.06 172.59)"></rect>
  <path fill="#ffba55" d="M413.78855,153.77374l0,60.56655h9.5233l0-60.56655a.98986.98986,0,0,0-.98987-.98986h-7.54357A.98987.98987,0,0,0,413.78855,153.77374Z"></path>
  <rect width="9.523" height="1.15" x="413.789" y="209.072" fill="#fff"></rect>
  <rect width="9.523" height="1.15" x="413.789" y="204.472" fill="#fff"></rect>
  <rect width="9.523" height="1.15" x="413.789" y="163.066" fill="#fff"></rect>
  <rect width="9.523" height="1.15" x="413.789" y="158.466" fill="#fff"></rect>
  <path fill="#f65b2b" d="M413.80008,214.34029V156.53411a.98987.98987,0,0,0-.98986-.98986h-10.856a.98987.98987,0,0,0-.98987.98986v57.80618Z"></path>
  <rect width="12.836" height="1.15" x="400.964" y="207.105" fill="#fff"></rect>
  <rect width="27.466" height="8.281" x="393.649" y="168.449" fill="#fff" transform="rotate(90 407.382 172.59)"></rect>
  <path fill="#7ca1b1" d="M401.31283,178.52439H459.119a0,0,0,0,1,0,0v12.83575a0,0,0,0,1,0,0H401.31283a.98986.98986,0,0,1-.98986-.98986v-10.856A.98986.98986,0,0,1,401.31283,178.52439Z" transform="rotate(90 429.721 184.942)"></path>
  <rect width="12.836" height="1.15" x="423.303" y="207.105" fill="#fff"></rect>
  <rect width="27.466" height="8.281" x="415.988" y="168.449" fill="#fff" transform="rotate(90 429.721 172.59)"></rect>
  <rect width="500" height="2" x="100" y="473.346" fill="#935b50"></rect>
  <path fill="#f9977a" d="M272.05993 225.80817a24.7319 24.7319 0 0 1 11.55193.99018c1.74256.61786 8.11583 2.87749 11.22222 8.9116 1.17984 2.29162 1.44643 5.04837 1.98028 10.56188.3334 3.44384 1.65975 5.91035 1.65774 10.11066a35.48555 35.48555 0 0 1-1.65774 10.02294c-1.54449 5.07766-.55 7.96246-1.32018 8.9116-3.104 3.82529-12.52744.82389-12.669 5.81552-.08739 3.0822 2.26531 3.65625 2.06573 7.26307-.25874 4.67588-15.3092 2.13082-19.7623-.20629-.607-.3186-6.12817-3.9336-5.52684-9.385.32132-2.91221 2.79381-16.57691 2.55643-18.34-.85852-6.37245-4.06967-7.14959-6.60125-14.85265a11.98184 11.98184 0 0 1 1.98031-11.55207A24.4745 24.4745 0 0 1 272.05993 225.80817ZM347.82212 332.25911l19.3164-9.32506s3.94386-3.05925 9.03013-10.621c1.87438-2.78663 2.502-6.89085 1.00731-9.89826-1.37015-2.75679 4.29845-2.61883-2.80731-1.2-8.62157 1.72149-12.20118 6.62947-14.05253 8.7142-.64139.72223-5.37666 5.15732-5.37666 5.15732Z"></path>
  <path fill="#6c7fd8" d="M499.64925,302.32781,486.218,287.94538l-7.55827,14.58791-39.2785,35.65515-2.4355-49.80072a1.47888,1.47888,0,0,0-1.276-1.39291l-40.15458-5.511a1.47889,1.47889,0,0,0-1.63027,1.085l-3.08127,11.58315a2.19922,2.19922,0,0,0-.89551-.0512c-15.185,2.255-24.27707,7.59108-27.0228,15.86022-4.91864,14.81121,12.83905,32.91223,13.59729,33.67545a2.20067,2.20067,0,0,0,1.00446.57573l-.50094,1.88331a6.90154,6.90154,0,0,0,5.73122,8.61153l49.6223,6.81042c4.28092.58754,7.57919-1.36867,7.99582-8.12777l42.95077-44.08235Zm-132.55166,9.02563c2.12592-6.39075,9.7-10.66612,22.51293-12.71637l-10.88246,40.90978C375.31805,335.801,363.592,321.89243,367.09759,311.35344Z"></path>
  <path fill="#f9977a" d="M349.0086 329.185s-1.02271-5.748 5.77956-16.68137 13.32083-18.81257 10.41153-10.21406l-2.32549 6.51564ZM366.89516 319.4019l-.84414-1.36511a3.46207 3.46207 0 0 1-.44256-2.53737l1.47445-6.97033a3.4622 3.4622 0 0 1 1.17763-1.94888l4.80546-3.98363a3.46214 3.46214 0 0 1 3.72259-.44864h0a12.40528 12.40528 0 0 1-4.27565 12.76614Z"></path>
  <path fill="#dd765e" d="M370.86364 304.31132a14.32422 14.32422 0 0 1 1.61426.83276c.52564.29761 1.02539.634 1.52222.9751.4895.35132.97632.70752 1.43237 1.1062a10.82793 10.82793 0 0 1 1.30151 1.27173c-1.06421-.59351-2.06152-1.24609-3.04834-1.93018-.48657-.35058-.97607-.697-1.44384-1.07641A18.10939 18.10939 0 0 1 370.86364 304.31132ZM367.51281 307.95121a19.89831 19.89831 0 0 1 1.93408.96021c.63257.34082 1.23951.72314 1.844 1.10986.59765.39673 1.19043.80322 1.7539 1.252A12.29756 12.29756 0 0 1 374.652 312.722c-1.24585-.728-2.46264-1.46118-3.66064-2.24292-.59424-.39624-1.19141-.78882-1.7688-1.21338C368.64172 308.84647 368.06359 308.42216 367.51281 307.95121ZM366.4508 312.313a9.82483 9.82483 0 0 1 1.32056.72583 14.20865 14.20865 0 0 1 1.22143.865 12.81764 12.81764 0 0 1 1.12329.99219 7.50785 7.50785 0 0 1 .98072 1.14941c-.437-.261-.84449-.542-1.25122-.82642-.40992-.27978-.8-.58374-1.19214-.88574-.38379-.3125-.77149-.6206-1.13574-.96069A12.58518 12.58518 0 0 1 366.4508 312.313Z"></path>
  <path fill="#f73c4f" d="M260.04049,276.41s-47.41309,18.51367-41.09131,59.15356l-8.54224,25.38281,9.44531-.0957s.45,8.79323,22.84011,23.94415c6.08148,4.11521,12.36764,8.6688,19.16242,11.45275l18.80343,10.08891a4,4,0,0,0,4.2897-.81875l9.19281-8.84376a4.00181,4.00181,0,0,0-.4778-6.15677,132.73343,132.73343,0,0,1-30.58825-30.116,39.38533,39.38533,0,0,0,30.94555-3.08228l1.39209-5.80054s17.46,16.55713,37.32837,6.62281a78.61615,78.61615,0,0,0,28.73921-24.54662,2.98242,2.98242,0,0,0,.48923-2.20617,34.48936,34.48936,0,0,0-7.20041-15.49448,2.99328,2.99328,0,0,0-3.78243-.6722l-29.95763,17.0374L313.143,312.4964a54.76953,54.76953,0,0,0-19.74233-22.85922l-10.33092-6.75479Z"></path>
  <path fill="#b02336" d="M295.41223,351.51859c.282-1.72607.5559-3.448.74951-5.18139.23266-1.72657.42456-3.45777.5647-5.19214.28515-3.46729.478-6.938.46264-10.40894a84.92609,84.92609,0,0,0-.71777-10.36963A49.41755,49.41755,0,0,0,295.433,315.272a48.06874,48.06874,0,0,0-1.52588-4.99536,39.37034,39.37034,0,0,1,3.32275,9.96191,62.76382,62.76382,0,0,1,.95874,10.49268,79.90531,79.90531,0,0,1-.70117,10.4978A71.00851,71.00851,0,0,1,295.41223,351.51859Z"></path>
  <ellipse cx="295.489" cy="251.677" fill="#0a0709" rx="1.294" ry="1.609"></ellipse>
  <ellipse cx="283.823" cy="251.677" fill="#0a0709" rx="1.294" ry="1.609"></ellipse>
  <path fill="#1e1d22" d="M289.33457 248.79578a.81634.81634 0 0 1-.44531-1.501 8.66539 8.66539 0 0 1 9.68359.03321.8166.8166 0 0 1-.98242 1.30469 6.91042 6.91042 0 0 0-7.8125.03125A.8042.8042 0 0 1 289.33457 248.79578ZM277.24375 248.79578a.81634.81634 0 0 1-.44531-1.501 8.66539 8.66539 0 0 1 9.68359.03321.8166.8166 0 0 1-.98242 1.30469 6.90957 6.90957 0 0 0-7.8125.03125A.8042.8042 0 0 1 277.24375 248.79578Z"></path>
  <path fill="#dd765e" d="M288.22351 249.12821a7.302 7.302 0 0 0 .70629 3.89746 16.262 16.262 0 0 0 2.03028 3.44312l.65307.77832a1.586 1.586 0 0 1 .41895 1.08984 2.59459 2.59459 0 0 1-1.09912 1.87476 4.68306 4.68306 0 0 1-4.02759.5105 7.02146 7.02146 0 0 0 2.01025-.05738 3.52715 3.52715 0 0 0 1.752-.7771 2.32832 2.32832 0 0 0 .86889-1.55615c.04224-.54687-.57544-.96338-.99853-1.52a14.8118 14.8118 0 0 1-1.9895-3.61792A6.40609 6.40609 0 0 1 288.22351 249.12821ZM267.02185 249.67265a4.91557 4.91557 0 0 0-1.23951.61255 7.511 7.511 0 0 0-1.03442.86474 12.96866 12.96866 0 0 0-.91382 1.01734c-.29175.3601-.55884.74243-.86865 1.1184.05225-.23681.13745-.46118.20727-.6958l.31324-.65527a5.10219 5.10219 0 0 1 .87988-1.17212 4.11549 4.11549 0 0 1 1.21655-.843A2.62869 2.62869 0 0 1 267.02185 249.67265Z"></path>
  <path fill="#dd765e" d="M265.97058,256.38236a10.189,10.189,0,0,0-.033-2.988,8.29349,8.29349,0,0,0-.35962-1.42749c-.14868-.47632-.37818-.92115-.58447-1.40528a4.35081,4.35081,0,0,1,.968,1.23706,4.63619,4.63619,0,0,1,.51294,1.50757,4.84581,4.84581,0,0,1,.00635,1.59082A4.032,4.032,0,0,1,265.97058,256.38236Z"></path>
  <path fill="#1e1d22" d="M298.44934,266.75924a3.79049,3.79049,0,0,0-1.49064-3.24166c-.74609-.56627-1.68838-1.19416-2.60544-1.7546a10.49753,10.49753,0,0,0-8.92527-1.02038,58.05925,58.05925,0,0,0-7.18443,3.10554,3.237,3.237,0,0,1-4.35772-1.46883s-2.14342-9.25328-1.751-11.90245c.5471-3.69151.82069-5.53716.37857-7.03942-.70758-2.40458.46423-2.71768,1.97132-5.30185,1.41446-2.42534,5.79683-.46209,6.89045-.86633,3.06941-1.13473,2.95589-2.42718,5.03106-2.55622,2.12831-.13233,3.69018-.69459,5.06506.67856,1.40217,1.40159,3.9753,5.1272,4.60979,4.48086a12.128,12.128,0,0,0,2.37357-6.11418,13.44343,13.44343,0,0,0-1.50724-6.28267c-.50378-1.121-2.37982-5.293-6.286-6.40683-2.24977-.64161-2.68143.4419-7.548.72993-5.04768.2989-5.20438-.82973-7.84784-.07841-2.92618.83182-2.81489,2.23689-7.81549,4.96848a51.77847,51.77847,0,0,1-5.10527,2.35356c-6.27792,2.65843-7.09893,2.23337-8.54277,3.62857-3.11271,3.008-2.60444,8.17993-2.48169,9.42919.34594,3.5184,1.71969,4.57569,4.70755,10.2118,4.73107,8.92559,3.78172,12.67612,5.51565,13.92761.8506.61393,5.3384-2.57632,5.31761-4.14834-.027-2.06071-1.51173-2.711-3.26031-5.68946-1.22121-2.0816-2.97539-5.07018-1.96576-7.77932.611-1.63763,1.29266-1.18965,2.98947-1.03232,2.30289.21353,3.43579,3.42143,4.35918,5.77578a12.602,12.602,0,0,1,.84206,5.35834c-.24387,4.07405-.23764,11.07763,2.25265,14.53943,5.22278,7.26137,14.358,7.09219,14.358,7.09219C296.53,280.44454,298.17827,270.73062,298.44934,266.75924Zm-6.52808,4.20374a6.44512,6.44512,0,0,1-6.28247-.19944c-.39473-.23677-2.91506-1.81238-2.66048-4.07233.25372-2.25964,3.0583-3.22311,3.36795-3.31881a6.62146,6.62146,0,0,1,3.96158.14027c1.611.41814,4.43275,1.15379,4.80877,3.04549C295.484,268.37632,293.36832,270.21518,291.92126,270.963Z"></path>
  <path fill="#0a0709" d="M284.21929,266.40844s5.096,4.753,9.65295,0"></path>
  <path fill="#10394f" d="M260.04057,276.41005s-.90311,12.94454,13.77239,19.11577l3.08561-4.2145,2.40829,4.2145s6.47227-6.32175,3.763-12.6435Z"></path>
  <path fill="#f9977a" d="M260.04057,276.41005s8.88055,13.09506,16.858,14.90127c0,0,5.26813-5.1176,6.17124-8.429l-6.52245-3.51208Z"></path>
  <path fill="#b02336" d="M254.17028 322.31791q.1875 3.59728.28247 7.19409c.04761 2.39795.13794 4.7959.15064 7.19409l.05713 7.19385c.02 2.39819-.02735 4.79614-.03784 7.19409l-.11524-.30127q3.8357 4.303 7.57959 8.688 3.77929 4.35353 7.45215 8.80176-4.00086-4.155-7.9165-8.38647-3.92835-4.22022-7.78931-8.50049l-.1145-.12744-.00074-.17408c-.01049-2.39795-.05786-4.7959-.03808-7.19409l.05737-7.19385c.0127-2.39819.10279-4.79614.15039-7.19409Q253.98083 325.91508 254.17028 322.31791ZM218.94909 335.56352c.083 2.124.09424 4.23925.11524 6.35327l.04785 6.33349c.00659 2.10938.06006 4.21411.114 6.31909.03223 1.0525.09131 2.1023.18921 3.14942.02661.5271.10889 1.04394.16113 1.57056.06421.52319.1941 1.031.27564 1.56127a22.35161 22.35161 0 0 1-1.39331-6.22485c-.23633-2.11743-.3169-4.24463-.34595-6.36743.00049-2.12329.03784-4.24561.18579-6.36255C218.43811 339.77909 218.62023 337.66483 218.94909 335.56352ZM276.89855 291.31132c1.05494 5.84082 1.71021 11.74951 2.18018 17.66821.478 5.92017.64038 11.86231.67554 17.80225-.02661 5.94018-.25879 11.883-.79395 17.79956a161.51792 161.51792 0 0 1-2.51538 17.62475l.53638-4.416.27783-2.2041.19971-2.21338.43774-4.41944.29663-4.4309c.21021-2.95166.314-5.91065.44776-8.86573.06323-2.959.14917-5.91674.1145-8.87622.04834-5.91821-.12818-11.83789-.44068-17.751q-.22924-4.43556-.58813-8.865C277.51135 297.209 277.222 294.26005 276.89855 291.31132ZM306.96618 348.6746a35.39214 35.39214 0 0 0 4.82178 3.228 25.80918 25.80918 0 0 0 5.25806 2.22485 17.41347 17.41347 0 0 0 5.6101.69312l1.425-.09961 1.40674-.27686c.23584-.04565.478-.07568.71143-.13476l.68652-.22657c.45776-.15551.9231-.30078 1.397-.44018a13.66424 13.66424 0 0 1-5.56323 1.95581 15.08783 15.08783 0 0 1-5.94849-.51026 20.32276 20.32276 0 0 1-5.38647-2.521A20.10445 20.10445 0 0 1 306.96618 348.6746ZM225.82067 355.19389a35.39519 35.39519 0 0 0 1.29444 5.65649 25.77857 25.77857 0 0 0 2.2998 5.22559 17.40827 17.40827 0 0 0 3.60645 4.35278l1.10522.905 1.21363.76343c.20288.12866.39965.2727.6101.38989l.65479.30615c.43994.20093.87817.41455 1.3186.63794a13.6652 13.6652 0 0 1-5.38965-2.39307 15.08746 15.08746 0 0 1-3.97827-4.45166 20.32713 20.32713 0 0 1-2.19018-5.52929A20.10433 20.10433 0 0 1 225.82067 355.19389Z"></path>
  <path fill="#376f92" d="M304.93435,357.79057,327.16243,360.29S309.90005,371.46633,304.93435,357.79057Z"></path>
</svg>